<svg width="24" height="25" viewBox="0 0 24 25" fill="none" xmlns="http://www.w3.org/2000/svg">
<path d="M1 14.8V10.2C1 5.86335 1 3.69445 2.43244 2.3478C3.86367 1 6.16878 1 10.7778 1H13.2222C17.8312 1 20.1363 1 21.5676 2.3478C22.3669 3.09875 22.7201 4.105 22.8753 5.6M23 10.2V14.8C23 19.1366 23 21.3055 21.5676 22.6522C20.1363 24 17.8312 24 13.2222 24H10.7778C6.16878 24 3.86367 24 2.43244 22.6522C1.63311 21.9012 1.27989 20.895 1.12467 19.4M7.11111 14.8H13.2222M7.11111 10.2H8.33333M16.8889 10.2H12" stroke="#F5F5F5" stroke-width="1.5" stroke-linecap="round"/>
</svg>
