<svg width="27" height="24" viewBox="0 0 27 24" fill="none" xmlns="http://www.w3.org/2000/svg">
<path d="M8.9235 14.8133C8.9235 12.04 10.2465 9.58667 12.285 8H2.7L4.725 2H19.575L21.222 6.88C22.356 7.37333 23.355 8.09333 24.1785 8.98667L21.492 1.33333C21.222 0.56 20.466 0 19.575 0H4.725C3.834 0 3.078 0.56 2.808 1.33333L0 9.33333V20C0 20.7333 0.6075 21.3333 1.35 21.3333H2.7C3.4425 21.3333 4.05 20.7333 4.05 20V18.6667H9.8415C9.261 17.5067 8.9235 16.2 8.9235 14.8133ZM4.725 14.6667C3.6045 14.6667 2.7 13.7733 2.7 12.6667C2.7 11.56 3.6045 10.6667 4.725 10.6667C5.8455 10.6667 6.75 11.56 6.75 12.6667C6.75 13.7733 5.8455 14.6667 4.725 14.6667ZM17.6985 8.81333C21.0735 8.81333 23.7735 11.48 23.7735 14.8133C23.7735 16 23.436 17.0933 22.842 18L27 22.1467L25.1235 24L20.925 19.9067C19.98 20.48 18.9 20.8133 17.6985 20.8133C14.3235 20.8133 11.6235 18.1467 11.6235 14.8133C11.6235 11.48 14.3235 8.81333 17.6985 8.81333ZM17.6985 11.48C17.031 11.48 16.3785 11.6755 15.8235 12.0418C15.2684 12.408 14.8359 12.9286 14.5804 13.5377C14.325 14.1468 14.2581 14.817 14.3884 15.4636C14.5186 16.1102 14.84 16.7042 15.312 17.1704C15.784 17.6365 16.3854 17.954 17.0401 18.0826C17.6948 18.2112 18.3734 18.1452 18.9901 17.8929C19.6068 17.6406 20.1339 17.2134 20.5047 16.6652C20.8756 16.1171 21.0735 15.4726 21.0735 14.8133C21.0735 12.96 19.575 11.48 17.6985 11.48Z" fill="#F5F5F5"/>
</svg>
