<svg width="29" height="28" viewBox="0 0 29 28" fill="none" xmlns="http://www.w3.org/2000/svg">
<path d="M27.405 0H1.595C1.17198 0 0.766285 0.16225 0.467165 0.451056C0.168044 0.739862 0 1.13157 0 1.54V26.46C0 26.8684 0.168044 27.2601 0.467165 27.5489C0.766285 27.8378 1.17198 28 1.595 28H15.486V17.15H11.716V12.95H15.486V9.8C15.4079 9.06046 15.4983 8.31338 15.7509 7.61115C16.0035 6.90893 16.4122 6.26856 16.9483 5.73498C17.4843 5.20139 18.1348 4.7875 18.8541 4.52233C19.5734 4.25717 20.344 4.14715 21.112 4.2C22.2406 4.19329 23.3686 4.24939 24.4905 4.368V8.148H22.185C20.358 8.148 20.01 8.988 20.01 10.206V12.908H24.36L23.7945 17.108H20.01V28H27.405C27.6145 28 27.8219 27.9602 28.0154 27.8828C28.2089 27.8054 28.3847 27.6919 28.5328 27.5489C28.6809 27.4059 28.7984 27.2362 28.8786 27.0493C28.9587 26.8625 29 26.6622 29 26.46V1.54C29 1.33776 28.9587 1.13751 28.8786 0.950668C28.7984 0.763826 28.6809 0.594058 28.5328 0.451056C28.3847 0.308053 28.2089 0.194618 28.0154 0.117226C27.8219 0.0398334 27.6145 0 27.405 0Z" fill="#F5F5F5"/>
</svg>
