<svg width="28" height="24" viewBox="0 0 28 24" fill="none" xmlns="http://www.w3.org/2000/svg">
<path d="M14 3.80317L13.2967 4.46998C13.3879 4.56306 13.4971 4.6371 13.6179 4.68767C13.7388 4.73824 13.8687 4.76431 14 4.76431C14.1313 4.76431 14.2612 4.73824 14.3821 4.68767C14.5029 4.6371 14.6121 4.56306 14.7033 4.46998L14 3.80317ZM7.48967 17.8063C7.28934 17.6441 7.03177 17.5669 6.77361 17.5916C6.51546 17.6164 6.27787 17.7411 6.11312 17.9384C5.94836 18.1356 5.86994 18.3893 5.89509 18.6435C5.92025 18.8976 6.04693 19.1316 6.24726 19.2938L7.48967 17.8063ZM1.42214 13.9477C1.48371 14.0586 1.56684 14.1563 1.66679 14.2355C1.76673 14.3147 1.88154 14.3737 2.00465 14.4092C2.12776 14.4447 2.25676 14.4559 2.38429 14.4423C2.51181 14.4287 2.63537 14.3905 2.74791 14.3299C2.86044 14.2693 2.95975 14.1874 3.04015 14.089C3.12056 13.9906 3.18049 13.8775 3.21653 13.7563C3.25257 13.6351 3.264 13.5081 3.25019 13.3825C3.23637 13.2569 3.19757 13.1353 3.136 13.0245L1.42214 13.9477ZM1.95349 8.46703C1.95349 5.71001 3.53581 3.39667 5.69637 2.42337C7.79572 1.47829 10.6166 1.72834 13.2967 4.46998L14.7033 3.13763C11.5256 -0.115659 7.83219 -0.652958 4.88372 0.674262C2.00037 1.97327 0 4.98933 0 8.46703H1.95349ZM9.43795 21.7559C10.106 22.274 10.8223 22.8254 11.5477 23.2434C12.2731 23.6602 13.1014 24 14 24V22.0765C13.5963 22.0765 13.1222 21.9226 12.5336 21.5828C11.9436 21.2443 11.3328 20.7775 10.6478 20.2453L9.43795 21.7559ZM18.562 21.7559C20.4192 20.3133 22.7946 18.6616 24.6569 16.5958C26.5544 14.4927 28 11.8857 28 8.46703H26.0465C26.0465 11.2856 24.8744 13.4566 23.197 15.3186C21.4845 17.2164 19.3265 18.7129 17.3522 20.2453L18.562 21.7559ZM28 8.46703C28 4.98933 26.0009 1.97327 23.1163 0.674262C20.1678 -0.652958 16.477 -0.115659 13.2967 3.13635L14.7033 4.46998C17.3834 1.72963 20.2043 1.47829 22.3036 2.42337C24.4642 3.39667 26.0465 5.70872 26.0465 8.46703H28ZM17.3522 20.2453C16.6672 20.7775 16.0564 21.2443 15.4664 21.5828C14.8778 21.9213 14.4037 22.0765 14 22.0765V24C14.8986 24 15.7269 23.6602 16.4523 23.2434C17.179 22.8254 17.894 22.274 18.562 21.7559L17.3522 20.2453ZM10.6478 20.2453C9.61116 19.4413 8.55758 18.6719 7.48967 17.8063L6.24726 19.2938C7.32819 20.1697 8.47163 21.0057 9.43795 21.7559L10.6478 20.2453ZM3.136 13.0257C2.35149 11.6311 1.94429 10.0613 1.95349 8.46703H0C0 10.5675 0.546977 12.3718 1.42214 13.9477L3.136 13.0257Z" fill="#F5F5F5"/>
</svg>
