<svg width="25" height="23" viewBox="0 0 25 23" fill="none" xmlns="http://www.w3.org/2000/svg">
<path d="M18.2578 1.84C18.9078 1.83944 19.5513 1.9726 20.1506 2.23169C20.75 2.49077 21.2931 2.87057 21.7482 3.3488C22.6859 4.32987 23.2115 5.65171 23.2115 7.0288C23.2115 8.4059 22.6859 9.72773 21.7482 10.7088L12.5 20.3596L3.25179 10.7088C2.3141 9.72773 1.78849 8.4059 1.78849 7.0288C1.78849 5.65171 2.3141 4.32987 3.25179 3.3488C3.70714 2.87091 4.25032 2.49132 4.84961 2.23219C5.4489 1.97307 6.09229 1.83961 6.74218 1.83961C7.39208 1.83961 8.03546 1.97307 8.63475 2.23219C9.23405 2.49132 9.77723 2.87091 10.2326 3.3488L12.5 5.7408L14.7585 3.3672C15.2122 2.88327 15.7559 2.49859 16.3572 2.23619C16.9584 1.97378 17.6049 1.83904 18.2578 1.84ZM18.2578 2.46822e-06C17.3702 -0.000772835 16.4913 0.181109 15.6727 0.534984C14.8541 0.888859 14.1124 1.4076 13.4909 2.0608L12.5 3.0912L11.5091 2.0608C10.8869 1.40878 10.1449 0.890939 9.3265 0.537458C8.50808 0.183976 7.62957 0.00192963 6.74218 0.00192963C5.8548 0.00192963 4.97629 0.183976 4.15787 0.537458C3.33945 0.890939 2.59749 1.40878 1.97525 2.0608C0.709312 3.38894 0 5.17625 0 7.038C0 8.89975 0.709312 10.6871 1.97525 12.0152L12.5 23L23.0248 12.0152C24.2907 10.6871 25 8.89975 25 7.038C25 5.17625 24.2907 3.38894 23.0248 2.0608C22.4024 1.40885 21.6604 0.890918 20.8421 0.537133C20.0237 0.183347 19.1453 0.000765069 18.2578 2.46822e-06Z" fill="#03393B"/>
</svg>
