<svg width="25" height="11" viewBox="0 0 25 11" fill="none" xmlns="http://www.w3.org/2000/svg">
<path d="M7.43018 0.793457V10H6.229L1.51953 3.29834V10H0.0180664V0.793457H1.49023L5.92871 7.18018V0.793457H7.43018ZM11.9858 4.44824C11.6245 4.44824 11.3022 4.56543 11.019 4.7998C10.7358 5.03418 10.5479 5.38818 10.4551 5.86182H13.3555C13.3311 5.44189 13.1992 5.10254 12.96 4.84375C12.7207 4.58008 12.396 4.44824 11.9858 4.44824ZM14.3296 9.56787C13.7827 9.95361 13.0771 10.1465 12.2129 10.1465C11.2363 10.1465 10.4404 9.83643 9.8252 9.21631C9.21484 8.59619 8.90967 7.76855 8.90967 6.7334C8.90967 5.69824 9.19775 4.84863 9.77393 4.18457C10.3501 3.52051 11.0825 3.18848 11.9712 3.18848C12.8696 3.18848 13.5605 3.48389 14.0439 4.07471C14.5322 4.66553 14.7764 5.46143 14.7764 6.4624V6.99707H10.3818C10.4404 7.6123 10.6528 8.07617 11.019 8.38867C11.3853 8.70117 11.854 8.85742 12.4253 8.85742C12.7866 8.85742 13.1138 8.81104 13.4067 8.71826C13.7046 8.62061 14.0122 8.46191 14.3296 8.24219V9.56787ZM20.8701 3.34229L22.042 8.06641L23.3311 3.34229H24.7812L22.8477 10H21.3462L20.167 5.36377L18.9805 10H17.479L15.5454 3.34229H17.0469L18.3359 8.06641L19.5078 3.34229H20.8701Z" fill="#FFC700"/>
</svg>
