<svg width="21" height="21" viewBox="0 0 21 21" fill="none" xmlns="http://www.w3.org/2000/svg">
<path d="M14.7951 15.7234L19.8778 20.8072C19.9388 20.8683 20.0112 20.9168 20.0909 20.9499C20.1707 20.983 20.2562 21 20.3425 21C20.4288 21 20.5143 20.983 20.594 20.9499C20.6738 20.9168 20.7462 20.8683 20.8072 20.8072C20.8683 20.7462 20.9168 20.6738 20.9499 20.5941C20.983 20.5143 21 20.4288 21 20.3425C21 20.2562 20.983 20.1707 20.9499 20.091C20.9168 20.0112 20.8683 19.9388 20.8072 19.8778L16.1275 15.1996C19.2517 11.5938 19.1033 6.11227 15.6786 2.68761C12.095 -0.895871 6.2667 -0.895871 2.68573 2.68761C-0.895243 6.2711 -0.895243 12.0992 2.68573 15.6827C3.53716 16.538 4.54964 17.2163 5.66468 17.6781C6.77972 18.14 7.97523 18.3764 9.18215 18.3736C9.35622 18.3736 9.52316 18.3044 9.64625 18.1813C9.76933 18.0583 9.83848 17.8913 9.83848 17.7172C9.83848 17.5432 9.76933 17.3762 9.64625 17.2532C9.52316 17.1301 9.35622 17.0609 9.18215 17.0609C8.1476 17.0638 7.12276 16.8614 6.16696 16.4655C5.21115 16.0696 4.34335 15.4881 3.61379 14.7546C2.13967 13.2759 1.3119 11.2731 1.3119 9.18514C1.3119 7.09718 2.13967 5.09438 3.61379 3.61564C5.09144 2.14045 7.09413 1.31189 9.18215 1.31189C11.2702 1.31189 13.2728 2.14045 14.7505 3.61564C16.2246 5.09438 17.0524 7.09718 17.0524 9.18514C17.0524 11.2731 16.2246 13.2759 14.7505 14.7546C14.686 14.8192 14.6356 14.8965 14.6027 14.9816C14.5697 15.0667 14.5548 15.1577 14.559 15.2488C14.5632 15.34 14.5864 15.4293 14.6271 15.511C14.6677 15.5927 14.725 15.665 14.7951 15.7234Z" fill="#F5F5F5"/>
</svg>
