<svg width="30" height="29" viewBox="0 0 30 29" fill="none" xmlns="http://www.w3.org/2000/svg">
<path fill-rule="evenodd" clip-rule="evenodd" d="M30 4.09487C30 1.83334 28.1034 0 25.7639 0H4.23608C1.89656 0 0 1.83334 0 4.09487V24.9051C0 27.1667 1.89656 29 4.23608 29H25.7639C28.1034 29 30 27.1667 30 24.9051V4.09487ZM24.8535 12.6482C22.9179 12.6691 21.1143 12.1035 19.5308 11.0559V18.41C19.5308 21.6786 17.2163 24.4863 13.9434 25.2195C9.47839 26.2043 5.69854 23.0824 5.2218 19.353C4.72328 15.6235 7.18388 12.3549 10.9553 11.6216C11.6922 11.4749 12.8006 11.4749 13.3724 11.6007V15.5396C13.1965 15.4978 13.0317 15.4559 12.8583 15.4349C11.3844 15.1835 9.95693 15.8958 9.3717 17.1949C8.78651 18.494 9.1782 20.0025 10.3703 20.8826C11.3673 21.6368 12.4735 21.7415 13.6005 21.2386C14.7277 20.7568 15.3334 19.8768 15.4634 18.6826C15.4851 18.515 15.4839 18.3264 15.4839 18.1378V3.99497C15.4839 3.59691 15.4871 3.61427 15.8989 3.61427H19.1284C19.3669 3.61427 19.4537 3.64744 19.4753 3.91997C19.6486 6.35042 21.5575 8.42029 24.0067 8.73462C24.2669 8.77649 24.5455 8.79309 24.8535 8.81401V12.6482Z" fill="#F5F5F5"/>
</svg>
