<svg width="35" height="26" viewBox="0 0 35 26" fill="none" xmlns="http://www.w3.org/2000/svg">
<path d="M14 18.5714L23.0825 13L14 7.42857V18.5714ZM34.23 4.03C34.4575 4.90286 34.615 6.07286 34.72 7.55857C34.8425 9.04428 34.895 10.3257 34.895 11.44L35 13C35 17.0671 34.72 20.0571 34.23 21.97C33.7925 23.6414 32.7775 24.7186 31.2025 25.1829C30.38 25.4243 28.875 25.5914 26.565 25.7029C24.29 25.8329 22.2075 25.8886 20.2825 25.8886L17.5 26C10.1675 26 5.6 25.7029 3.7975 25.1829C2.2225 24.7186 1.2075 23.6414 0.77 21.97C0.5425 21.0971 0.385 19.9271 0.28 18.4414C0.1575 16.9557 0.105 15.6743 0.105 14.56L0 13C0 8.93286 0.28 5.94286 0.77 4.03C1.2075 2.35857 2.2225 1.28143 3.7975 0.817143C4.62 0.575714 6.125 0.408571 8.435 0.297143C10.71 0.167143 12.7925 0.111428 14.7175 0.111428L17.5 0C24.8325 0 29.4 0.297143 31.2025 0.817143C32.7775 1.28143 33.7925 2.35857 34.23 4.03Z" fill="#F5F5F5"/>
</svg>
