<svg width="139" height="53" viewBox="0 0 139 53" fill="none" xmlns="http://www.w3.org/2000/svg">
<g clip-path="url(#clip0_1_893)">
<path d="M138.209 20.873C136.95 25.642 131.939 27.1029 130.143 28.0033C128.343 28.9077 125.235 32.5984 124.614 34.009C123.992 35.4157 123.439 37.8891 121.417 38.5152C119.395 39.1413 118.743 36.5636 119.779 35.5201C120.815 34.4766 121.989 31.6941 122.818 28.9115C123.647 26.1251 129.379 22.5773 133.255 20.7107C137.123 18.8441 135.569 14.3456 135.569 14.3456C137.173 14.0364 137.434 14.6084 137.695 15.9147C139.613 15.9147 138.992 19.6209 138.209 20.873Z" fill="#844866"/>
<path d="M138.209 20.8731C137.917 22.0518 137.334 23.1571 136.544 24.0807C135.753 25.0083 134.782 25.7657 133.739 26.3879C132.699 27.014 131.57 27.4855 130.481 27.984C129.936 28.2275 129.464 28.5792 129.007 28.9657C128.551 29.3521 128.125 29.7772 127.706 30.2101C126.881 31.0835 126.102 32.011 125.423 32.9965C125.254 33.2438 125.093 33.4951 124.947 33.7501C124.805 34.0052 124.69 34.2719 124.583 34.5578C124.368 35.1182 124.157 35.6979 123.896 36.2544C123.635 36.8109 123.309 37.3559 122.871 37.8157C122.438 38.2795 121.858 38.6157 121.225 38.7549C120.592 38.9288 119.802 38.6467 119.453 38.0554C119.088 37.4873 119.011 36.78 119.199 36.1385L119.287 35.9027C119.326 35.8254 119.368 35.752 119.41 35.6786C119.495 35.5395 119.633 35.3926 119.717 35.296C119.913 35.0873 120.078 34.8438 120.239 34.6003C120.558 34.1018 120.83 33.5685 121.079 33.0236C121.578 31.9299 122.004 30.8014 122.376 29.6536C122.476 29.3676 122.549 29.0816 122.653 28.7879L122.833 28.3396C122.902 28.1966 122.987 28.0652 123.063 27.9261C123.14 27.7869 123.225 27.6555 123.324 27.5357L123.604 27.1609C123.812 26.9329 124.007 26.6894 124.226 26.4768C125.089 25.6034 126.049 24.8459 127.039 24.1426C129.023 22.7397 131.148 21.5455 133.32 20.4982C133.574 20.3513 133.842 20.2277 134.061 20.0306C134.172 19.9378 134.299 19.8567 134.402 19.7562L134.706 19.4393C135.078 18.991 135.381 18.477 135.542 17.905C135.868 16.7688 135.799 15.5205 135.469 14.3843L135.435 14.2645L135.55 14.2452C135.814 14.1988 136.079 14.164 136.352 14.1717C136.62 14.1756 136.916 14.2413 137.142 14.4268C137.372 14.6084 137.491 14.879 137.576 15.1302C137.66 15.3891 137.71 15.648 137.76 15.9108L137.699 15.8451C137.948 15.8451 138.205 15.9186 138.405 16.077C138.608 16.2316 138.746 16.4519 138.831 16.6838C139.003 17.1475 139.019 17.6422 138.996 18.1214C138.965 18.6045 138.88 19.0799 138.758 19.5436C138.623 20.0074 138.462 20.4634 138.209 20.8731ZM138.209 20.8731C138.451 20.4595 138.6 19.9996 138.719 19.5359C138.834 19.0721 138.903 18.5968 138.923 18.1176C138.938 17.6422 138.903 17.1553 138.731 16.7224C138.646 16.506 138.512 16.3089 138.332 16.1775C138.151 16.0422 137.925 15.9843 137.699 15.9881H137.641L137.629 15.9302C137.576 15.6751 137.514 15.4162 137.43 15.1765C137.346 14.9369 137.23 14.7012 137.035 14.5621C136.847 14.4152 136.597 14.365 136.348 14.365C136.095 14.365 135.841 14.4075 135.588 14.4539L135.669 14.3147C136.029 15.4973 136.118 16.7688 135.791 17.9784C135.63 18.5813 135.316 19.1417 134.924 19.6248L134.606 19.9687C134.494 20.0808 134.364 20.1658 134.245 20.2663C134.011 20.4789 133.731 20.6103 133.462 20.7726C131.306 21.8585 129.211 23.045 127.254 24.444C126.279 25.1435 125.335 25.8933 124.502 26.7473C124.291 26.956 124.107 27.1879 123.908 27.4082L123.647 27.7638C123.555 27.8797 123.474 27.9995 123.405 28.1309C123.336 28.2584 123.251 28.3821 123.194 28.5096L123.036 28.9077C122.941 29.186 122.86 29.4874 122.764 29.7772C122.392 30.9366 121.974 32.0883 121.456 33.1975C121.195 33.754 120.914 34.2989 120.581 34.8206C120.408 35.0796 120.231 35.3385 120.009 35.5704C119.951 35.6322 119.901 35.6863 119.863 35.7366C119.825 35.7907 119.771 35.8293 119.744 35.895L119.648 36.0689L119.579 36.2583C119.502 36.5172 119.479 36.7993 119.506 37.0737C119.545 37.3481 119.633 37.6148 119.779 37.8389C120.063 38.3027 120.619 38.5114 121.156 38.38C121.697 38.264 122.219 37.9742 122.611 37.5568C123.01 37.1433 123.32 36.6332 123.574 36.096C123.831 35.5588 124.034 34.9945 124.257 34.4226C124.364 34.1405 124.487 33.8506 124.644 33.5723C124.802 33.3018 124.97 33.0468 125.147 32.7955C125.857 31.7985 126.651 30.8748 127.499 30.0014C127.925 29.5686 128.363 29.1434 128.838 28.757C129.307 28.3705 129.817 28.0034 130.381 27.7599C131.494 27.2729 132.603 26.8208 133.65 26.2295C134.694 25.6421 135.672 24.9155 136.478 24.0189C137.284 23.1262 137.89 22.0441 138.209 20.8731Z" fill="black"/>
<path d="M122.994 3.56712C122.553 3.43186 122.081 3.34684 121.59 3.33911C120.677 3.32365 119.69 3.57872 118.723 4.3246C118.063 4.83473 117.618 5.4724 117.315 6.17191C116.072 9.05495 117.38 12.9389 117.38 12.9389H116.137C116.137 12.9389 116.137 12.9389 116.133 12.9351C116.129 12.9312 116.126 12.9235 116.118 12.9196C115.807 12.5447 111.632 7.67526 107.565 8.93514C105.915 8.40955 101.694 7.4086 98.8235 9.75445C98.7506 9.81629 98.6739 9.87812 98.6048 9.93995C97.3117 9.59213 95.7691 9.28683 95.7691 9.28683C95.8228 7.87622 95.2012 4.11591 100.642 1.30243C106.084 -1.51877 110.335 1.90918 111.164 2.86375C112.354 2.60482 113.543 2.50048 116.502 2.44637C119.464 1.11693 122.104 2.54685 122.994 3.56712Z" fill="#65771C" stroke="black" stroke-width="1.0805" stroke-miterlimit="10"/>
<path d="M138.209 20.8733C136.95 25.6423 131.939 27.1031 130.143 28.0036C128.344 28.9079 125.235 32.5987 124.614 34.0093C123.992 35.416 123.44 37.8894 121.417 38.5155C119.395 39.1415 118.743 36.5638 119.779 35.5203C120.815 34.4769 121.989 31.6943 122.818 28.9118C123.647 26.1253 129.38 22.5776 133.255 20.7109C137.123 18.8443 135.569 14.3458 135.569 14.3458C134.794 13.2521 134.222 11.7565 132.388 12.2396C131.939 11.4435 131.732 10.5121 129.245 10.5933C128.451 9.52274 127.898 9.24835 127.898 8.51793C127.898 7.78751 126.69 7.19235 126.137 7.01844C126.114 6.97206 126.087 6.92182 126.064 6.87158C126.06 8.42904 125.289 10.7053 121.475 12.3633C121.018 12.5217 120.535 12.6338 120.067 12.715C120.063 12.715 120.063 12.715 120.059 12.715C118.658 12.9662 117.384 12.9352 117.384 12.9352C117.384 12.9352 116.034 14.5004 115.934 15.3854C115.826 16.2743 116.556 17.3178 113.547 20.5061C107.949 25.936 105.827 24.2085 105.827 24.2085C104.929 19.8491 105.293 16.8617 106.195 14.8482C107.58 11.7411 110.236 10.9102 111.529 10.8483C111.797 10.8367 112.077 10.8599 112.354 10.9102C112.465 10.9295 112.572 10.9565 112.684 10.9836C112.795 11.0145 112.902 11.0454 113.014 11.0841C113.114 11.1188 113.213 11.1498 113.313 11.1923C113.325 11.1923 113.336 11.2 113.351 11.2039C113.447 11.2425 113.539 11.285 113.632 11.3237C113.743 11.3739 113.854 11.4242 113.969 11.4821C114.073 11.5324 114.173 11.5865 114.272 11.6406C114.468 11.7449 114.648 11.857 114.825 11.9652C115.301 12.2667 115.688 12.5565 115.915 12.7381C115.953 12.7729 115.984 12.7961 116.011 12.8193C116.064 12.8657 116.103 12.8927 116.122 12.9121C115.811 12.5372 111.636 7.6677 107.569 8.92758C105.919 8.40199 101.698 7.40104 98.8275 9.74689C98.7546 9.80873 98.6778 9.87056 98.6088 9.9324C97.3156 9.58458 95.7731 9.27927 95.7731 9.27927C95.7731 9.27927 89.8676 10.1218 86.0073 14.0367C85.5315 16.313 85.3972 18.8327 86.5445 20.3477C88.9773 23.5476 92.9373 21.8858 93.1023 21.8124C92.9335 21.9206 89.2344 24.3901 92.1392 27.5823C95.1131 30.8557 97.4576 32.6644 98.2212 35.2421C98.981 37.8159 96.9779 39.4236 100.224 41.8507C103.471 44.2854 106.237 44.154 107.619 42.6893C109.004 43.7443 111.11 43.5898 111.164 41.0159C111.214 38.4382 111.214 38.4382 111.214 38.4382C111.214 38.4382 112.043 43.7984 115.704 44.5637C119.268 45.3057 121.31 43.0912 121.417 42.9675C121.314 43.0062 119.579 43.6129 118.075 42.6893C116.905 41.9705 115.872 40.3241 115.846 36.7686C117.499 39.2072 120.738 41.2246 122.507 39.4816C123.497 38.5077 125.139 37.5995 126.505 36.7532H126.509C127.584 36.0884 128.478 35.4701 128.758 34.8865C128.973 34.4344 129.882 33.3677 131.106 32.1465C131.398 31.7252 131.724 31.3001 132.085 30.9175C133.608 29.3176 137.181 26.763 137.181 26.763C137.181 26.763 139.042 25.7311 138.209 20.8733ZM110.865 27.7601C110.876 27.7021 111.015 27.2345 111.164 27.0838C111.318 26.9292 112.147 26.1485 112.25 25.8316C112.354 25.5224 112.354 25.4142 112.734 24.0616C113.11 22.7012 112.975 23.0181 113.493 22.2336C114.011 21.4491 114.426 21.1902 115.212 20.1969C115.995 19.2076 116.602 16.2318 116.498 15.6598C116.394 15.084 117.381 13.3256 117.381 13.3256C119.065 24.6065 111.091 27.6751 110.865 27.7601Z" fill="#9AB640" stroke="black" stroke-width="1.0805" stroke-miterlimit="10"/>
<path d="M113.543 20.5098C107.945 25.9396 105.823 24.2121 105.823 24.2121C104.925 19.8528 105.289 16.8654 106.191 14.8519C107.515 15.4277 110.807 16.5485 112.561 14.3456C113.846 12.7341 113.194 11.6249 112.35 10.9138C112.461 10.9331 112.569 10.9602 112.68 10.9872C112.791 11.0182 112.899 11.0491 113.01 11.0877C113.11 11.1225 113.209 11.1534 113.309 11.1959C113.321 11.1959 113.332 11.2037 113.347 11.2075C113.443 11.2462 113.535 11.2887 113.628 11.3273C113.739 11.3776 113.85 11.4278 113.965 11.4858C114.069 11.536 114.169 11.5901 114.268 11.6442C114.464 11.7486 114.644 11.8607 114.821 11.9689C115.297 12.2703 115.684 12.5602 115.911 12.7418C115.949 12.7766 115.98 12.7998 116.007 12.823C116.06 12.8693 116.099 12.8964 116.118 12.9157C116.126 12.9196 116.129 12.9273 116.133 12.9312C116.137 12.935 116.137 12.935 116.137 12.935H117.38C117.38 12.935 116.03 14.5002 115.93 15.3852C115.822 16.278 116.552 17.3253 113.543 20.5098Z" fill="#CDCCCF" stroke="black" stroke-width="1.0805" stroke-miterlimit="10"/>
<path d="M112.561 14.3457C110.807 16.5447 107.515 15.4278 106.191 14.852C107.576 11.7448 110.232 10.9139 111.525 10.8521C111.793 10.8405 112.074 10.8637 112.35 10.9139C113.194 11.625 113.842 12.7341 112.561 14.3457Z" fill="#1E1E1E"/>
<path d="M111.77 12.9505C110.75 14.2336 108.332 13.2829 107.565 12.9467C108.371 11.138 110.416 10.9525 111.168 10.9139C111.325 10.9061 111.486 10.9216 111.648 10.9486C112.139 11.366 112.519 12.0114 111.77 12.9505Z" fill="black"/>
<path opacity="0.25" d="M126.064 6.87532C126.06 8.43278 125.289 10.7091 121.475 12.367C121.018 12.5255 120.535 12.6375 120.066 12.7187C120.063 12.7187 120.063 12.7187 120.059 12.7187C118.585 12.7535 117.384 12.939 117.384 12.939C117.384 12.939 116.076 9.05113 117.319 6.17195C117.971 6.72073 119.215 7.40478 121.064 6.88691C122.76 6.41156 123.002 4.4715 121.594 3.34302C122.089 3.35075 122.561 3.43963 122.998 3.57103C123.125 3.71403 123.217 3.84542 123.271 3.96523C124.74 4.35942 125.596 5.97099 126.064 6.87532Z" fill="white"/>
<path d="M121.06 6.88289C119.211 7.40076 117.967 6.71671 117.315 6.16793C117.618 5.47229 118.067 4.83075 118.723 4.32062C119.69 3.57474 120.677 3.31967 121.59 3.33513C122.994 4.47134 122.753 6.40754 121.06 6.88289Z" fill="#1E1E1E"/>
<path d="M120.197 5.52647C119.165 5.81632 118.47 5.43372 118.109 5.12841C118.278 4.73808 118.528 4.38253 118.896 4.09655C119.433 3.67916 119.986 3.53617 120.496 3.54777C121.279 4.17771 121.145 5.25981 120.197 5.52647Z" fill="black"/>
<path d="M103.071 22.2296C102.68 20.962 102.507 19.6326 102.484 18.2993C102.461 16.9621 102.619 15.6172 102.979 14.3109C103.359 13.0124 103.969 11.7564 104.863 10.7284C105.301 10.2067 105.826 9.76997 106.383 9.38737C106.951 9.02409 107.588 8.75356 108.244 8.67627C107.024 9.18254 106.114 10.1217 105.374 11.1342C104.648 12.1622 104.123 13.3216 103.781 14.5428C103.424 15.7602 103.24 17.0355 103.133 18.3225C103.033 19.6094 103.018 20.9118 103.071 22.2296Z" fill="black"/>
<path d="M95.6885 17.1903C95.2932 15.7449 95.4544 14.1256 96.0991 12.7305C96.4214 12.031 96.855 11.3933 97.373 10.8368C97.8834 10.2803 98.4897 9.82039 99.1458 9.46484C98.7161 10.0832 98.2671 10.6436 97.8795 11.2426C97.4958 11.8416 97.1428 12.4445 96.8512 13.0783C96.5557 13.7121 96.3293 14.3691 96.1413 15.0531C95.9571 15.7411 95.8343 16.4522 95.6885 17.1903Z" fill="black"/>
<path d="M117.614 12.7186C118.459 12.5331 119.318 12.4597 120.182 12.4635C121.045 12.4674 121.916 12.5601 122.779 12.7997C122.99 12.8654 123.213 12.9466 123.413 13.0278C123.593 13.1012 123.781 13.1592 123.973 13.221C124.356 13.3447 124.756 13.422 125.162 13.5108C125.976 13.6693 126.812 13.7698 127.664 13.9166C126.824 14.1137 125.96 14.2026 125.086 14.1562C124.648 14.1447 124.211 14.0751 123.773 13.9862C123.554 13.936 123.34 13.8664 123.121 13.7891C122.921 13.7195 122.745 13.6577 122.549 13.6036C121.782 13.3717 120.957 13.2481 120.136 13.1128C119.303 12.9853 118.462 12.877 117.614 12.7186Z" fill="black"/>
<path d="M105.846 7.31982C106.037 6.67055 106.425 6.09472 106.855 5.57299C107.288 5.05126 107.803 4.60296 108.344 4.20103C108.889 3.80297 109.479 3.47448 110.09 3.19236C110.393 3.04936 110.711 2.94115 111.022 2.82135C111.341 2.72473 111.663 2.63198 111.985 2.55469C111.694 2.72473 111.398 2.87159 111.106 3.02231C110.819 3.18849 110.527 3.33535 110.247 3.50153C109.971 3.67544 109.679 3.8223 109.41 4.01167C109.134 4.18171 108.866 4.36721 108.605 4.56045C108.079 4.93919 107.576 5.3527 107.108 5.80873C106.644 6.27249 106.202 6.75558 105.846 7.31982Z" fill="black"/>
<path d="M117.058 2.22607C116.425 2.66278 115.876 3.19224 115.427 3.7874C114.986 4.38642 114.633 5.04341 114.433 5.75451C114.376 5.92842 114.349 6.11393 114.303 6.2917C114.253 6.46948 114.238 6.65498 114.218 6.84048C114.203 7.02599 114.165 7.20763 114.165 7.39699C114.169 7.5825 114.169 7.77187 114.165 7.95737C114.153 8.14674 114.18 8.33224 114.199 8.52161L114.249 9.08972C114.307 9.46459 114.387 9.83946 114.437 10.2259C114.291 9.87038 114.149 9.5071 114.03 9.13609C113.954 8.75349 113.835 8.37475 113.808 7.98442C113.704 7.1999 113.789 6.39605 113.992 5.62311C114.218 4.85405 114.625 4.14295 115.155 3.55552C115.68 2.96809 116.333 2.49274 117.058 2.22607Z" fill="black"/>
<path d="M137.695 15.9148C138.178 18.1872 137.227 20.6761 135.534 22.3108C135.339 22.535 135.097 22.705 134.882 22.906C134.771 23.0026 134.659 23.0992 134.544 23.1881L134.184 23.4393C133.938 23.5977 133.708 23.7871 133.451 23.9224L132.683 24.3475C132.177 24.6335 131.686 24.8654 131.198 25.1436C130.722 25.4373 130.239 25.7117 129.79 26.0441C128.857 26.6586 127.998 27.3813 127.181 28.1387C126.348 28.8885 125.611 29.7387 124.894 30.6044C124.188 31.4778 123.535 32.4053 122.96 33.3792C122.373 34.3492 121.862 35.3656 121.425 36.4246C121.686 35.3038 122.104 34.2256 122.599 33.1821C123.102 32.1425 123.693 31.1416 124.376 30.2063C125.722 28.3242 127.399 26.6663 129.318 25.3523C129.79 25.0122 130.3 24.7301 130.795 24.4325C131.298 24.1543 131.835 23.8953 132.33 23.6403C133.336 23.1726 134.26 22.5543 135.093 21.8393C135.914 21.1089 136.605 20.22 137.054 19.2036C137.51 18.1911 137.768 17.0587 137.695 15.9148Z" fill="black"/>
<path d="M129.587 34.8941C129.452 34.5501 129.448 34.2487 129.479 33.9627C129.518 33.6806 129.606 33.4216 129.736 33.182C129.867 32.9463 130.039 32.7298 130.258 32.5482C130.481 32.3704 130.742 32.2197 131.102 32.1501C131.168 32.5134 131.141 32.7994 131.091 33.0661C131.037 33.3289 130.945 33.5685 130.826 33.7888C130.703 34.009 130.55 34.21 130.354 34.3994C130.155 34.5887 129.924 34.7588 129.587 34.8941Z" fill="black"/>
<path d="M129.245 10.5969C129.329 11.0414 129.214 11.5244 128.976 11.9264C128.742 12.3399 128.374 12.6568 127.971 12.8848C127.772 13.0046 127.553 13.0819 127.338 13.1631C127.119 13.2288 126.897 13.279 126.674 13.3176C126.452 13.3408 126.225 13.364 126.003 13.3679C125.78 13.3563 125.557 13.3486 125.335 13.3215C125.55 13.2558 125.765 13.2133 125.976 13.1631L126.601 12.9969C127.004 12.8616 127.407 12.7341 127.764 12.5177C128.497 12.1351 129.065 11.4781 129.245 10.5969Z" fill="black"/>
<path d="M126.931 10.597C126.59 10.7516 126.29 10.9525 126.033 11.1805C125.907 11.3003 125.784 11.4163 125.68 11.5554L125.339 11.9805C125.097 12.2626 124.84 12.5525 124.502 12.765C124.172 12.9853 123.731 13.0704 123.374 12.939C123.75 12.8887 124.057 12.7303 124.31 12.5022C124.564 12.2742 124.79 11.9998 125.02 11.7139C125.139 11.5747 125.258 11.4317 125.385 11.2926C125.523 11.1496 125.673 11.0182 125.841 10.9177C126.171 10.709 126.551 10.5815 126.931 10.597Z" fill="black"/>
<path d="M137.023 27.4314C136.9 27.9377 136.709 28.6217 136.501 29.07C136.137 29.8507 136.294 32.3897 136.156 34.4767C136.014 36.5636 133.942 37.2631 132.284 38.3761C128.831 44.2891 125.723 44.8803 123.75 45.9277C121.782 46.9711 120.228 49.4754 116.08 51.5662C111.935 53.6531 109.031 52.5053 106.544 52.0879C104.058 51.6706 102.189 53.8618 97.6302 52.0879C85.2973 45.5103 86.1261 36.4283 86.2297 33.4023C80.7578 23.4585 82.5652 17.5301 86.0033 14.0442C85.5275 16.3205 85.3932 18.8402 86.5406 20.3552C88.9734 23.5551 92.9334 21.8933 93.0984 21.8199C92.9296 21.9281 89.2305 24.3976 92.1353 27.5898C95.1091 30.8632 97.4537 32.6719 98.2173 35.2496C98.977 37.8235 96.974 39.4312 100.22 41.8582C103.467 44.2929 106.233 44.1615 107.615 42.6968C109 43.7519 111.107 43.5973 111.16 41.0234C111.21 38.4457 111.21 38.4457 111.21 38.4457C111.21 38.4457 112.039 43.806 115.7 44.5712C119.265 45.3132 121.306 43.0987 121.413 42.9751C121.31 43.0137 119.575 43.6205 118.071 42.6968C116.901 41.978 115.869 40.3316 115.842 36.7761C117.496 39.2147 120.734 41.2321 122.503 39.4891C123.493 38.5152 125.139 37.607 126.505 36.7607C127.58 36.096 128.474 35.4776 128.754 34.8941C128.969 34.4419 129.878 33.3752 131.102 32.154C132.81 30.4458 135.128 28.4478 137.023 27.4314Z" fill="#133C35" stroke="black" stroke-width="1.0805" stroke-miterlimit="10"/>
<path d="M110.865 27.76C110.876 27.702 111.014 27.2344 111.164 27.0836C111.318 26.9291 112.146 26.1484 112.25 25.8315C112.354 25.5223 112.354 25.4141 112.733 24.0615C113.11 22.7011 112.975 23.018 113.493 22.2335C114.011 21.449 114.426 21.19 115.212 20.1968C115.995 19.2075 116.601 16.2317 116.498 15.6597C116.394 15.0839 117.38 13.3254 117.38 13.3254C119.065 24.6064 111.091 27.6749 110.865 27.76Z" fill="#133C35" stroke="black" stroke-width="1.0805" stroke-miterlimit="10"/>
<path d="M126.064 6.87532C126.06 8.43278 125.289 10.7091 121.475 12.367C121.018 12.5255 120.535 12.6375 120.066 12.7187C120.063 12.7187 120.063 12.7187 120.059 12.7187C118.585 12.7535 117.384 12.939 117.384 12.939C117.384 12.939 116.076 9.05113 117.319 6.17195C117.971 6.72073 119.215 7.40478 121.064 6.88691C122.76 6.41156 123.002 4.4715 121.594 3.34302C122.089 3.35075 122.561 3.43963 122.998 3.57103C123.125 3.71403 123.217 3.84542 123.271 3.96523C124.74 4.35942 125.596 5.97099 126.064 6.87532Z" fill="#CDCCCF" stroke="black" stroke-width="1.0805" stroke-miterlimit="10"/>
<path d="M113.543 20.5098C107.945 25.9396 105.823 24.2121 105.823 24.2121C104.925 19.8528 105.289 16.8654 106.191 14.8519C107.515 15.4277 110.807 16.5485 112.561 14.3456C113.846 12.7341 113.194 11.6249 112.35 10.9138C112.461 10.9331 112.569 10.9602 112.68 10.9872C112.791 11.0182 112.899 11.0491 113.01 11.0877C113.11 11.1225 113.209 11.1534 113.309 11.1959C113.321 11.1959 113.332 11.2037 113.347 11.2075C113.443 11.2462 113.535 11.2887 113.628 11.3273C113.739 11.3776 113.85 11.4278 113.965 11.4858C114.069 11.536 114.169 11.5901 114.268 11.6442C114.464 11.7486 114.644 11.8607 114.821 11.9689C115.297 12.2703 115.684 12.5602 115.911 12.7418C115.949 12.7766 115.98 12.7998 116.007 12.823C116.06 12.8693 116.099 12.8964 116.118 12.9157C116.126 12.9196 116.129 12.9273 116.133 12.9312C116.137 12.935 116.137 12.935 116.137 12.935H117.38C117.38 12.935 116.03 14.5002 115.93 15.3852C115.822 16.278 116.552 17.3253 113.543 20.5098Z" stroke="black" stroke-width="1.0805" stroke-miterlimit="10"/>
<path d="M118.47 6.02495C118.47 6.02495 117.277 8.79205 117.641 9.93986C118.021 8.94664 118.677 7.5399 118.938 7.12252C119.195 6.70513 119.506 5.87037 118.47 6.02495Z" fill="white"/>
<path d="M108.912 13.4569C106.563 16.0462 106.241 20.6104 106.241 20.6104C106.241 20.6104 106.241 19.5283 106.241 17.6694C106.241 16.3902 107.304 14.2646 107.972 13.0588C108.233 13.1941 108.57 13.3526 108.912 13.4569Z" fill="white"/>
<path d="M137.177 25.2209C135.657 26.6084 134.042 27.9108 132.365 29.0895C131.574 29.673 130.934 30.4151 130.439 31.2769C130.185 31.7059 129.951 32.1542 129.702 32.6102C129.579 32.8382 129.448 33.0701 129.307 33.302C129.237 33.4179 129.157 33.53 129.084 33.642L128.869 33.9551C127.714 35.6439 126.628 37.4024 125.247 38.9907C125.07 39.1878 124.89 39.3811 124.679 39.5666C124.479 39.7444 124.299 39.8951 124.115 40.0729C123.75 40.4168 123.405 40.7878 123.079 41.1743C122.423 41.9472 121.832 42.7858 121.417 43.7327C121.659 42.7201 122.173 41.7888 122.756 40.9269C123.056 40.498 123.378 40.0844 123.727 39.6902C123.896 39.4931 124.099 39.3038 124.272 39.126C124.437 38.9598 124.598 38.7666 124.752 38.5695C125.362 37.7772 125.934 36.9231 126.49 36.0652L128.182 33.4836L128.409 33.1628C128.478 33.0623 128.547 32.9657 128.612 32.8614C128.742 32.6527 128.869 32.4401 128.992 32.216C129.241 31.7716 129.483 31.3078 129.771 30.8595C130.339 29.9629 131.083 29.1243 131.996 28.5523C133.75 27.474 135.442 26.3417 137.177 25.2209Z" fill="black"/>
<path d="M19.8308 16.1658C19.8308 18.6624 19.1823 20.6836 17.8814 22.2295C16.4885 23.8681 14.5699 24.6874 12.1218 24.6874C11.7112 24.6874 11.0972 24.6642 10.2722 24.6178C9.4472 24.5715 8.82941 24.5483 8.42266 24.5483C7.98138 24.5483 7.76265 24.7376 7.76265 25.1202C7.76265 25.5956 7.8087 26.299 7.90079 27.2381C7.99289 28.1772 8.03894 28.8767 8.03894 29.3404C8.03894 29.5801 7.93149 29.696 7.71661 29.696C7.09114 29.696 6.15485 29.6767 4.90775 29.6419C3.65681 29.6071 2.72053 29.5878 2.09889 29.5878C1.80343 29.5878 1.65378 29.4371 1.65378 29.1395C1.65378 27.9955 1.67296 26.2758 1.7075 23.9802C1.74203 21.6884 1.76122 19.9686 1.76122 18.8208C1.76122 15.5822 1.62308 12.1813 1.3468 8.61425L1.33145 8.39783C1.31226 8.20073 1.46575 8.08479 1.79192 8.04228C2.59006 7.93794 4.35135 7.8877 7.07579 7.8877C8.68359 7.8877 10.2223 7.90702 11.6997 7.94953C14.1248 8.02296 16.0818 8.78816 17.5668 10.2529C19.071 11.764 19.8308 13.7311 19.8308 16.1658ZM13.7027 16.4131C13.7027 14.0093 12.54 12.8113 10.2185 12.8113C8.57998 12.8113 7.72044 12.904 7.63986 13.0895C7.56695 13.2248 7.53242 14.4151 7.53242 16.6605C7.53242 16.9813 7.54393 17.4527 7.57079 18.075C7.59765 18.701 7.60916 19.1725 7.60916 19.4894C7.60916 19.6942 8.5301 19.7986 10.372 19.7986C12.5899 19.7986 13.7027 18.6701 13.7027 16.4131Z" fill="white"/>
<path d="M37.6586 24.7802C37.6586 25.2246 37.5703 26.0362 37.3976 27.2227C37.2134 28.5134 37.0484 29.2787 36.9065 29.526C36.7837 29.7231 36.6148 29.8197 36.3999 29.8197C36.3078 29.8197 36.1544 29.8042 35.9395 29.7733C35.1912 29.669 33.0117 29.6187 29.397 29.6187C28.6104 29.6187 27.4362 29.6149 25.8821 29.6033C24.3242 29.5917 23.1576 29.5878 22.3825 29.5878C22.0448 29.5878 21.876 29.4371 21.876 29.1395C21.876 27.984 21.9412 26.2488 22.0679 23.9377C22.1945 21.6228 22.2597 19.8875 22.2597 18.732C22.2597 17.5571 22.1983 15.3659 22.0755 12.1582C22.0448 11.335 21.9873 10.1022 21.9067 8.46357L21.8914 8.24715C21.8722 8.01141 21.9988 7.8916 22.2751 7.8916C23.031 7.8916 24.1707 7.91092 25.6902 7.95344C27.2098 7.99595 28.3494 8.01527 29.1054 8.01527C29.8536 8.01527 30.9779 7.99595 32.4821 7.95344C33.9863 7.91092 35.1145 7.8916 35.8589 7.8916C36.3923 7.8916 36.6992 8.09256 36.7798 8.49449C36.8297 8.73023 36.9103 9.44906 37.0177 10.651C37.1252 11.8529 37.1789 12.5833 37.1789 12.8384C37.1789 13.0548 37.0753 13.163 36.8719 13.163C36.8105 13.163 36.7031 13.1591 36.5496 13.1475C33.8252 12.9195 31.3808 12.8075 29.209 12.8075C28.6679 12.8075 28.3341 12.935 28.2113 13.1939C28.1614 13.3176 28.1345 13.7157 28.1345 14.3842C28.1345 15.0837 28.2381 15.5475 28.4415 15.7755C28.6142 15.9726 28.948 16.0692 29.4392 16.0692C29.5428 16.0692 29.7423 16.0615 30.0378 16.046C30.3333 16.0306 30.5789 16.0229 30.7746 16.0229C32.0639 16.0229 33.3685 15.9881 34.6885 15.9146C34.7998 15.903 35.0838 15.8799 35.5327 15.8374C35.8819 15.7948 36.1582 15.7755 36.3616 15.7755C36.6072 15.7755 36.7299 15.8953 36.7299 16.1311C36.7299 15.9146 36.6378 16.703 36.4537 18.4962C36.3731 19.3194 36.3309 20.1464 36.3309 20.9696C36.3309 21.1744 36.1812 21.2788 35.8857 21.2788L34.5043 21.1242C33.9211 21.0624 32.5896 21.0315 30.5136 21.0315H28.8866C28.4684 21.0315 28.2228 21.1358 28.1499 21.3406C28.1384 21.3909 28.1345 21.7116 28.1345 22.2991C28.1345 23.0836 28.1844 23.5899 28.288 23.814C28.4607 24.2043 29.1169 24.4401 30.2527 24.5097C30.2335 24.5097 30.9779 24.5097 32.4936 24.5097C33.0347 24.5097 33.8405 24.4594 34.9111 24.3628C35.9817 24.2662 36.7837 24.2159 37.3132 24.2159C37.5434 24.2237 37.6586 24.4092 37.6586 24.7802Z" fill="white"/>
<path d="M58.0957 16.1658C58.0957 18.6624 57.4472 20.6836 56.1464 22.2295C54.7534 23.8681 52.8348 24.6874 50.3867 24.6874C49.9761 24.6874 49.3621 24.6642 48.5371 24.6178C47.7121 24.5715 47.0943 24.5483 46.6876 24.5483C46.2463 24.5483 46.0276 24.7376 46.0276 25.1202C46.0276 25.5956 46.0736 26.299 46.1657 27.2381C46.2578 28.1772 46.3038 28.8767 46.3038 29.3404C46.3038 29.5801 46.1964 29.696 45.9815 29.696C45.356 29.696 44.4198 29.6767 43.1727 29.6419C41.9217 29.6071 40.9854 29.5878 40.3638 29.5878C40.0683 29.5878 39.9187 29.4371 39.9187 29.1395C39.9187 27.9955 39.9379 26.2758 39.9724 23.9802C40.0069 21.6884 40.0261 19.9686 40.0261 18.8208C40.0261 15.5822 39.888 12.1813 39.6117 8.61425L39.5964 8.39783C39.5772 8.20073 39.7307 8.08479 40.0568 8.04228C40.855 7.93794 42.6163 7.8877 45.3407 7.8877C46.9485 7.8877 48.4872 7.90702 49.9646 7.94953C52.3897 8.02296 54.3467 8.78816 55.8317 10.2529C57.3359 11.764 58.0957 13.7311 58.0957 16.1658ZM51.9676 16.4131C51.9676 14.0093 50.8049 12.8113 48.4834 12.8113C46.8449 12.8113 45.9854 12.904 45.9048 13.0895C45.8319 13.2248 45.7973 14.4151 45.7973 16.6605C45.7973 16.9813 45.8088 17.4527 45.8357 18.075C45.8626 18.701 45.8741 19.1725 45.8741 19.4894C45.8741 19.6942 46.795 19.7986 48.6369 19.7986C50.8586 19.7986 51.9676 18.6701 51.9676 16.4131Z" fill="white"/>
<path d="M75.9235 24.7802C75.9235 25.2246 75.8352 26.0362 75.6625 27.2227C75.4783 28.5134 75.3133 29.2787 75.1714 29.526C75.0486 29.7231 74.8797 29.8197 74.6648 29.8197C74.5728 29.8197 74.4193 29.8042 74.2044 29.7733C73.4561 29.669 71.2766 29.6187 67.6619 29.6187C66.8753 29.6187 65.7011 29.6149 64.147 29.6033C62.5891 29.5917 61.4226 29.5878 60.6474 29.5878C60.3098 29.5878 60.1409 29.4371 60.1409 29.1395C60.1409 27.984 60.2061 26.2488 60.3328 23.9377C60.4594 21.6228 60.5246 19.8875 60.5246 18.732C60.5246 17.5571 60.4632 15.3659 60.3404 12.1582C60.3098 11.335 60.2522 10.1022 60.1716 8.46357L60.1563 8.24715C60.1371 8.01141 60.2637 7.8916 60.54 7.8916C61.2959 7.8916 62.4356 7.91092 63.9551 7.95344C65.4747 7.99595 66.6143 8.01527 67.3703 8.01527C68.1185 8.01527 69.2428 7.99595 70.747 7.95344C72.2512 7.91092 73.3755 7.8916 74.1238 7.8916C74.6572 7.8916 74.9642 8.09256 75.0447 8.49449C75.0946 8.73023 75.1752 9.44906 75.2826 10.651C75.3901 11.8529 75.4438 12.5833 75.4438 12.8384C75.4438 13.0548 75.3402 13.163 75.1368 13.163C75.0754 13.163 74.968 13.1591 74.8145 13.1475C72.0901 12.9195 69.6457 12.8075 67.4739 12.8075C66.9328 12.8075 66.599 12.935 66.4762 13.1939C66.4263 13.3176 66.3994 13.7157 66.3994 14.3842C66.3994 15.0837 66.503 15.5475 66.7064 15.7755C66.8791 15.9726 67.2129 16.0692 67.7041 16.0692C67.8077 16.0692 68.0072 16.0615 68.3027 16.046C68.5982 16.0306 68.8438 16.0229 69.0395 16.0229C70.3288 16.0229 71.6334 15.9881 72.9534 15.9146C73.0647 15.903 73.3487 15.8799 73.7976 15.8374C74.1468 15.7948 74.4231 15.7755 74.6265 15.7755C74.8721 15.7755 74.9949 15.8953 74.9949 16.1311C74.9949 15.9146 74.9028 16.703 74.7186 18.4962C74.6341 19.3194 74.5958 20.1464 74.5958 20.9696C74.5958 21.1744 74.4461 21.2788 74.1507 21.2788L72.7693 21.1242C72.186 21.0624 70.8545 21.0315 68.7785 21.0315H67.1515C66.7333 21.0315 66.4877 21.1358 66.4148 21.3406C66.4033 21.3909 66.3994 21.7116 66.3994 22.2991C66.3994 23.0836 66.4493 23.5899 66.5529 23.814C66.7256 24.2043 67.3818 24.4401 68.5176 24.5097C68.4984 24.5097 69.2428 24.5097 70.7585 24.5097C71.2996 24.5097 72.1054 24.4594 73.176 24.3628C74.2466 24.2662 75.0486 24.2159 75.5781 24.2159C75.8083 24.2237 75.9235 24.4092 75.9235 24.7802Z" fill="white"/>
<path d="M14.7158 48.9883C14.7311 49.1854 14.6275 49.2859 14.4127 49.2859C14.2745 49.2859 13.8793 49.2048 13.2231 49.0463C12.5669 48.8879 12.164 48.7758 12.0105 48.7178C10.4948 49.3168 9.04053 49.6144 7.64761 49.6144C5.40666 49.6144 3.56863 48.8647 2.1335 47.3574C0.709888 45.8734 0 44.0029 0 41.7382C0 39.4233 0.686865 37.5026 2.06443 35.976C3.48421 34.3992 5.32992 33.6108 7.60156 33.6108C8.70285 33.6108 9.7389 33.8234 10.7136 34.2446C11.765 34.7123 12.59 35.3693 13.1924 36.2156C13.3152 36.3895 13.3766 36.5171 13.3766 36.5866C13.3766 36.8224 13.0504 37.3441 12.4019 38.1595C11.7535 38.975 11.3352 39.3808 11.1472 39.3808C11.105 39.3808 10.9361 39.2301 10.6483 38.9325C10.2915 38.5731 9.93076 38.2987 9.56239 38.1016C9.00983 37.804 8.40354 37.6533 7.73587 37.6533C6.64993 37.6533 5.78655 38.0629 5.14573 38.8784C4.55096 39.632 4.25549 40.5711 4.25549 41.6957C4.25549 42.886 4.56247 43.829 5.18027 44.5208C5.81725 45.2357 6.72284 45.5952 7.88935 45.5952C8.62994 45.5952 9.45495 45.4097 10.3682 45.0348C10.3452 44.7952 10.28 44.1807 10.1725 43.1952C10.0766 42.4377 10.0305 41.8233 10.0305 41.3556C10.0305 41.2165 10.0766 41.1315 10.1725 41.1044C10.207 41.089 10.2646 41.0812 10.3452 41.0812C10.5562 41.0812 10.8709 41.1006 11.2968 41.1431C11.7228 41.1817 12.0412 41.2049 12.26 41.2049C12.4902 41.2049 12.8394 41.1894 13.3037 41.1547C13.768 41.1199 14.1172 41.1044 14.3474 41.1044C14.5278 41.1044 14.6199 41.2242 14.6199 41.4677C14.6199 41.8194 14.6007 42.3488 14.5585 43.0561C14.5201 43.7633 14.4971 44.2928 14.4971 44.6445C14.4971 45.5874 14.5661 46.9942 14.7043 48.8724L14.7158 48.9883Z" fill="white"/>
<path d="M29.2014 49.2279C29.2014 49.2781 29.1285 49.3168 28.9826 49.3361C28.7064 49.3786 28.0157 49.4018 26.9067 49.4018C25.9551 49.4018 25.3104 49.3786 24.9689 49.3361C24.8077 49.3129 24.7195 49.2975 24.6964 49.282C24.6542 49.2588 24.6005 49.1854 24.543 49.0617C24.4355 48.7757 24.2744 48.3545 24.0633 47.7902C23.7793 47.0598 23.3381 45.9816 22.7356 44.5594C22.6052 44.2734 22.3059 44.1188 21.8339 44.0879C22.0526 44.1033 21.6765 44.1111 20.7134 44.1111C20.606 44.1111 20.5484 44.2966 20.5484 44.6715C20.5484 45.1661 20.5944 45.9081 20.6827 46.8936C20.7748 47.8791 20.817 48.6211 20.817 49.1158C20.817 49.2395 20.7825 49.3129 20.7211 49.3361C20.6213 49.3438 20.5177 49.3516 20.4179 49.3593C19.9882 49.3902 19.3243 49.4018 18.4187 49.4018C17.3827 49.4018 16.7572 49.3786 16.55 49.3361C16.3389 49.2936 16.2353 49.1777 16.2353 48.996C16.2353 48.1922 16.2737 46.9787 16.3505 45.3594C16.4272 43.7401 16.4656 42.5227 16.4656 41.7111C16.4656 38.6233 16.3965 36.2117 16.2584 34.4803L16.2469 34.3257C16.2392 34.2021 16.3543 34.1171 16.5884 34.0745C16.8224 34.032 17.9314 33.9857 19.9114 33.9431C21.2544 33.9122 22.3212 33.9006 23.1193 33.9006C24.7732 33.9006 26.1201 34.2755 27.1638 35.0291C28.3457 35.8755 28.9366 37.1006 28.9366 38.7005C28.9366 39.7672 28.7831 40.6174 28.48 41.2512C28.1768 41.885 27.6127 42.5034 26.7954 43.1024C26.6266 43.2183 26.546 43.3304 26.546 43.4309C26.546 43.4232 26.9873 44.3391 27.8737 46.1787C28.7601 48.026 29.2014 49.0385 29.2014 49.2279ZM24.6312 39.4039C24.6312 38.5112 24.3396 37.8967 23.7602 37.5527C23.3112 37.2899 22.609 37.1585 21.6497 37.1585C20.959 37.1585 20.5944 37.2629 20.5522 37.4754C20.51 37.7228 20.487 38.4377 20.487 39.6203C20.487 39.7865 20.4908 40.0377 20.4985 40.3662C20.5062 40.6947 20.51 40.9382 20.51 41.1005C20.51 41.1391 20.6251 41.1739 20.8592 41.2087C21.3005 41.2744 21.7648 41.3053 22.2521 41.3053C23.8407 41.3092 24.6312 40.6754 24.6312 39.4039Z" fill="white"/>
<path d="M45.5365 41.6726C45.5365 43.9527 44.8151 45.8619 43.3723 47.4C41.8988 48.9613 40.0377 49.7458 37.7814 49.7458C35.5405 49.7458 33.6794 48.9574 32.2021 47.3807C30.7516 45.8387 30.0264 43.9373 30.0264 41.6726C30.0264 39.4001 30.7516 37.491 32.2021 35.9451C33.6794 34.3606 35.5405 33.5684 37.7814 33.5684C40.007 33.5684 41.8642 34.3606 43.3492 35.9451C44.8074 37.5065 45.5365 39.4156 45.5365 41.6726ZM41.4153 41.6494C41.4153 40.5557 41.0853 39.6243 40.4253 38.8552C39.7346 38.0514 38.8558 37.6494 37.7814 37.6494C36.7607 37.6494 35.8935 38.0668 35.1836 38.8977C34.4929 39.7016 34.1514 40.6252 34.1514 41.6687C34.1514 42.7856 34.4737 43.717 35.1184 44.4628C35.8014 45.2435 36.6878 45.6338 37.7814 45.6338C38.8021 45.6338 39.6732 45.2203 40.3907 44.3971C41.0738 43.6126 41.4153 42.6928 41.4153 41.6494Z" fill="white"/>
<path d="M60.141 43.9604C60.141 45.8232 59.9184 47.0947 59.4771 47.771C58.6636 49.0115 56.6376 49.6337 53.399 49.6337C51.9331 49.6337 50.805 49.5217 50.0184 49.2936C48.7559 48.9265 47.9386 48.2309 47.5587 47.2029C47.3707 46.7005 47.2747 45.8 47.2747 44.5092C47.2747 44.2077 47.2862 43.7633 47.3093 43.172C47.3323 42.5807 47.3438 42.1402 47.3438 41.8464C47.3438 41.0001 47.3054 39.7286 47.2249 38.0359C47.1443 36.3432 47.1059 35.0755 47.1059 34.2369C47.1059 34.063 47.1826 33.9741 47.3323 33.9741C47.7736 33.9741 48.4451 33.9934 49.3392 34.0282C50.2332 34.0669 50.9048 34.0823 51.346 34.0823C51.5264 34.0823 51.6185 34.1635 51.6185 34.3219C51.6185 35.2842 51.5878 36.7296 51.5264 38.6542C51.465 40.5788 51.4343 42.0242 51.4343 42.9865C51.4343 44.1343 51.5533 44.9073 51.795 45.3092C52.1135 45.858 52.7812 46.1324 53.7942 46.1324C55.2792 46.1324 56.0236 45.4058 56.0236 43.9527C56.0236 42.8938 55.9968 41.3054 55.9469 39.1876C55.897 37.0697 55.8701 35.4813 55.8701 34.4224C55.8701 34.1944 55.9622 34.0823 56.1426 34.0823C56.5724 34.0823 57.217 34.063 58.0804 34.0282C58.9438 33.9896 59.5884 33.9741 60.0144 33.9741C60.2254 33.9741 60.329 34.063 60.329 34.2369C60.329 35.0755 60.2945 36.3432 60.2254 38.0359C60.1563 39.7286 60.1218 41.0001 60.1218 41.8464C60.1218 42.0783 60.1256 42.4339 60.1333 42.9015C60.1372 43.3768 60.141 43.7285 60.141 43.9604Z" fill="white"/>
<path d="M75.3134 39.8329C75.3134 41.5991 74.8529 43.0329 73.932 44.1266C72.9458 45.286 71.5875 45.8695 69.853 45.8695C69.5614 45.8695 69.1278 45.8541 68.5407 45.8193C67.9574 45.7845 67.52 45.769 67.2322 45.769C66.9214 45.769 66.7641 45.9043 66.7641 46.1748C66.7641 46.5111 66.7986 47.0096 66.8638 47.6743C66.9291 48.339 66.9598 48.8337 66.9598 49.1622C66.9598 49.3323 66.883 49.4134 66.7295 49.4134C66.2882 49.4134 65.6244 49.4018 64.738 49.3748C63.8516 49.3477 63.1916 49.3361 62.7465 49.3361C62.5354 49.3361 62.4318 49.2318 62.4318 49.0192C62.4318 48.2076 62.4433 46.9903 62.4702 45.3671C62.4971 43.7439 62.5086 42.5227 62.5086 41.715C62.5086 39.4233 62.4126 37.0117 62.2131 34.4842L62.2016 34.3296C62.1862 34.1905 62.2975 34.1055 62.5277 34.0784C63.0918 34.005 64.3389 33.9702 66.2691 33.9702C67.4087 33.9702 68.4985 33.9857 69.5422 34.0127C71.2613 34.063 72.6465 34.6079 73.6979 35.6436C74.7762 36.7141 75.3134 38.1093 75.3134 39.8329ZM70.9735 40.0068C70.9735 38.3064 70.1523 37.4561 68.5062 37.4561C67.3473 37.4561 66.7372 37.5218 66.6796 37.6532C66.6298 37.7499 66.6029 38.5924 66.6029 40.1846C66.6029 40.4087 66.6106 40.745 66.6298 41.1855C66.6489 41.6261 66.6566 41.9623 66.6566 42.1865C66.6566 42.3333 67.3089 42.4068 68.6136 42.4068C70.1869 42.4068 70.9735 41.6068 70.9735 40.0068Z" fill="white"/>
</g>
<defs>
<clipPath id="clip0_1_893">
<rect width="139" height="53" fill="white"/>
</clipPath>
</defs>
</svg>
