<svg width="218" height="81" viewBox="0 0 218 81" fill="none" xmlns="http://www.w3.org/2000/svg">
<g clip-path="url(#clip0_1_403)">
<path d="M84.2364 24.7822C84.4804 25.4814 84.5312 26.2278 84.4804 26.927C84.4465 27.6431 84.3177 28.3558 84.1212 29.0381C83.9247 29.7372 83.6977 30.4195 83.308 31.0174C84.5617 38.2422 81.7595 39.7858 81.7595 39.7858C81.7595 39.7858 76.3857 43.6026 74.1054 45.9703C73.5531 46.5378 73.0618 47.1728 72.6247 47.7875C75.1998 45.2543 78.683 42.2819 81.5325 40.7721C81.336 41.5186 81.0616 42.542 80.7498 43.2074C80.1975 44.3592 80.4246 48.1422 80.228 51.2429C80.018 54.3436 76.9041 55.3839 74.4137 57.039C69.2194 65.8378 64.5436 66.716 61.5958 68.2731C58.631 69.8167 56.2863 73.549 50.0654 76.6497C43.8444 79.7505 39.4769 78.0447 35.7328 77.43C32.0023 76.8119 29.2002 80.0612 22.3457 77.43C3.8252 67.6381 5.06532 54.1477 5.22795 49.6317C-2.9819 34.8713 -0.278038 26.0556 4.88574 20.8607V20.8438C10.0292 15.7064 17.602 14.1155 19.2318 13.8385V13.0752C19.2149 10.623 19.1844 5.50918 26.7233 1.64512C34.4758 -2.33378 40.9271 1.90521 42.7839 3.90141C44.5933 3.52649 46.4805 3.38125 50.6177 3.31707C55.0496 1.38504 59.0715 3.31707 60.6199 5.0228L60.6674 5.07009H60.6843L61.1892 5.65442C63.4221 6.384 64.7062 8.86997 65.3263 10.069L65.3602 10.1332V10.4913C66.2411 10.7986 67.8201 11.6262 67.8201 12.6496C67.8201 13.7372 68.6502 14.1594 69.8395 15.7334C73.57 15.6051 73.8953 17 74.5628 18.1856C77.2328 17.4695 78.1307 19.5806 79.2386 21.1748L79.303 21.1579C79.7096 21.0938 80.1027 21.0296 80.5093 21.0431C80.9159 21.06 81.3733 21.1411 81.7155 21.418C82.0577 21.6781 82.2373 22.0834 82.3661 22.4719C82.4813 22.813 82.5626 23.1879 82.6439 23.5595C82.9861 23.5595 83.3283 23.6743 83.6062 23.8837C83.9077 24.1168 84.1042 24.441 84.2364 24.7822Z" fill="black"/>
<path d="M61.5958 68.2799C58.6311 69.8235 56.2864 73.5558 50.0654 76.6565C43.8445 79.7572 39.477 78.0515 35.7329 77.4367C32.0024 76.8186 29.2003 80.068 22.3457 77.4367C3.82528 67.6449 5.0654 54.1544 5.22804 49.6385C-2.98182 34.8781 -0.277954 26.0623 4.88582 20.8675V20.8506C10.0293 15.7064 17.6021 14.1155 19.2319 13.8385V13.0752C19.2149 10.623 19.1845 5.50918 26.7234 1.64512C34.4759 -2.33378 40.9272 1.90521 42.784 3.90141C44.5933 3.52649 46.4806 3.38125 50.6177 3.31707C55.0496 1.38504 59.0716 3.31707 60.62 5.0228L60.6674 5.07009H60.6844L61.1892 5.65442C63.4221 6.384 64.7063 8.86997 65.3264 10.069L65.3602 10.1332V10.4913C66.2412 10.7986 67.8201 11.6262 67.8201 12.6496C67.8201 13.7372 68.6503 14.1594 69.8396 15.7334C73.5701 15.6051 73.8954 17 74.5629 18.1856C77.2328 17.4695 78.1308 19.5806 79.2387 21.1748L79.3031 21.1579C79.7097 21.0938 80.1027 21.0296 80.5093 21.0431C80.9159 21.06 81.3734 21.1411 81.7156 21.418C82.0578 21.6781 82.2374 22.0834 82.3661 22.4719C82.4813 22.813 82.5627 23.1879 82.644 23.5595C82.9862 23.5595 83.3284 23.6743 83.6062 23.8837C83.9146 24.11 84.1111 24.4343 84.2399 24.7754C84.4838 25.4746 84.5346 26.2211 84.4838 26.9203C84.4499 27.6363 84.3212 28.349 84.1247 29.0313C83.9281 29.7305 83.7011 30.4128 83.3115 31.0106C84.5651 38.2355 81.763 39.7791 81.763 39.7791C81.763 39.7791 76.3892 43.5958 74.1088 45.9636C73.5565 46.531 73.0652 47.166 72.6282 47.7808C75.2033 45.2475 78.6864 42.2752 81.536 40.7653C81.3395 41.5118 81.065 42.5352 80.7533 43.2006C80.201 44.3524 80.428 48.1354 80.2315 51.2361C80.0214 54.3368 76.9076 55.3772 74.4172 57.0322C69.2195 65.8446 64.5437 66.7194 61.5958 68.2799Z" fill="white"/>
<path d="M80.7027 35.7087C79.4964 37.0395 78.0327 38.1102 76.4503 38.9884C74.8883 39.8666 73.2247 40.532 71.5475 41.2616C70.7004 41.6196 69.9177 42.1702 69.2197 42.7377C68.5183 43.322 67.8508 43.957 67.2342 44.6055C65.9466 45.889 64.7438 47.2671 63.6832 48.7634C63.4223 49.1215 63.1614 49.5099 62.9344 49.8983C62.6905 50.3205 62.5109 50.7596 62.3482 51.165C62.006 52.0094 61.7146 52.8538 61.3216 53.6475C60.9285 54.4413 60.4576 55.2047 59.8714 55.8228C59.2852 56.4409 58.5025 56.8766 57.6893 57.0421C56.8761 57.238 56.029 56.9442 55.6191 56.2619C55.392 55.9038 55.2599 55.5154 55.1955 55.1101C55.1616 54.6879 55.1955 54.2825 55.3243 53.8907L55.4225 53.5969L55.5682 53.3368C55.6834 53.1747 55.7783 53.0598 55.9579 52.8673C56.3001 52.5262 56.561 52.1377 56.8219 51.7628C57.3098 50.9657 57.7503 50.1719 58.1264 49.3275C58.9091 47.6859 59.5258 45.9667 60.112 44.261C60.2407 43.8219 60.3729 43.3828 60.5016 42.9606L60.7456 42.3762C60.8438 42.1803 60.9556 41.9878 61.0708 41.7919C61.2504 41.417 61.5757 41.0758 61.8027 40.7381C62.1111 40.3969 62.3889 40.0558 62.7142 39.7484C63.9678 38.4818 65.3842 37.3604 66.8513 36.3235C69.7822 34.2462 72.9435 32.4763 76.1827 30.8685C76.5723 30.6253 76.9959 30.4294 77.3381 30.122C77.5177 29.9768 77.7277 29.8282 77.8904 29.6661L78.3614 29.1459C78.9475 28.4298 79.4185 27.6023 79.6658 26.7106C80.1538 24.9745 80.042 23.137 79.5371 21.4347C79.4897 21.4347 79.4219 21.4684 79.3745 21.4684C79.6828 22.4919 81.1499 28.2407 75.8574 30.7706C70.0431 33.547 61.4266 38.8229 60.1899 42.964C58.9362 47.1219 57.1777 51.246 55.6123 52.8031C54.0503 54.3467 55.0431 58.177 58.0722 57.2346C61.1183 56.326 61.9484 52.641 62.8768 50.5604C63.8052 48.4493 68.4946 42.9606 71.1985 41.6129C71.4086 41.5149 71.6559 41.4035 71.9168 41.2886C71.9981 41.2549 72.0964 41.2076 72.1946 41.1738C72.3234 41.1096 72.4555 41.059 72.6012 40.9948C72.8621 40.8799 73.14 40.7685 73.4314 40.6367C73.6279 40.5388 73.821 40.4577 74.0175 40.3598C74.7833 40.0186 75.5965 39.6302 76.4436 39.1573C76.6706 39.029 76.9145 38.8804 77.1449 38.7182C77.4058 38.573 77.6667 38.394 77.9107 38.2318C78.1716 38.0528 78.4156 37.8569 78.6765 37.6813C79.1813 37.2928 79.6692 36.8537 80.1436 36.4146C80.4214 36.1377 80.6823 35.8472 80.9263 35.5365C81.0076 35.4723 81.072 35.3912 81.1364 35.2933C81.2516 35.1649 81.3634 35.0163 81.4616 34.8711C81.5091 34.8238 81.543 34.7562 81.5904 34.692C81.6243 34.6447 81.6548 34.5941 81.6887 34.5468C81.7056 34.513 81.7225 34.4826 81.7361 34.4488C81.753 34.4488 81.77 34.432 81.77 34.4151C81.77 34.4151 81.77 34.4151 81.7869 34.3982C81.8682 34.2833 81.9326 34.1719 82.0139 34.0401C82.1122 33.8611 82.224 33.6652 82.3392 33.4727C82.4375 33.2768 82.5493 33.0843 82.634 32.8884C82.8136 32.483 82.9762 32.0912 83.105 31.669C82.59 33.1586 81.7598 34.54 80.7027 35.7087ZM84.2367 24.7819C84.1079 24.4408 83.9114 24.1165 83.6031 23.8902C83.3252 23.6808 82.983 23.566 82.6408 23.566C82.5595 23.1911 82.4781 22.8195 82.3629 22.4784C82.2342 22.0899 82.0546 21.6812 81.7124 21.4245C81.3702 21.1476 80.9127 21.0665 80.5061 21.0496C80.0996 21.0327 79.7065 21.0969 79.2999 21.1644L79.2355 21.1813H79.1373L79.2017 21.3604C79.6896 23.0492 79.7878 24.917 79.2999 26.6059C79.056 27.4503 78.6155 28.2137 78.0462 28.8791L77.5888 29.3486C77.4262 29.4938 77.2466 29.6255 77.067 29.7708C76.7417 30.0646 76.3487 30.2403 75.959 30.4531C72.6859 32.0271 69.5077 33.7801 66.5294 35.8776C65.0487 36.9179 63.5985 38.0528 62.311 39.3532C61.9687 39.6775 61.6774 40.0355 61.3656 40.3767C61.1047 40.7516 60.7795 41.0927 60.5524 41.5116C60.4542 41.721 60.3085 41.9169 60.2102 42.1297L59.9324 42.7951C59.7867 43.2173 59.6715 43.6395 59.5258 44.0786C58.9565 45.7843 58.3195 47.4732 57.5707 49.0944C57.1946 49.9051 56.7711 50.7022 56.3001 51.4318C56.0731 51.8067 55.8122 52.1614 55.5174 52.4721C55.3887 52.6174 55.1921 52.8301 55.06 53.0396L54.8804 53.3638L54.7517 53.7219C54.4569 54.6642 54.589 55.7349 55.1278 56.5625C55.6496 57.4542 56.8389 57.8764 57.7842 57.6163C58.7465 57.4069 59.6071 56.9002 60.261 56.2213C60.9285 55.539 61.4165 54.7284 61.8095 53.9009C62.1991 53.0733 62.5109 52.1951 62.8361 51.3676C62.9988 50.9454 63.1784 50.557 63.3884 50.1821C63.5985 49.7936 63.8459 49.4187 64.0898 49.0472C65.1165 47.5846 66.2888 46.1896 67.5256 44.9061C68.1592 44.2576 68.7962 43.6226 69.4806 43.0552C70.182 42.4708 70.88 41.9507 71.6966 41.5926C73.3433 40.8462 75.034 40.147 76.5825 39.2215C78.1614 38.296 79.6286 37.1746 80.8009 35.7965C81.0449 35.5027 81.2888 35.2122 81.4684 34.8879C81.5159 34.8407 81.5497 34.7731 81.5972 34.7089C81.6311 34.6616 81.6616 34.611 81.6954 34.5637C81.7124 34.5299 81.7293 34.4995 81.7429 34.4657C81.7598 34.4657 81.7768 34.4488 81.7768 34.432C81.7768 34.432 81.7768 34.432 81.7937 34.4151C81.875 34.3002 81.9394 34.1888 82.0207 34.057C82.119 33.878 82.2308 33.6821 82.346 33.4896C82.4443 33.2937 82.5561 33.1012 82.6408 32.9052C82.8204 32.4999 82.983 32.1081 83.1117 31.6859C82.59 33.1619 81.7598 34.5434 80.7027 35.7121C79.4964 37.0429 78.0327 38.1136 76.4503 38.9918C74.8883 39.87 73.2247 40.5354 71.5475 41.265C70.7004 41.623 69.9177 42.1736 69.2197 42.741C68.5183 43.3254 67.8508 43.9604 67.2342 44.6089C65.9466 45.8924 64.7438 47.2705 63.6832 48.7668C63.4223 49.1248 63.1614 49.5133 62.9344 49.9017C62.6905 50.3239 62.5109 50.763 62.3482 51.1683C62.006 52.0128 61.7146 52.8572 61.3216 53.6509C60.9285 54.4447 60.4576 55.208 59.8714 55.8261C59.2852 56.4443 58.5025 56.88 57.6893 57.0455C56.8761 57.2414 56.029 56.9475 55.6191 56.2652C55.392 55.9072 55.2599 55.5188 55.1955 55.1135C55.1616 54.6912 55.1955 54.2859 55.3243 53.8941L55.4225 53.6003L55.5682 53.3402C55.6834 53.178 55.7783 53.0632 55.9579 52.8707C56.3001 52.5295 56.561 52.1411 56.8219 51.7662C57.3098 50.969 57.7503 50.1753 58.1264 49.3309C58.9091 47.6893 59.5258 45.9701 60.112 44.2644C60.2407 43.8253 60.3729 43.3862 60.5016 42.964L60.7456 42.3796C60.8438 42.1837 60.9556 41.9912 61.0708 41.7953C61.2504 41.4204 61.5757 41.0792 61.8027 40.7415C62.1111 40.4003 62.3889 40.0592 62.7142 39.7518C63.9678 38.4852 65.3842 37.3638 66.8513 36.3268C69.7822 34.2496 72.9435 32.4797 76.1827 30.8719C76.5723 30.6287 76.9959 30.4328 77.3381 30.1254C77.5177 29.9802 77.7277 29.8316 77.8904 29.6694L78.3614 29.1493C78.9475 28.4332 79.4185 27.6057 79.6658 26.714C80.1538 24.9778 80.042 23.1404 79.5371 21.438C79.4897 21.438 79.4219 21.4718 79.3745 21.4718H79.3575L79.3745 21.438L79.4897 21.259C79.5066 21.3063 79.5235 21.3739 79.5371 21.438C79.8454 21.3908 80.1707 21.3401 80.4994 21.3401C80.8755 21.3401 81.2482 21.4212 81.543 21.6339C81.8378 21.8434 82.0004 22.2014 82.1291 22.5594C82.2579 22.9006 82.3392 23.289 82.4239 23.6808L82.4409 23.7619H82.5391C82.5561 23.7619 82.5561 23.7619 82.5561 23.7619H82.6204C83.271 23.7619 83.8572 24.2179 84.1011 24.8495C84.3451 25.498 84.3959 26.231 84.379 26.9268C84.3451 27.6428 84.2502 28.3386 84.0706 29.0209C83.8911 29.7201 83.664 30.4024 83.3049 31.0171C83.6945 30.4159 83.9249 29.7336 84.1181 29.0378C84.3146 28.3555 84.4434 27.6428 84.4772 26.9268C84.5281 26.2276 84.4806 25.4811 84.2367 24.7819Z" fill="black"/>
<path d="M61.1894 5.65393L60.6846 5.0696H60.6676L60.6202 5.02231C59.0718 3.31658 55.0498 1.38455 50.6179 3.31658C46.4808 3.38076 44.5901 3.526 42.7842 3.90092C40.9274 1.90472 34.4761 -2.33426 26.7236 1.64464C19.1813 5.50869 19.2151 10.6225 19.2321 13.0747V13.838L19.2151 14.0475L19.476 14.0947C19.5099 14.0947 21.448 14.4697 23.254 14.9223C23.4166 14.9696 23.5793 15.0033 23.725 15.0506L23.8537 15.0979H23.8707L24.3281 14.7095C28.1874 11.5919 33.7577 12.5815 36.5429 13.3618H36.5768C36.7394 13.4091 36.9021 13.4597 37.0478 13.5239C37.0952 13.5239 37.1291 13.5408 37.1765 13.5577L37.2579 13.5915L37.3561 13.5577C41.1985 12.3721 45.1255 14.9527 47.5346 17.0502L47.5515 17.0671C47.9581 17.4251 48.3173 17.7663 48.6256 18.0736C48.6426 18.1074 48.6595 18.1074 48.673 18.1209C49.2931 18.7222 49.6828 19.1748 49.8115 19.3403C49.8285 19.374 49.8454 19.374 49.859 19.3876C49.8759 19.4044 49.8928 19.4044 49.8928 19.4213L50.0216 19.5193H52.041C52.041 19.5193 52.0885 19.5193 52.1562 19.5193H52.451L52.4171 19.472L52.3697 19.293L52.3358 19.2119L52.3189 19.1646L52.3019 19.1309C52.3019 19.1309 52.285 19.0498 52.2375 18.9214C52.2375 18.8877 52.2375 18.8877 52.2375 18.8742C52.2037 18.7762 52.1732 18.6782 52.1223 18.5499C52.1054 18.4688 52.1054 18.4047 52.0749 18.3405C52.041 18.1784 51.9936 17.9993 51.9462 17.8034C51.8818 17.5096 51.8005 17.1718 51.7496 16.7969C51.7157 16.682 51.7022 16.5875 51.6852 16.4726C51.4887 15.3377 51.36 13.9563 51.4582 12.5444C51.4582 12.4464 51.4752 12.3485 51.4921 12.2505C51.4921 12.1357 51.4921 12.0242 51.526 11.9094C51.526 11.7135 51.5734 11.5514 51.5904 11.3723C51.6243 11.1933 51.6548 11.0143 51.7056 10.8353C51.7225 10.69 51.753 10.5414 51.8038 10.4131C51.8852 10.153 51.9495 9.9098 52.0478 9.66661C52.0817 9.55177 52.1291 9.4572 52.163 9.35924V9.34235C52.1799 9.32547 52.1799 9.29507 52.1969 9.27818C52.2443 9.214 52.2613 9.13294 52.3121 9.08227C52.5391 8.54522 52.8339 8.07573 53.1931 7.67041C53.4878 7.28197 53.8436 6.95434 54.2197 6.66386C55.0668 6.03223 55.9477 5.61002 56.8761 5.41412C56.8761 5.41412 56.8761 5.41412 56.8931 5.41412C57.3166 5.31617 57.774 5.25199 58.2281 5.25199H58.3263C58.4551 5.25199 58.5703 5.26888 58.7024 5.26888C58.8481 5.28577 58.9972 5.31617 59.1734 5.33306C59.3699 5.34994 59.5326 5.39723 59.7121 5.41412C59.8917 5.46141 60.0713 5.51207 60.2509 5.57625C60.2678 5.57625 60.2678 5.57625 60.2848 5.57625C60.3017 5.57625 60.3322 5.57625 60.3661 5.59314L60.7727 5.70798L61.4063 5.90388L61.1894 5.65393ZM27.0184 2.1952C34.3304 -1.57091 40.4225 2.35732 42.2488 4.25896H42.2658C42.3301 4.32313 42.381 4.3738 42.4284 4.43797L42.5097 4.53592L42.5572 4.58321L42.7537 4.53592C44.5122 4.161 46.2877 4.03265 50.2452 3.9347C50.2452 3.9347 50.2452 3.9347 50.2622 3.9347H50.7026L50.8178 3.90092C54.3857 2.31004 57.6249 3.4956 59.336 4.72845C58.9938 4.66428 58.6685 4.64739 58.3433 4.64739H58.245C57.9841 4.64739 57.7571 4.64739 57.5131 4.66428C56.1951 4.80952 54.9719 5.31279 53.847 6.15721C52.9999 6.80572 52.3155 7.66703 51.8276 8.65669C51.7462 8.77153 51.6988 8.89988 51.631 9.03161C51.2414 9.92331 51.011 10.8826 50.8992 11.8249C50.8653 12.2134 50.8348 12.5883 50.8178 12.9598C50.784 13.7232 50.8178 14.4697 50.8822 15.1688C50.8992 15.2972 50.9161 15.4289 50.9161 15.5438C51.0449 16.6652 51.2583 17.621 51.4379 18.2864C51.4548 18.4148 51.5023 18.5296 51.5192 18.6276C51.5362 18.6749 51.5531 18.7424 51.5531 18.7728C51.57 18.8201 51.587 18.8708 51.6005 18.9181H50.296C49.5303 18.0399 43.3737 11.1562 37.2646 12.943C34.6421 12.1154 28.306 10.7036 23.9418 14.2434L23.7318 14.4224C22.2172 14.0171 20.5061 13.659 19.8555 13.5307V13.0747C19.8352 10.5583 19.8013 5.88024 27.0184 2.1952Z" fill="black"/>
<path d="M83.3083 31.017C83.2439 31.2433 83.1931 31.4561 83.1118 31.6655V31.6824C82.983 32.1046 82.817 32.493 82.6408 32.9017C82.5595 33.0976 82.4443 33.2902 82.346 33.4861C82.2308 33.682 82.119 33.8745 82.0207 34.0535C81.9394 34.1819 81.875 34.2967 81.7937 34.4116C81.7768 34.4285 81.7768 34.4285 81.7768 34.4285C81.7768 34.4453 81.7598 34.4622 81.7429 34.4622C81.7259 34.496 81.709 34.5264 81.6954 34.5602C81.6616 34.6075 81.6311 34.6581 81.5972 34.7054C81.5497 34.7696 81.5159 34.8338 81.4684 34.8844C81.3702 35.0297 81.2584 35.1783 81.1431 35.3066C81.0788 35.4046 81.0144 35.4857 80.9331 35.5498C80.6891 35.8572 80.4282 36.1511 80.1504 36.428C79.6794 36.8671 79.1881 37.3062 78.6832 37.6947C78.4223 37.8737 78.1784 38.0696 77.9175 38.2452C77.6735 38.4074 77.4126 38.5864 77.1517 38.7316C76.9247 38.8937 76.6808 39.039 76.4504 39.1707C75.6033 39.6402 74.7901 40.032 74.0243 40.3732C73.8278 40.4711 73.6347 40.5522 73.4382 40.6501C73.1434 40.7785 72.8689 40.8933 72.608 41.0082C72.4623 41.0723 72.3302 41.123 72.2014 41.1872C72.1032 41.221 72.0049 41.2682 71.9236 41.302C71.6627 41.4169 71.4187 41.5283 71.2053 41.6263C68.5014 42.974 63.812 48.4627 62.8836 50.5737C61.9552 52.651 61.1251 56.3394 58.079 57.248C55.0498 58.1904 54.0571 54.3567 55.6191 52.8165C57.1811 51.2594 58.943 47.1353 60.1967 42.9773C61.4334 38.8363 70.0498 33.5604 75.8642 30.7839C81.1567 28.2507 79.693 22.5019 79.3812 21.4818C79.3812 21.4818 79.3812 21.4818 79.3812 21.4481C79.3474 21.367 79.3338 21.3197 79.3338 21.3197C79.2999 21.2859 79.2864 21.2386 79.2355 21.1913C78.1276 19.6005 77.2331 17.4894 74.5597 18.2021C73.8922 17.0165 73.5669 15.6216 69.8364 15.7499C68.6471 14.1759 67.817 13.7537 67.817 12.6661C67.817 11.6427 66.238 10.8151 65.357 10.5078C65.2927 10.474 65.2283 10.4605 65.1775 10.4436C65.1436 10.3794 65.0961 10.2983 65.0487 10.2173C65.0487 11.0955 64.8861 12.102 64.3812 13.1727C64.1373 13.7098 63.795 14.2435 63.3376 14.7974C63.1919 14.9595 63.0293 15.1554 62.8666 15.3345C62.0365 16.1789 60.9455 17.0064 59.4783 17.7698C59.0717 17.9961 58.6313 18.2089 58.1603 18.4014C58.0315 18.4352 57.8825 18.4825 57.7537 18.5162C57.6724 18.55 57.5741 18.5635 57.4928 18.5804C57.3132 18.6277 57.1506 18.6784 56.971 18.7088C56.8422 18.756 56.7101 18.7729 56.5644 18.8067C56.4018 18.8405 56.2222 18.8878 56.0426 18.9047C56.0426 18.9047 56.0426 18.9047 56.0257 18.9047C55.2938 19.033 54.5755 19.1141 53.9554 19.1816H53.9385C53.3049 19.2289 52.7831 19.2289 52.4408 19.2289H52.3426C52.1325 19.2289 52.0173 19.2289 52.0173 19.2289C52.0173 19.2289 51.919 19.3438 51.7733 19.5228L51.7564 19.5397C51.2041 20.222 49.947 21.877 49.8352 22.8836C49.6726 24.1975 50.7636 25.758 46.2369 30.4968C45.6032 31.115 44.9832 31.6655 44.397 32.1688C43.8278 32.6721 43.2721 33.1112 42.7503 33.4996C42.4725 33.6955 42.2116 33.888 41.9676 34.067C41.4797 34.4082 41.0223 34.6987 40.5818 34.9452C40.3548 35.0736 40.1413 35.1884 39.9312 35.2864C39.5246 35.5127 39.1316 35.6748 38.7758 35.8234C35.8619 36.9752 34.6556 36.0193 34.6556 36.0193C34.6387 36.0024 34.6387 36.0024 34.6387 36.0024C34.5099 35.3539 34.3947 34.7189 34.2965 34.1177C34.0017 32.2667 33.856 30.6117 33.856 29.1154C33.856 28.3858 33.8899 27.7035 33.9543 27.0516C33.9543 27.0516 33.9543 27.0347 33.9543 27.0178C34.0017 26.6429 34.0525 26.2714 34.1 25.9133C34.1474 25.5384 34.2152 25.1838 34.2965 24.8426C34.3439 24.5825 34.4117 24.3393 34.4761 24.0961C34.5235 23.9171 34.5743 23.7212 34.6387 23.5591C34.7031 23.3801 34.7675 23.2011 34.8183 23.0389C34.8657 22.8768 34.9335 22.7147 34.9979 22.5525C35.0622 22.3904 35.1266 22.2283 35.2079 22.0831C35.2418 21.9851 35.2893 21.8871 35.3367 21.7892C35.4824 21.4649 35.662 21.1576 35.8246 20.8637C36.1668 20.2963 36.5429 19.7761 36.9495 19.3201C37.1596 19.0938 37.3561 18.881 37.5696 18.6885L37.5865 18.6716C39.118 17.2428 40.8291 16.5268 42.1472 16.2701H42.1811C42.5707 16.189 42.9129 16.1417 43.2247 16.1417C43.4347 16.1248 43.6651 16.1248 43.8752 16.1417C44.0717 16.1586 44.2649 16.189 44.4614 16.2228C44.624 16.2566 44.7697 16.287 44.9493 16.3376C45.1289 16.3714 45.2746 16.4356 45.4372 16.4829C45.5999 16.5302 45.7456 16.5808 45.8946 16.645C45.9285 16.645 45.9285 16.6619 45.959 16.6788C46.1047 16.7261 46.2369 16.7936 46.3656 16.8578C46.4639 16.8916 46.5452 16.922 46.6265 16.9557C46.7248 17.003 46.8061 17.0368 46.8874 17.0841C47.0331 17.1483 47.1957 17.2462 47.3448 17.3273C47.6396 17.4725 47.9141 17.6347 48.175 17.7968C48.3376 17.8778 48.4833 17.9927 48.6324 18.0906C48.6493 18.1244 48.6663 18.1244 48.6798 18.1379C48.9068 18.3001 49.1372 18.4622 49.3134 18.5939C49.51 18.7223 49.6726 18.854 49.8014 18.952C49.8488 18.9992 49.8996 19.0499 49.9471 19.0668C49.9809 19.1006 50.0114 19.131 50.0453 19.1647C50.0792 19.1816 50.0927 19.1985 50.1097 19.212C50.0114 19.0837 49.5709 18.5804 48.9035 17.9285C46.8027 15.8512 42.2895 12.1324 37.7966 13.139C37.7797 13.139 37.7627 13.139 37.7627 13.139H37.7458C37.5662 13.1863 37.4374 13.2369 37.2579 13.2673C37.1765 13.2504 37.0952 13.2335 37.0139 13.2031C37.0139 13.2031 37.0139 13.2031 36.997 13.2031C34.4388 12.4229 28.7227 11.2238 24.5687 14.1624L24.5348 14.1793C24.5348 14.1962 24.5178 14.1962 24.5178 14.1962C24.3891 14.311 24.2569 14.3921 24.1282 14.5036C24.013 14.6015 23.9012 14.6826 23.8029 14.7805C23.7385 14.7467 23.6572 14.7332 23.5759 14.7163C21.6852 14.2131 19.554 13.8078 19.554 13.8078C19.554 13.8078 19.4388 13.8078 19.2287 13.855C17.5989 14.132 10.0261 15.7229 4.87923 20.8705V20.8874C4.52007 22.61 4.27612 24.4103 4.35744 26.0653C4.37438 26.5044 4.42181 26.9098 4.50313 27.3151C4.52007 27.4299 4.53702 27.5414 4.56751 27.6393C4.58445 27.7677 4.61495 27.8994 4.64883 28.0278C4.69627 28.173 4.73015 28.3216 4.77759 28.4669C4.81147 28.6121 4.87585 28.7607 4.92328 28.8891C4.92328 28.9228 4.94022 28.9532 4.95717 28.9701C5.07237 29.2471 5.20112 29.5072 5.34682 29.7504V29.7673C5.39426 29.8483 5.44508 29.9294 5.50946 30.0105C5.5569 30.0915 5.62466 30.1726 5.68904 30.2536C5.73648 30.3178 5.7873 30.382 5.83474 30.4496C5.88217 30.5306 5.933 30.5948 5.99737 30.6455C6.06175 30.7265 6.12613 30.7907 6.1939 30.8718C6.22778 30.919 6.25827 30.9528 6.29216 30.9697C6.43785 31.115 6.58694 31.2467 6.73264 31.375C7.33575 31.9121 7.98631 32.3005 8.63686 32.5775C8.89776 32.6923 9.15866 32.7734 9.41956 32.8545C9.61608 32.9186 9.80921 32.9693 10.0057 32.9997C10.3005 33.047 10.5919 33.0976 10.8698 33.128C11.4085 33.1753 11.9269 33.1753 12.4013 33.1449H12.4656C12.6622 33.128 12.8553 33.1112 13.0349 33.0808C13.245 33.0639 13.4415 33.0166 13.638 32.9828C13.9972 32.9186 14.3224 32.8376 14.5833 32.7734C15.0408 32.645 15.3491 32.5133 15.4643 32.4795C15.2678 32.6248 14.6647 33.047 14.0649 33.6989C13.9667 33.7968 13.8853 33.8948 13.804 33.9927C12.4995 35.5194 11.3611 38.0696 14.0988 41.0217C18.5612 45.8923 22.0783 48.5708 23.2371 52.4044C23.9689 54.8566 22.9931 56.7245 23.481 58.6869C23.5149 58.8321 23.5623 58.9808 23.6098 59.126C23.9046 59.9535 24.5043 60.8148 25.6123 61.7403C25.8088 61.9024 26.0019 62.0815 26.2323 62.2436C26.5576 62.4868 26.8998 62.7131 27.2251 62.9259C27.5029 63.1218 27.7943 63.3008 28.0722 63.446C28.1365 63.4798 28.1874 63.5102 28.2348 63.544C28.5296 63.7061 28.804 63.8514 29.0819 63.9831C29.1158 64 29.1293 64.0169 29.1632 64.0169C29.3597 64.1148 29.5529 64.179 29.7324 64.2601C29.912 64.3411 30.0747 64.4053 30.2542 64.456C30.3356 64.4898 30.3999 64.5201 30.4813 64.5539C30.6269 64.6012 30.776 64.6519 30.9217 64.6823C30.9692 64.6992 31.0369 64.7161 31.0844 64.7296C31.1318 64.7465 31.1826 64.7633 31.2301 64.7769C31.2639 64.7937 31.3114 64.7937 31.3453 64.7937C31.491 64.841 31.6231 64.8748 31.7519 64.8917C32.3211 65.0065 32.8598 65.0538 33.3647 65.0538C33.7882 65.0538 34.1779 65.02 34.554 64.9559C35.1876 64.841 35.7772 64.6147 36.282 64.3242C36.6717 64.0979 37.0308 63.8041 37.3392 63.4798C37.5357 63.6251 37.7288 63.7568 37.9423 63.8683C38.1524 63.9831 38.3489 64.0777 38.5759 64.1621C39.1451 64.3715 39.7313 64.456 40.2701 64.3715C40.3988 64.3546 40.531 64.3378 40.6597 64.2905C41.3441 64.0946 41.9303 63.642 42.2895 62.8617C42.3708 62.6658 42.4521 62.4395 42.5165 62.2132C42.5504 62.0848 42.5639 61.97 42.5809 61.8383C42.6283 61.5782 42.6453 61.3012 42.6622 60.9939C42.7435 57.1636 42.7435 57.1636 42.7435 57.1636C42.7435 57.1636 43.2823 60.5885 45.2034 63.2839C45.3322 63.4629 45.4813 63.6588 45.6439 63.8345C46.5892 64.9863 47.8599 65.9286 49.4862 66.2698C49.8759 66.3508 50.2351 66.3981 50.5942 66.4488C51.2448 66.513 51.8479 66.513 52.4171 66.4657C52.5967 66.4488 52.7593 66.4319 52.9389 66.4015C53.5082 66.3373 54.0469 66.2056 54.5179 66.0435C54.7449 65.9793 54.9583 65.8982 55.1515 65.8172C56.8626 65.1349 57.8384 64.1452 58.0349 63.9493C58.0349 63.9324 58.0349 63.9324 58.0349 63.9155C57.9367 63.9493 57.6453 64.0439 57.2048 64.125C57.0896 64.1587 56.9608 64.1722 56.8287 64.1891C56.7948 64.1891 56.7643 64.206 56.7135 64.206C56.4695 64.2229 56.2086 64.2398 55.9308 64.2398C55.5716 64.2398 55.182 64.206 54.7923 64.125C54.7449 64.125 54.6941 64.1081 54.6466 64.1081C54.484 64.0608 54.3044 64.027 54.1418 63.9628C53.8978 63.8987 53.6708 63.8007 53.4234 63.6859H53.4065C53.2777 63.6048 53.1625 63.5406 53.0473 63.4764C52.966 63.4292 52.9016 63.3785 52.8373 63.3312C52.6916 63.2333 52.5425 63.1353 52.3968 63.0238C51.9563 62.6489 51.5328 62.1456 51.1601 61.514C50.9974 61.2539 50.8517 60.977 50.7365 60.6696C50.6552 60.4906 50.5739 60.3116 50.5095 60.119C50.4451 59.9231 50.3808 59.7306 50.313 59.5178C50.1842 59.0956 50.086 58.6396 49.9877 58.1363C49.8894 57.6331 49.8251 57.1129 49.7776 56.5286C49.7607 56.3192 49.7438 56.1064 49.7302 55.8969C49.7133 55.5085 49.6963 55.0998 49.6963 54.6776C49.8759 54.9208 50.0555 55.1809 50.2486 55.4241C50.5739 55.8294 50.9161 56.2347 51.2922 56.5927C51.5023 56.8191 51.7327 57.0318 51.9597 57.2244C52.4476 57.6635 52.9525 58.0519 53.4743 58.3762C53.7013 58.5383 53.9452 58.6835 54.1926 58.8153C55.0058 59.2375 55.8224 59.5313 56.6017 59.6428C56.8118 59.6766 57.0252 59.6901 57.2353 59.6901C58.1467 59.6901 58.9938 59.3962 59.6952 58.7173C59.8748 58.5383 60.0849 58.3593 60.2983 58.1803C61.4876 57.2075 63.0496 56.2651 64.5337 55.37C64.5337 55.37 64.5506 55.37 64.5506 55.3531C64.9403 55.1268 65.3333 54.8836 65.706 54.654C66.1635 54.377 66.587 54.1169 66.9767 53.8568C66.9936 53.8399 66.9936 53.8399 66.9936 53.8399C67.6272 53.4177 68.166 52.9955 68.5556 52.5902C68.62 52.526 68.7013 52.4619 68.7521 52.3808C68.7996 52.3335 68.8504 52.2659 68.8978 52.2018C68.9148 52.168 68.9453 52.1545 68.9622 52.1207C68.9791 52.0734 68.9961 52.0396 69.0266 51.9924C69.0605 51.9586 69.074 51.9113 69.091 51.8775C69.1892 51.6816 69.3857 51.3911 69.6432 51.05C69.8059 50.8541 69.9855 50.6278 70.1955 50.3846C70.1955 50.3677 70.2125 50.3508 70.2125 50.3508C70.8325 49.6347 71.6457 48.743 72.608 47.8007C73.0485 47.1826 73.5364 46.5509 74.0887 45.9835C76.369 43.6123 81.7429 39.799 81.7429 39.799C81.7429 39.799 84.5619 38.2418 83.3083 31.017ZM52.2613 26.2747C52.2443 26.5517 52.2138 26.8253 52.1799 27.1023C52.1461 27.4603 52.0986 27.8183 52.0342 28.1561C51.9699 28.6763 51.8716 29.1627 51.7259 29.6322C51.6446 29.9733 51.5633 30.2976 51.465 30.6049C51.465 30.686 51.4311 30.7671 51.4006 30.8312C51.3532 31.0575 51.2719 31.2534 51.1906 31.4629C51.1567 31.5777 51.1262 31.6723 51.0754 31.7702C50.8958 32.2904 50.6857 32.7768 50.4553 33.2328C50.3096 33.557 50.147 33.8644 49.9843 34.1582C49.8861 34.3541 49.7878 34.5332 49.676 34.7088C49.5303 34.9351 49.3981 35.1648 49.2355 35.3742C48.5172 36.4449 47.7209 37.3535 46.9382 38.1034C46.7756 38.2655 46.6299 38.3972 46.4808 38.5256C46.2538 38.735 46.0234 38.9309 45.7964 39.1099C45.4542 39.3869 45.1289 39.6301 44.8205 39.826C44.6748 39.9408 44.5122 40.0354 44.3631 40.1333C44.2174 40.2313 44.0853 40.3124 43.9396 40.3934C43.8108 40.4576 43.6956 40.5218 43.5804 40.5893C43.4652 40.6535 43.3704 40.7177 43.2721 40.7683C42.6859 41.0757 42.2963 41.2378 42.2285 41.2547C42.2285 41.2547 42.2285 41.2378 42.2454 41.221C42.2454 41.2041 42.2454 41.1872 42.2624 41.1737C42.2624 41.1568 42.2624 41.1264 42.2793 41.0926C42.2963 41.0115 42.3268 40.9136 42.3776 40.7987C42.4589 40.5893 42.5572 40.3596 42.6724 40.2482C42.8994 40.0219 44.1531 38.8532 44.3021 38.3803C44.3191 38.3162 44.336 38.2655 44.3665 38.2182C44.3665 38.1709 44.3835 38.1202 44.4004 38.0561C44.4648 37.8467 44.5292 37.5528 44.7087 36.9516C44.7257 36.8874 44.7426 36.7894 44.7731 36.7084C44.8375 36.4314 44.9188 36.124 45.034 35.7491C45.0984 35.489 45.1628 35.2796 45.2136 35.1006C45.261 34.9216 45.2949 34.7764 45.3423 34.6446C45.3762 34.5467 45.3898 34.4656 45.4237 34.3845C45.4237 34.3508 45.4237 34.3373 45.4406 34.3035C45.4745 34.2055 45.488 34.1245 45.5219 34.0603C45.5558 33.9961 45.5863 33.9319 45.6202 33.8644C45.6541 33.8171 45.6846 33.7664 45.7184 33.7191C45.8167 33.557 45.9455 33.3611 46.1759 33.02C46.9077 31.9324 47.4939 31.527 48.5375 30.2604C48.6019 30.1793 48.6832 30.0814 48.7476 29.9834C48.9441 29.7402 49.1372 29.3991 49.3338 29.0107C50.0182 27.5481 50.5231 25.356 50.6688 24.0894C50.7162 23.701 50.7331 23.4071 50.7026 23.245C50.6857 23.1301 50.6857 23.0187 50.7026 22.8565C50.7501 22.5796 50.8483 22.2553 50.9805 21.9142C51.0279 21.7858 51.0957 21.6541 51.1431 21.5392C51.2075 21.394 51.2719 21.2319 51.3532 21.0698C51.4006 20.9718 51.4345 20.8907 51.482 20.8097C51.5158 20.7286 51.5633 20.6475 51.5972 20.5665C51.631 20.5023 51.6785 20.4212 51.7124 20.3571C51.8919 20.0159 52.0207 19.7896 52.0207 19.7896C52.102 20.3098 52.1664 20.8299 52.2172 21.3163C52.2342 21.4447 52.2342 21.5595 52.2511 21.6744C52.2985 22.1439 52.3155 22.583 52.3324 23.022C52.3494 23.2484 52.3663 23.4915 52.3663 23.7212C52.3765 24.6197 52.3595 25.481 52.2613 26.2747Z" stroke="black" stroke-width="1.8383" stroke-miterlimit="10"/>
<path d="M44.7663 21.3164C42.8519 23.6876 39.7212 23.4646 37.39 22.8465C37.4374 22.752 37.4849 22.6439 37.5459 22.5493C38.0202 21.6238 38.5928 20.7456 39.2942 19.9856C39.0435 19.9147 38.7928 19.8201 38.5556 19.7121C38.5454 19.7121 38.5454 19.7121 38.5454 19.7121C38.2845 19.6276 38.0439 19.5465 37.844 19.4621C37.4273 20.2086 36.9055 21.1949 36.4514 22.2149C36.404 22.3095 36.3667 22.4041 36.3193 22.4986C35.8788 22.3433 35.5095 22.1913 35.2012 22.0595C35.2486 21.965 35.2859 21.8704 35.3435 21.7758C35.9635 20.4822 36.7361 19.4756 37.5696 18.6785C37.5696 18.665 37.5933 18.6548 37.5933 18.6548C39.118 17.2193 40.8291 16.5202 42.1506 16.2466H42.1878C42.5673 16.1621 42.9265 16.1283 43.2247 16.1148C43.4381 16.1047 43.6651 16.1047 43.8786 16.1283C44.0819 16.1419 44.2716 16.1655 44.4614 16.1993C45.7286 17.2599 46.7044 18.9217 44.7663 21.3164Z" fill="#1E1E1E"/>
<path d="M43.5872 19.2423C42.4453 20.6643 40.1345 20.2387 38.5522 19.7152C38.542 19.7152 38.542 19.7152 38.542 19.7152C38.2811 19.6307 38.0406 19.5497 37.8406 19.4652C37.6136 19.3707 37.4239 19.2862 37.268 19.2288C37.3527 19.0397 37.4578 18.8505 37.5662 18.6816C37.5662 18.6681 37.5899 18.658 37.5899 18.658C38.7453 16.807 40.8969 16.3679 42.1472 16.2497H42.1844C42.3742 16.226 42.5402 16.226 42.6859 16.2125C42.9129 16.199 43.1603 16.226 43.4008 16.2598C44.1361 16.8813 44.7053 17.8406 43.5872 19.2423Z" fill="black"/>
<path d="M59.58 8.42004C59.4682 8.76119 59.2818 9.07531 59.004 9.35228C58.9667 9.40632 58.9193 9.45361 58.8549 9.50765C58.8176 9.55494 58.7634 9.5921 58.716 9.61912C58.5228 9.79476 58.2992 9.92311 58.0485 10.0346C58.0383 10.0346 58.0383 10.0346 58.0383 10.0346C57.8824 10.1089 57.713 10.1731 57.5368 10.2203C57.3607 10.2676 57.1946 10.3115 57.0286 10.3419C56.046 10.5446 55.1955 10.5176 54.4535 10.3791C54.5077 10.2879 54.5551 10.1866 54.5924 10.0852C54.8431 9.47725 54.8533 8.76457 53.6471 8.95034C53.6471 8.95034 53.5183 9.23744 53.3421 9.70018C53.315 9.79138 53.2777 9.88595 53.2405 9.98728C52.8136 9.80151 52.4612 9.58196 52.1664 9.35904C52.0749 9.29486 51.9902 9.23068 51.9156 9.16651C51.9631 9.06518 52.0071 8.97398 52.0444 8.86927C52.4137 8.11267 52.9152 7.41012 53.5725 6.79876C53.5827 6.78863 53.5827 6.78863 53.5827 6.78863C53.7216 6.66027 53.8707 6.53868 54.0266 6.42046C54.7212 5.89354 55.4158 5.52538 56.1036 5.29232C56.6965 5.08966 57.2895 4.98833 57.8655 4.9613C58.0214 4.95117 58.1806 4.95117 58.3365 4.95117C58.4652 5.0525 58.5872 5.16397 58.6889 5.27543H58.699C58.7837 5.35987 58.8651 5.44093 58.9294 5.53551C59.0785 5.72128 59.2073 5.90368 59.3191 6.09958C59.3665 6.19078 59.4207 6.29211 59.458 6.38668C59.5054 6.48801 59.5427 6.58934 59.5698 6.68392C59.6071 6.78525 59.6342 6.88658 59.6545 6.98791C59.6816 7.08924 59.6918 7.18044 59.702 7.28514C59.746 7.6702 59.702 8.05863 59.58 8.42004Z" fill="#1E1E1E"/>
<path d="M56.2493 8.19749C54.6974 8.62645 53.6572 8.059 53.1117 7.60639C53.3658 7.02881 53.7419 6.49852 54.2942 6.07631C55.104 5.45481 55.9308 5.2454 56.6965 5.25891C57.8723 6.19453 57.669 7.8023 56.2493 8.19749Z" fill="black"/>
<path d="M30.5185 33.0369C29.9357 31.1555 29.6714 29.1762 29.641 27.1935C29.6071 25.2075 29.8409 23.2045 30.383 21.2623C30.9522 19.3337 31.8772 17.4658 33.2326 15.9459L33.7306 15.375L34.3066 14.8752C34.6997 14.5543 35.0589 14.2064 35.4926 13.9395C36.3464 13.3991 37.3019 13.0005 38.2845 12.8823C37.3764 13.2674 36.5633 13.7909 35.8619 14.4259C35.4993 14.7299 35.2012 15.1116 34.8793 15.4561L34.3981 15.9729L33.9915 16.5505C32.8937 18.0704 32.0941 19.793 31.5791 21.6069C31.0505 23.4207 30.7726 25.3122 30.61 27.2239C30.4575 29.1391 30.444 31.0745 30.5185 33.0369Z" fill="black"/>
<path d="M19.4252 25.5451C18.8323 23.3935 19.0762 20.9886 20.0419 18.9113C20.523 17.871 21.1871 16.9253 21.9563 16.0977C22.7254 15.2668 23.6369 14.5845 24.6229 14.0576C23.9757 14.9797 23.3014 15.814 22.7187 16.7023C22.1359 17.5873 21.6175 18.4925 21.177 19.4349C20.7399 20.3772 20.3841 21.3534 20.1097 22.3701C19.8284 23.3868 19.6455 24.444 19.4252 25.5451Z" fill="black"/>
<path d="M67.4578 20.6675C66.1973 20.9648 64.8928 21.0931 63.585 21.0289C62.9276 21.012 62.2703 20.9073 61.613 20.7689C61.2877 20.6945 60.9658 20.5932 60.6304 20.4818C60.3322 20.3804 60.0645 20.2791 59.7765 20.1947C58.6177 19.8704 57.3844 19.6576 56.1443 19.4752C55.6631 19.4009 55.182 19.3367 54.6907 19.2624H54.6805C54.4399 19.2253 54.1994 19.1982 53.9588 19.1611C53.7453 19.1239 53.5319 19.0969 53.3184 19.0598H53.3082C53.0948 19.0226 52.8813 18.9854 52.6611 18.9483C52.5967 18.9382 52.5323 18.9213 52.4679 18.9111C52.4307 18.901 52.4036 18.901 52.3663 18.8942C52.5222 18.8571 52.6814 18.8301 52.8373 18.803C52.8644 18.803 52.8915 18.7929 52.922 18.7929C54.0164 18.5903 55.1074 18.5058 56.2222 18.5159H56.3509C56.7304 18.5261 57.1099 18.5328 57.4894 18.5632H57.4996C57.5097 18.5632 57.5097 18.5632 57.5165 18.5734C57.7842 18.5835 58.0553 18.6105 58.3229 18.6477C58.926 18.722 59.5292 18.8402 60.1221 19.0091C60.4474 19.1104 60.7794 19.232 61.0776 19.3401C61.3453 19.4516 61.6333 19.5428 61.9213 19.6373C62.4973 19.8231 63.097 19.9413 63.7002 20.0731C64.9166 20.2994 66.177 20.4446 67.4578 20.6675Z" fill="black"/>
<path d="M34.6827 10.8657C34.9809 9.90648 35.5468 9.04179 36.1973 8.27168C36.8479 7.49482 37.6204 6.82942 38.4336 6.23157C39.2536 5.64048 40.1413 5.15071 41.0561 4.73526C41.5102 4.52247 41.9879 4.36372 42.4555 4.1847C42.94 4.04621 43.4178 3.90097 43.9023 3.78613C43.4652 4.03946 43.018 4.2455 42.5809 4.48193C42.1506 4.7285 41.7135 4.94805 41.2865 5.19462C40.8698 5.4547 40.4327 5.67425 40.0295 5.9546C39.6127 6.20792 39.2095 6.48152 38.8165 6.76862C38.027 7.33269 37.2714 7.95081 36.57 8.62296C35.8856 9.30863 35.2147 10.0213 34.6827 10.8657Z" fill="black"/>
<path d="M51.5294 3.28955C50.5739 3.93469 49.7573 4.72844 49.083 5.61001C48.4189 6.49834 47.887 7.47787 47.5854 8.53508C47.5007 8.79516 47.4566 9.06875 47.3923 9.33559C47.3177 9.60242 47.294 9.87602 47.2669 10.153C47.2432 10.4266 47.1856 10.7002 47.189 10.9805C47.1924 11.2575 47.1924 11.5378 47.189 11.8148C47.172 12.0951 47.2161 12.3721 47.2398 12.6525L47.3143 13.4969C47.3923 14.0576 47.521 14.6115 47.5956 15.1891C47.3719 14.6622 47.1754 14.1184 46.9823 13.5678C46.8671 13.0004 46.6841 12.4397 46.6468 11.852C46.491 10.6867 46.6163 9.48758 46.9213 8.33917C47.6057 6.05249 49.3575 4.10357 51.5294 3.28955Z" fill="black"/>
<path d="M82.5324 23.6436C82.922 25.3189 82.6848 27.1023 82.1359 28.7574C81.5565 30.4124 80.5536 31.9256 79.2897 33.1517C78.9984 33.4861 78.6358 33.7394 78.3071 34.0367C78.1377 34.1785 77.9717 34.3271 77.7989 34.4589L77.2534 34.8304C76.8841 35.0668 76.5384 35.3472 76.1488 35.5499L74.9968 36.1815C74.2344 36.6071 73.4991 36.9516 72.7673 37.367C72.0557 37.8028 71.3238 38.2115 70.6496 38.7046C69.2502 39.6166 67.9593 40.6907 66.7293 41.8222C65.4756 42.9368 64.3711 44.2001 63.2936 45.487C62.233 46.7874 61.2538 48.1655 60.3864 49.6145C59.4919 51.05 58.7397 52.57 58.0824 54.1473C58.9193 50.8372 60.4745 47.6825 62.5176 44.9026C64.5439 42.1025 67.0648 39.6368 69.9448 37.6812C70.653 37.1745 71.4187 36.7591 72.1641 36.3132C72.9197 35.9011 73.7295 35.5127 74.4716 35.1344C75.9828 34.4386 77.3686 33.5233 78.6189 32.4525C79.8522 31.3649 80.8856 30.0442 81.5667 28.531C82.2782 27.0347 82.6408 25.3459 82.5324 23.6436Z" fill="black"/>
<path d="M70.3514 51.8675C70.1515 51.3574 70.1413 50.9048 70.1922 50.486C70.2498 50.0672 70.3819 49.6787 70.575 49.3274C70.7682 48.9728 71.0291 48.6553 71.3577 48.3885C71.6898 48.1216 72.0828 47.8987 72.625 47.7974C72.7232 48.3412 72.6826 48.76 72.608 49.1586C72.5233 49.5504 72.3912 49.905 72.2082 50.2327C72.0252 50.5603 71.7914 50.8609 71.5 51.1379C71.2019 51.4115 70.8597 51.6648 70.3514 51.8675Z" fill="black"/>
<path d="M81.753 37.4854C79.4727 39.5525 77.0433 41.4845 74.5258 43.2375C73.3399 44.1022 72.3776 45.2101 71.6322 46.4902C71.2527 47.1286 70.8969 47.7906 70.5276 48.4763C70.3446 48.8174 70.1447 49.162 69.9346 49.5031C69.8296 49.6754 69.711 49.8443 69.5992 50.0131L69.2807 50.4793C67.5459 52.9889 65.9127 55.6066 63.8391 57.9709C63.5748 58.2648 63.3003 58.5519 62.9886 58.8255C62.6871 59.0923 62.4194 59.3153 62.1382 59.5753C61.5893 60.0854 61.0708 60.6359 60.5795 61.2135C59.5969 62.3619 58.7058 63.6083 58.0824 65.0168C58.4449 63.5137 59.2208 62.1255 60.095 60.842C60.5423 60.2036 61.0302 59.5889 61.5554 59.0045C61.8095 58.714 62.1178 58.4269 62.3753 58.1669C62.6261 57.9203 62.8666 57.6332 63.0971 57.3427C64.0153 56.1605 64.8759 54.8973 65.7094 53.6205L68.2507 49.7801L68.5895 49.3005C68.6911 49.1485 68.7962 49.0066 68.8944 48.8512C69.091 48.5439 69.2807 48.223 69.4637 47.892C69.8364 47.2333 70.2023 46.5409 70.6326 45.8755C71.4865 44.5413 72.6046 43.2949 73.9769 42.4472C76.6062 40.836 79.1508 39.1505 81.753 37.4854Z" fill="black"/>
<path d="M69.8432 15.7363C69.9685 16.3984 69.7957 17.1144 69.4433 17.7156C69.091 18.327 68.5353 18.8033 67.9322 19.141C67.3257 19.4889 66.6548 19.6679 65.9873 19.7828C65.6518 19.8166 65.3164 19.8503 64.9809 19.8571C64.6455 19.8436 64.3101 19.8301 63.978 19.7862C64.3033 19.6916 64.6252 19.624 64.9437 19.5531L65.8822 19.3065C66.4887 19.1039 67.0952 18.9147 67.6272 18.5972C68.7149 18.023 69.5653 17.0469 69.8432 15.7363Z" fill="black"/>
<path d="M66.3634 15.7363C65.8484 15.966 65.4011 16.2633 65.0114 16.6044C64.8217 16.78 64.6353 16.9591 64.4829 17.1617L63.9678 17.8001C63.6053 18.2189 63.219 18.6513 62.7074 18.9654C62.2127 19.293 61.552 19.418 61.0166 19.2255C61.5825 19.1478 62.0399 18.9181 62.4228 18.5736C62.8057 18.2324 63.1445 17.8237 63.4901 17.4049C63.6697 17.1989 63.8459 16.9861 64.039 16.78C64.2457 16.5673 64.4727 16.3747 64.7234 16.2227C65.2215 15.9052 65.7941 15.7161 66.3634 15.7363Z" fill="black"/>
<path d="M81.5328 40.7752C81.3362 41.5216 81.0618 42.5451 80.7501 43.2105C80.1978 44.3623 80.4248 48.1452 80.2283 51.2459C80.0182 54.3467 76.9043 55.387 74.4139 57.042C69.2197 65.8409 64.5438 66.7191 61.596 68.2762C58.6312 69.8198 56.2865 73.5521 50.0656 76.6528C43.8447 79.7535 39.4771 78.0478 35.7331 77.4331C32.0026 76.8149 29.2004 80.0643 22.3459 77.4331C3.82542 67.6412 5.06554 54.1507 5.22818 49.6348C-2.98167 34.8744 -0.277809 26.0586 4.88596 20.8638C4.5268 22.5864 4.28285 24.3867 4.36417 26.0417C4.4116 27.0652 4.59118 28.0211 4.9334 28.8655C4.9334 28.8993 4.95034 28.9297 4.96728 28.9465C5.06554 29.2235 5.1943 29.4971 5.35694 29.7437C5.40437 29.8247 5.4552 29.9058 5.51958 29.9869C5.56701 30.0679 5.61784 30.149 5.68222 30.2301C6.00749 30.6692 6.36665 31.0407 6.73937 31.3514C7.34248 31.8885 7.99304 32.2769 8.64359 32.5539C8.90449 32.6687 9.16539 32.7633 9.42629 32.8309C9.62281 32.895 9.81594 32.9457 10.0125 32.9761C10.8595 33.1551 11.6727 33.172 12.408 33.1213H12.4724C12.6689 33.1045 12.862 33.0876 13.0416 33.0572C13.2517 33.0403 13.4482 32.993 13.6447 32.9592C14.0039 32.895 14.3292 32.814 14.5901 32.7498C15.0475 32.6215 15.3558 32.4897 15.471 32.4559C15.2745 32.6012 14.6714 33.0234 14.0717 33.6753C13.9734 33.7732 13.8921 33.8712 13.8108 33.9691C12.5063 35.4959 11.3678 38.046 14.1055 40.9981C18.5679 45.8687 22.085 48.5472 23.2438 52.3808C23.9757 54.833 22.9998 56.7009 23.4877 58.6633C23.5216 58.8086 23.5691 58.9572 23.6165 59.1024C23.9113 59.9299 24.511 60.7913 25.619 61.7167C25.7986 61.8958 26.0086 62.0579 26.239 62.22C26.5643 62.4632 26.9065 62.6895 27.2318 62.9023C27.5097 63.0982 27.8011 63.2772 28.0789 63.4225C28.1433 63.4562 28.1941 63.4866 28.2415 63.5204C28.5363 63.6825 28.8108 63.8278 29.0886 63.9595C29.1225 63.9764 29.136 63.9933 29.1699 63.9933C29.3631 64.0879 29.5528 64.1622 29.7459 64.2399C29.9187 64.3108 30.0915 64.3783 30.261 64.4391C30.4846 64.5168 30.7116 64.5945 30.9318 64.6587C31.2266 64.7398 31.5011 64.8208 31.762 64.8681C32.3312 64.9829 32.87 65.0302 33.3748 65.0302C33.7984 65.0302 34.188 64.9965 34.5641 64.9323C35.1977 64.8174 35.7873 64.5911 36.2921 64.3007C36.6818 64.0744 37.041 63.7974 37.3493 63.4731C37.7389 63.7501 38.1489 63.9764 38.586 64.1385C39.1553 64.3479 39.7414 64.4324 40.2802 64.3479C40.4089 64.3311 40.5411 64.3142 40.6698 64.2669C41.3543 64.071 41.9404 63.6184 42.2996 62.8381C42.3809 62.6422 42.4622 62.4159 42.5266 62.1896C42.5605 62.0613 42.5741 61.9464 42.591 61.8147C42.6384 61.5546 42.6723 61.2776 42.6723 60.9703C42.7536 57.14 42.7536 57.14 42.7536 57.14C42.7536 57.14 43.2924 60.5649 45.2135 63.2603C45.3423 63.4394 45.4914 63.6353 45.654 63.8109C46.5994 64.9627 47.87 65.9051 49.4964 66.2462C49.886 66.3273 50.2452 66.3746 50.6043 66.4252C51.2549 66.4894 51.858 66.4894 52.4272 66.4421C52.6068 66.4252 52.7695 66.4083 52.949 66.3779C53.5183 66.3138 54.057 66.182 54.528 66.0199C54.755 65.9557 54.9685 65.8747 55.1616 65.7936C56.8727 65.1113 57.8485 64.1216 58.045 63.9257C58.062 63.892 58.0789 63.8784 58.0789 63.8784C58.0789 63.8784 58.062 63.8784 58.045 63.8953C57.9468 63.9291 57.6554 64.0237 57.2149 64.1048C57.0997 64.1385 56.971 64.152 56.8388 64.1689C56.8049 64.1689 56.7744 64.1858 56.7236 64.1858C56.1781 64.2466 55.5072 64.2432 54.8058 64.1115C54.755 64.1014 54.7076 64.0912 54.6567 64.0811C54.4873 64.044 54.3213 64.0034 54.1485 63.946C53.9113 63.8717 53.6707 63.7805 53.4336 63.6657C53.4336 63.6657 53.4336 63.6825 53.4166 63.6657C53.3014 63.6184 53.1727 63.5508 53.0575 63.4698C52.9863 63.4258 52.9118 63.3617 52.8406 63.311C52.8033 63.2874 52.7661 63.2671 52.7322 63.2401C52.617 63.159 52.5221 63.0779 52.4069 62.9969C51.9664 62.622 51.5429 62.1187 51.1702 61.4871C51.0245 61.227 50.8754 60.95 50.7466 60.6426C50.6653 60.4636 50.584 60.2846 50.5196 60.0921C50.4552 59.8962 50.3909 59.7036 50.3231 59.4909C50.1943 59.0686 50.0961 58.6127 49.9978 58.1094C49.9165 57.6061 49.8352 57.0859 49.7878 56.5016C49.7708 56.2922 49.7539 56.0794 49.7403 55.87C49.7234 55.4816 49.7064 55.0729 49.7064 54.6506C49.886 54.8938 50.0656 55.1539 50.2587 55.3971C50.584 55.8024 50.9262 56.2078 51.3023 56.5658C51.5124 56.7921 51.7428 57.0049 51.9698 57.1974C52.4577 57.6365 52.9626 58.0249 53.4844 58.3492C53.7114 58.5113 53.9554 58.6566 54.2027 58.7883C55.0159 59.2105 55.8325 59.5044 56.6118 59.6158C56.8219 59.6496 57.0353 59.6631 57.2454 59.6631C58.1569 59.6631 59.0039 59.3693 59.7053 58.6903C59.8849 58.5113 60.095 58.3323 60.3084 58.1533C61.4977 57.1805 63.0597 56.2382 64.5438 55.3431C64.5438 55.3431 64.5607 55.3431 64.5607 55.3262C64.9504 55.0999 65.3434 54.8567 65.7162 54.627C66.1736 54.35 66.5971 54.0899 66.9868 53.8299C67.0037 53.813 67.0037 53.813 67.0037 53.813C67.6373 53.3908 68.1761 52.9686 68.5657 52.5632C68.6301 52.4991 68.7114 52.4349 68.7622 52.3538C68.8097 52.3065 68.8605 52.239 68.9079 52.1748C68.9554 52.1106 69.0062 52.0465 69.0367 51.9654C69.0706 51.9316 69.0841 51.8843 69.1011 51.8505C69.1993 51.6546 69.3959 51.3642 69.6534 51.023C69.816 50.8271 69.9956 50.6008 70.2057 50.3576C70.2057 50.3407 70.2226 50.3238 70.2226 50.3238C70.8427 49.6078 71.6559 48.7161 72.6181 47.7737C75.1966 45.254 78.6798 42.285 81.5328 40.7752Z" fill="black"/>
<path d="M42.2217 41.258C42.2421 41.1702 42.4453 40.4744 42.669 40.2515C42.8994 40.0218 44.1463 38.8599 44.3021 38.387C44.458 37.9276 44.458 37.7655 45.0306 35.7558C45.5965 33.7325 45.3932 34.202 46.1691 33.0367C46.9484 31.8681 47.5719 31.483 48.7544 30.007C49.9301 28.5343 50.8416 24.1096 50.6857 23.2584C50.5298 22.4005 52.0139 19.7861 52.0139 19.7861C54.545 36.5698 42.5639 41.133 42.2217 41.258Z" fill="black"/>
<path d="M52.3121 9.07909C52.2646 9.12638 52.2477 9.20745 52.1969 9.275C52.1799 9.29189 52.1799 9.32229 52.163 9.33918V9.35606C52.1291 9.45402 52.0817 9.55197 52.0478 9.66343C52.3561 9.87285 52.7153 10.0856 53.1219 10.2815C53.1693 10.1836 53.2032 10.0856 53.2371 9.97418C53.271 9.87623 53.3184 9.77827 53.3354 9.69721C52.9321 9.5013 52.5899 9.29189 52.3121 9.07909ZM59.17 5.32988C58.9904 5.31299 58.8447 5.28259 58.699 5.2657C58.7804 5.34677 58.8617 5.44472 58.9261 5.52578C59.0887 5.72169 59.2208 5.9007 59.3157 6.09323C59.3631 6.19118 59.4309 6.28914 59.4614 6.38709C59.5088 6.48504 59.5427 6.58299 59.5766 6.68095C59.6105 6.7789 59.641 6.87685 59.6579 6.98831C59.6918 7.08627 59.6918 7.16733 59.7054 7.28217C59.7528 7.6706 59.7054 8.06241 59.5766 8.41707C59.4614 8.75822 59.2818 9.08247 59.0074 9.35944C58.9735 9.40673 58.9261 9.45739 58.8617 9.50468C58.8278 9.55197 58.7634 9.60263 58.716 9.61952C58.5195 9.78165 58.3094 9.91338 58.0485 10.0417C57.8858 10.1059 57.7063 10.1701 57.5436 10.2207C57.364 10.268 57.2014 10.3018 57.0388 10.3491C56.0629 10.545 55.1989 10.5112 54.4637 10.3829C54.4162 10.4471 54.3823 10.5112 54.3485 10.5788C54.3315 10.6126 54.3146 10.6261 54.2841 10.6767C55.2125 10.8726 56.3204 10.8861 57.6216 10.5146C58.8752 10.1735 59.7223 9.31215 59.9663 8.17726C60.1628 7.19773 59.868 6.15741 59.17 5.32988ZM65.3266 10.0721C64.7065 8.86968 63.4223 6.38709 61.1894 5.65751C61.1556 5.62373 61.1251 5.62373 61.0742 5.61022C60.976 5.4481 60.8472 5.25219 60.6676 5.07317L60.6202 5.02589L60.5389 4.99211C60.1323 4.87727 59.7392 4.78269 59.3326 4.73203C58.9904 4.66785 58.6651 4.65096 58.3399 4.65096H58.2416L57.4284 4.61719L57.5097 4.66448L57.8689 4.95833L58.1467 5.18464C58.1637 5.20153 58.2111 5.23192 58.2281 5.24881C59.1226 6.01217 59.5461 7.066 59.3665 8.04215C59.17 8.95074 58.4856 9.63303 57.4454 9.91C56.3543 10.2343 55.409 10.2343 54.5958 10.089C54.5619 10.187 54.5145 10.2849 54.467 10.3829C54.4196 10.4471 54.3857 10.5112 54.3518 10.5788C54.3349 10.6126 54.318 10.6261 54.2875 10.6767C55.2159 10.8726 56.3238 10.8861 57.6249 10.5146C58.8786 10.1735 59.7257 9.31215 59.9696 8.17726C60.1662 7.20449 59.8714 6.16416 59.17 5.33663C59.3665 5.35352 59.5292 5.40081 59.7087 5.4177C59.8883 5.46498 60.0679 5.51565 60.2475 5.57982C60.2644 5.57982 60.2644 5.57982 60.2814 5.57982C60.4101 5.72506 60.5253 5.87368 60.5897 6.00203L60.6371 6.13039L60.7828 6.16416C62.8531 6.73161 64.0729 9.00479 64.7404 10.2883C64.7065 12.5784 63.5036 15.7264 58.062 18.0806C57.5572 18.2596 57.0049 18.4049 56.4018 18.5197H56.3543C56.2391 18.5535 56.1443 18.5535 56.0291 18.5839C54.7923 18.6176 53.6505 18.7291 52.9186 18.7933C52.9016 18.7933 52.8712 18.8102 52.8373 18.8102C52.5933 18.8271 52.3968 18.8575 52.2511 18.8743C52.2172 18.7764 52.1867 18.6784 52.1359 18.5501C52.1189 18.469 52.1189 18.4049 52.0885 18.3407C52.0546 18.1785 52.0071 17.9995 51.9597 17.8036C51.8953 17.5098 51.814 17.172 51.7632 16.7971C51.7293 16.6822 51.7157 16.5877 51.6988 16.4728C51.5023 15.3379 51.3735 13.9565 51.4718 12.5446C51.4718 12.4466 51.4887 12.3487 51.5057 12.2507C51.5057 12.1359 51.5057 12.0244 51.5396 11.9096C51.5396 11.7137 51.587 11.5516 51.6039 11.3725C51.6378 11.1935 51.6683 11.0145 51.7191 10.8355C51.7361 10.6902 51.7666 10.5416 51.8174 10.4133C51.8987 10.1532 51.9631 9.91 52.0613 9.66681C52.3697 9.87623 52.7288 10.089 53.1354 10.2849C53.1829 10.187 53.2168 10.089 53.2506 9.97756C53.2845 9.8796 53.332 9.78165 53.3489 9.70059C52.9423 9.50468 52.6001 9.29527 52.3222 9.08247C52.2579 9.0183 52.1935 8.96763 52.1257 8.92034L52.0613 8.87306L51.8343 8.66364H51.8005L51.6378 9.03856C51.2482 9.93027 51.0178 10.8895 50.9059 11.8319C50.8721 12.2203 50.8416 12.5953 50.8246 12.9668C50.7907 13.7302 50.8246 14.4766 50.889 15.1758C50.9059 15.3041 50.9229 15.4359 50.9229 15.5507C51.0516 16.6721 51.2651 17.628 51.4447 18.2934C51.4616 18.4217 51.5091 18.5366 51.526 18.6345C51.5429 18.6818 51.5599 18.7494 51.5599 18.7798C51.5768 18.8271 51.5938 18.8777 51.5938 18.925C51.6412 19.0534 51.6751 19.1513 51.692 19.2189C51.7259 19.283 51.7259 19.3168 51.7259 19.3337L51.7903 19.5127L51.8072 19.5296V19.5938L52.0681 19.5296C52.0681 19.5296 52.1156 19.5296 52.1833 19.5296H52.1799C52.2443 19.5127 52.3256 19.4958 52.4239 19.4823C52.8644 19.435 53.6776 19.3371 54.6703 19.2729H54.6873C55.1108 19.256 55.5513 19.2256 56.0223 19.2256L56.0867 19.2087C56.8863 19.0804 57.6182 18.9014 58.2857 18.6717C58.2857 18.6717 58.3026 18.6548 58.3195 18.6548C63.8899 16.2364 65.2588 12.9398 65.357 10.5045V10.1464L65.3266 10.0721ZM52.3121 9.07909C52.2646 9.12638 52.2477 9.20745 52.1969 9.275C52.1799 9.29189 52.1799 9.32229 52.163 9.33918V9.35606C52.1291 9.45402 52.0817 9.55197 52.0478 9.66343C52.3561 9.87285 52.7153 10.0856 53.1219 10.2815C53.1693 10.1836 53.2032 10.0856 53.2371 9.97418C53.271 9.87623 53.3184 9.77827 53.3354 9.69721C52.9321 9.5013 52.5899 9.29189 52.3121 9.07909ZM59.17 5.32988C58.9904 5.31299 58.8447 5.28259 58.699 5.2657C58.7804 5.34677 58.8617 5.44472 58.9261 5.52578C59.0887 5.72169 59.2208 5.9007 59.3157 6.09323C59.3631 6.19118 59.4309 6.28914 59.4614 6.38709C59.5088 6.48504 59.5427 6.58299 59.5766 6.68095C59.6105 6.7789 59.641 6.87685 59.6579 6.98831C59.6918 7.08627 59.6918 7.16733 59.7054 7.28217C59.7528 7.6706 59.7054 8.06241 59.5766 8.41707C59.4614 8.75822 59.2818 9.08247 59.0074 9.35944C58.9735 9.40673 58.9261 9.45739 58.8617 9.50468C58.8278 9.55197 58.7634 9.60263 58.716 9.61952C58.5195 9.78165 58.3094 9.91338 58.0485 10.0417C57.8858 10.1059 57.7063 10.1701 57.5436 10.2207C57.364 10.268 57.2014 10.3018 57.0388 10.3491C56.0629 10.545 55.1989 10.5112 54.4637 10.3829C54.4162 10.4471 54.3823 10.5112 54.3485 10.5788C54.3315 10.6126 54.3146 10.6261 54.2841 10.6767C55.2125 10.8726 56.3204 10.8861 57.6216 10.5146C58.8752 10.1735 59.7223 9.31215 59.9663 8.17726C60.1628 7.19773 59.868 6.15741 59.17 5.32988Z" fill="black"/>
<path d="M50.2588 18.9183L50.0961 18.7731C50.0792 18.7562 50.0487 18.7258 49.9809 18.692C49.6387 18.415 49.2796 18.155 48.9068 17.9118C48.7273 17.7665 48.5307 17.6517 48.3207 17.5233C48.0767 17.3781 47.8158 17.216 47.5549 17.0673L47.538 17.0505C47.521 17.0505 47.4905 17.0505 47.4905 17.0336C47.3448 16.9356 47.1822 16.8545 47.0196 16.7904C46.8569 16.7093 46.6773 16.6114 46.5147 16.5472L46.3995 16.4999C46.2843 16.4526 46.1894 16.4019 46.0573 16.3547L45.976 16.3209H45.959C45.8133 16.2567 45.6812 16.206 45.5524 16.1756C45.3728 16.1283 45.2102 16.0608 45.0306 16.0304C44.851 15.9831 44.6884 15.9324 44.5088 15.9156L43.3365 15.6724L43.8752 16.1283L44.2513 16.4357C45.8811 17.8003 45.9794 19.327 44.5292 21.1104C42.7537 23.3498 39.7889 23.1404 37.5425 22.5561C37.495 22.6371 37.4442 22.752 37.3968 22.8499C37.3493 22.931 37.2985 23.0289 37.268 23.11C39.6941 23.7754 42.9841 24.0355 45.0205 21.5022C46.3893 19.7965 46.535 18.2056 45.4779 16.7938C45.5761 16.841 45.6744 16.8748 45.7862 16.9221V16.939H45.8506C45.9489 16.9728 46.0471 17.0201 46.1454 17.0673L46.2606 17.1146C46.4063 17.1788 46.5859 17.2599 46.7654 17.3409C46.8942 17.4051 47.0433 17.5031 47.2059 17.5841C47.4838 17.7125 47.7447 17.878 48.0056 18.0536C48.5443 18.3779 49.0966 18.7528 49.6184 19.1581C49.6523 19.2054 49.6997 19.2392 49.7471 19.2865C49.781 19.3203 49.8115 19.3338 49.8285 19.3338C49.8454 19.3675 49.8623 19.3675 49.8759 19.381C49.8928 19.3979 49.9098 19.3979 49.9098 19.4148L50.0385 19.5128H51.3735C50.7535 20.293 49.6455 21.8028 49.5337 22.8094C49.4998 23.0864 49.4998 23.3464 49.5167 23.6065C49.5811 24.8259 49.6455 26.464 46.0302 30.2639C38.7182 37.2793 35.4756 36.0769 34.9233 35.783C33.7984 30.2943 33.961 25.8121 35.3807 22.4682C35.6247 22.5662 35.9025 22.6777 36.1939 22.7756C36.2414 22.6777 36.2922 22.5966 36.3227 22.4986C36.3701 22.4007 36.404 22.3027 36.4514 22.2048C36.0279 22.0595 35.6383 21.8974 35.3435 21.7657L35.0487 21.6508L34.9199 21.9278C33.324 25.4507 33.1275 30.2099 34.3507 36.0364L34.3676 36.1512L34.449 36.2154C34.5133 36.2627 35.0521 36.6714 36.2244 36.6714C38.0168 36.6714 41.2899 35.6817 46.4707 30.6794C49.7946 27.2037 50.1673 25.4034 50.1673 24.1199C50.1673 23.924 50.1673 23.7619 50.1503 23.5829C50.1334 23.3228 50.1165 23.0965 50.1503 22.8837C50.2486 21.9244 51.5667 20.2221 52.1698 19.506H52.1799C52.1969 19.4587 52.2274 19.425 52.2443 19.4081L52.3731 19.2797L52.4205 19.1987H52.4375L52.4849 19.1345H52.5018L52.6475 18.9386L52.6645 18.9217L52.6984 18.9048H50.2588V18.9183Z" fill="black"/>
<path d="M38.542 19.7154C38.2811 19.631 38.0406 19.5499 37.8406 19.4655C37.8542 19.4418 37.8644 19.4182 37.8779 19.3945C38.0778 19.5026 38.2913 19.6073 38.542 19.7154Z" fill="white"/>
<path d="M128.152 27.7644C128.152 31.7197 127.112 34.9251 125.028 37.3773C122.799 39.9747 119.722 41.2751 115.805 41.2751C115.148 41.2751 114.162 41.238 112.841 41.1637C111.519 41.0894 110.533 41.0522 109.876 41.0522C109.171 41.0522 108.819 41.3562 108.819 41.9608C108.819 42.714 108.893 43.832 109.039 45.3182C109.188 46.8078 109.259 47.9156 109.259 48.652C109.259 49.0303 109.086 49.216 108.744 49.216C107.745 49.216 106.244 49.189 104.245 49.1316C102.242 49.0742 100.744 49.0472 99.7449 49.0472C99.2705 49.0472 99.0333 48.8107 99.0333 48.3345C99.0333 46.5207 99.0604 43.7949 99.118 40.1571C99.1756 36.5227 99.2027 33.7936 99.2027 31.9798C99.2027 26.8491 98.9825 21.4549 98.5386 15.7973L98.5149 15.4562C98.481 15.1454 98.7284 14.9563 99.2535 14.8921C100.531 14.73 103.353 14.6489 107.714 14.6489C110.289 14.6489 112.756 14.6827 115.118 14.7469C119.004 14.8617 122.135 16.0777 124.513 18.3981C126.939 20.7862 128.152 23.9071 128.152 27.7644ZM118.34 28.1562C118.34 24.3462 116.48 22.4446 112.756 22.4446C110.133 22.4446 108.754 22.5932 108.626 22.8871C108.51 23.0999 108.453 24.988 108.453 28.5514C108.453 29.0581 108.473 29.8045 108.514 30.7942C108.554 31.7839 108.575 32.5303 108.575 33.037C108.575 33.3646 110.052 33.5267 113.003 33.5267C116.561 33.5267 118.34 31.7366 118.34 28.1562Z" fill="white"/>
<path d="M156.709 41.4204C156.709 42.1229 156.57 43.4132 156.292 45.2946C155.997 47.3381 155.733 48.554 155.506 48.9492C155.31 49.26 155.039 49.4153 154.693 49.4153C154.544 49.4153 154.3 49.3917 153.954 49.341C152.758 49.1789 149.265 49.0978 143.478 49.0978C142.214 49.0978 140.337 49.0877 137.846 49.0742C135.353 49.0573 133.486 49.0505 132.239 49.0505C131.697 49.0505 131.425 48.8141 131.425 48.3378C131.425 46.5072 131.527 43.7577 131.734 40.0896C131.937 36.4214 132.042 33.6686 132.042 31.8379C132.042 29.9734 131.944 26.5012 131.747 21.4178C131.7 20.1106 131.608 18.1583 131.476 15.5575L131.453 15.213C131.419 14.8381 131.625 14.6489 132.066 14.6489C133.279 14.6489 135.105 14.6827 137.538 14.7469C139.974 14.8111 141.797 14.8448 143.01 14.8448C144.206 14.8448 146.012 14.8111 148.421 14.7469C150.83 14.6827 152.636 14.6489 153.832 14.6489C154.686 14.6489 155.177 14.9664 155.31 15.6048C155.391 15.9797 155.52 17.1214 155.693 19.023C155.865 20.928 155.95 22.0832 155.95 22.4919C155.95 22.8364 155.787 23.0053 155.459 23.0053C155.36 23.0053 155.188 22.9985 154.944 22.9816C150.583 22.6236 146.663 22.4412 143.186 22.4412C142.315 22.4412 141.784 22.6473 141.587 23.056C141.506 23.2519 141.465 23.8801 141.465 24.9441C141.465 26.0553 141.628 26.7917 141.956 27.1497C142.234 27.4604 142.77 27.6158 143.556 27.6158C143.718 27.6158 144.04 27.6023 144.514 27.5787C144.989 27.555 145.382 27.5415 145.697 27.5415C147.764 27.5415 149.854 27.4841 151.969 27.3692C152.148 27.3524 152.599 27.3118 153.321 27.2477C153.876 27.1835 154.32 27.1497 154.649 27.1497C155.042 27.1497 155.238 27.3388 155.238 27.7138C155.238 27.3692 155.089 28.619 154.795 31.4664C154.662 32.7735 154.598 34.0807 154.598 35.3878C154.598 35.7155 154.361 35.8776 153.887 35.8776L151.674 35.6344C150.739 35.5365 148.608 35.4858 145.28 35.4858H142.675C142.004 35.4858 141.607 35.6479 141.492 35.9756C141.475 36.0566 141.468 36.5633 141.468 37.4955C141.468 38.7385 141.55 39.539 141.716 39.897C141.994 40.5185 143.044 40.8867 144.863 41.0015C144.83 41.0015 146.029 41.0015 148.455 41.0015C149.323 41.0015 150.617 40.9239 152.328 40.7685C154.042 40.6131 155.323 40.5354 156.177 40.5354C156.526 40.5388 156.709 40.8327 156.709 41.4204Z" fill="white"/>
<path d="M189.443 27.7644C189.443 31.7197 188.403 34.9251 186.319 37.3773C184.09 39.9747 181.013 41.2751 177.096 41.2751C176.439 41.2751 175.453 41.238 174.132 41.1637C172.81 41.0894 171.824 41.0522 171.167 41.0522C170.462 41.0522 170.11 41.3562 170.11 41.9608C170.11 42.714 170.184 43.832 170.33 45.3182C170.479 46.8078 170.55 47.9156 170.55 48.652C170.55 49.0303 170.377 49.216 170.035 49.216C169.036 49.216 167.535 49.189 165.536 49.1316C163.533 49.0742 162.035 49.0472 161.036 49.0472C160.561 49.0472 160.324 48.8107 160.324 48.3345C160.324 46.5207 160.351 43.7949 160.409 40.1571C160.467 36.5227 160.494 33.7936 160.494 31.9798C160.494 26.8491 160.273 21.4549 159.83 15.7973L159.806 15.4562C159.772 15.1454 160.019 14.9563 160.545 14.8921C161.822 14.73 164.644 14.6489 169.005 14.6489C171.58 14.6489 174.047 14.6827 176.409 14.7469C180.295 14.8617 183.426 16.0777 185.804 18.3981C188.23 20.7862 189.443 23.9071 189.443 27.7644ZM179.631 28.1562C179.631 24.3462 177.771 22.4446 174.047 22.4446C171.424 22.4446 170.045 22.5932 169.917 22.8871C169.801 23.0999 169.744 24.988 169.744 28.5514C169.744 29.0581 169.764 29.8045 169.805 30.7942C169.845 31.7839 169.866 32.5303 169.866 33.037C169.866 33.3646 171.343 33.5267 174.294 33.5267C177.852 33.5267 179.631 31.7366 179.631 28.1562Z" fill="white"/>
<path d="M218 41.4204C218 42.1229 217.861 43.4132 217.583 45.2946C217.285 47.3381 217.024 48.554 216.794 48.9492C216.597 49.26 216.326 49.4153 215.981 49.4153C215.831 49.4153 215.588 49.3917 215.242 49.341C214.046 49.1789 210.553 49.0978 204.765 49.0978C203.501 49.0978 201.624 49.0877 199.134 49.0742C196.64 49.0573 194.773 49.0505 193.526 49.0505C192.984 49.0505 192.713 48.8141 192.713 48.3378C192.713 46.5072 192.815 43.7577 193.021 40.0896C193.225 36.4214 193.33 33.6686 193.33 31.8379C193.33 29.9734 193.232 26.5012 193.035 21.4178C192.988 20.1106 192.896 18.1583 192.764 15.5575L192.74 15.213C192.706 14.8381 192.913 14.6489 193.353 14.6489C194.567 14.6489 196.393 14.6827 198.826 14.7469C201.262 14.8111 203.085 14.8448 204.298 14.8448C205.494 14.8448 207.296 14.8111 209.709 14.7469C212.118 14.6827 213.92 14.6489 215.12 14.6489C215.974 14.6489 216.465 14.9664 216.597 15.6048C216.679 15.9797 216.804 17.1214 216.977 19.023C217.15 20.9246 217.238 22.0832 217.238 22.4919C217.238 22.8364 217.075 23.0053 216.746 23.0053C216.648 23.0053 216.475 22.9985 216.231 22.9816C211.871 22.6236 207.95 22.4412 204.474 22.4412C203.603 22.4412 203.071 22.6473 202.875 23.056C202.793 23.2519 202.753 23.8801 202.753 24.9441C202.753 26.0553 202.915 26.7917 203.244 27.1497C203.522 27.4604 204.057 27.6158 204.843 27.6158C205.006 27.6158 205.328 27.6023 205.802 27.5787C206.276 27.555 206.67 27.5415 206.985 27.5415C209.048 27.5415 211.139 27.4841 213.256 27.3692C213.436 27.3524 213.887 27.3118 214.608 27.2477C215.167 27.1835 215.608 27.1497 215.937 27.1497C216.33 27.1497 216.526 27.3388 216.526 27.7138C216.526 27.3692 216.38 28.619 216.086 31.4664C215.953 32.7735 215.889 34.0807 215.889 35.3878C215.889 35.7155 215.652 35.8776 215.178 35.8776L212.965 35.6344C212.03 35.5365 209.899 35.4858 206.571 35.4858H203.966C203.295 35.4858 202.898 35.6479 202.783 35.9756C202.766 36.0566 202.759 36.5633 202.759 37.4955C202.759 38.7385 202.841 39.539 203.007 39.897C203.285 40.5185 204.335 40.8867 206.154 41.0015C206.121 41.0015 207.32 41.0015 209.746 41.0015C210.614 41.0015 211.904 40.9239 213.619 40.7685C215.33 40.6131 216.618 40.5354 217.468 40.5354C217.817 40.5388 218 40.8327 218 41.4204Z" fill="white"/>
<path d="M119.959 79.801C119.983 80.1117 119.821 80.2705 119.472 80.2705C119.251 80.2705 118.614 80.1421 117.564 79.8888C116.514 79.6355 115.866 79.4598 115.622 79.3686C113.196 80.3178 110.865 80.7906 108.636 80.7906C105.048 80.7906 102.103 79.5983 99.8025 77.2137C97.5255 74.8628 96.387 71.8939 96.387 68.3068C96.387 64.6386 97.4882 61.592 99.6974 59.1735C101.974 56.6741 104.929 55.4243 108.565 55.4243C110.33 55.4243 111.99 55.7587 113.545 56.4309C115.229 57.1706 116.554 58.2143 117.516 59.5552C117.713 59.8322 117.811 60.0315 117.811 60.1463C117.811 60.5179 117.293 61.3488 116.253 62.639C115.212 63.9293 114.542 64.5744 114.24 64.5744C114.169 64.5744 113.905 64.338 113.44 63.8617C112.871 63.2943 112.292 62.8552 111.699 62.5411C110.814 62.0682 109.839 61.8284 108.771 61.8284C107.03 61.8284 105.647 62.4769 104.624 63.7739C103.672 64.9662 103.198 66.4558 103.198 68.2358C103.198 70.1206 103.692 71.6169 104.678 72.7146C105.701 73.8495 107.145 74.417 109.015 74.417C110.201 74.417 111.523 74.1231 112.986 73.532C112.952 73.1503 112.847 72.1776 112.675 70.6137C112.522 69.4113 112.448 68.4385 112.448 67.6988C112.448 67.4792 112.522 67.3441 112.675 67.3002C112.732 67.2766 112.824 67.2664 112.952 67.2664C113.288 67.2664 113.796 67.3002 114.477 67.361C115.155 67.4252 115.67 67.4556 116.019 67.4556C116.392 67.4556 116.947 67.4286 117.693 67.3779C118.435 67.3272 118.994 67.3002 119.367 67.3002C119.658 67.3002 119.804 67.4894 119.804 67.8744C119.804 68.4284 119.77 69.2694 119.709 70.3908C119.644 71.5122 119.614 72.3532 119.614 72.9072C119.614 74.4001 119.726 76.6361 119.946 79.6085L119.959 79.801Z" fill="white"/>
<path d="M143.163 80.1828C143.163 80.2639 143.047 80.3213 142.814 80.3551C142.373 80.426 141.265 80.4598 139.486 80.4598C137.965 80.4598 136.931 80.426 136.386 80.3551C136.132 80.3213 135.986 80.2909 135.952 80.2673C135.881 80.2335 135.8 80.1153 135.708 79.9194C135.535 79.4667 135.278 78.7946 134.943 77.9029C134.489 76.7443 133.78 75.0386 132.818 72.7823C132.608 72.3297 132.127 72.0832 131.371 72.0359C131.72 72.0595 131.121 72.0696 129.575 72.0696C129.403 72.0696 129.315 72.3635 129.315 72.9546C129.315 73.7416 129.386 74.917 129.531 76.4809C129.677 78.0447 129.748 79.2202 129.748 80.0072C129.748 80.2031 129.697 80.3179 129.592 80.3551C129.43 80.3652 129.267 80.3787 129.104 80.3889C128.42 80.4361 127.353 80.4598 125.899 80.4598C124.239 80.4598 123.239 80.426 122.904 80.3551C122.568 80.2841 122.399 80.1051 122.399 79.818C122.399 78.5446 122.46 76.6227 122.582 74.0523C122.704 71.4819 122.765 69.5533 122.765 68.2698C122.765 63.3721 122.653 59.552 122.433 56.8093L122.416 56.5661C122.406 56.3702 122.589 56.2385 122.965 56.1675C123.341 56.0966 125.116 56.0291 128.288 55.9581C130.436 55.9108 132.151 55.8872 133.428 55.8872C136.078 55.8872 138.236 56.4851 139.91 57.674C141.804 59.0183 142.749 60.9571 142.749 63.4903C142.749 65.1792 142.505 66.5303 142.017 67.5368C141.529 68.5433 140.628 69.5229 139.317 70.472C139.049 70.6578 138.917 70.83 138.917 70.9922C138.917 70.982 139.625 72.4344 141.041 75.3527C142.454 78.2744 143.163 79.8822 143.163 80.1828ZM135.847 64.6084C135.847 63.1965 135.383 62.217 134.455 61.6732C133.733 61.2543 132.608 61.0483 131.076 61.0483C129.972 61.0483 129.386 61.2172 129.318 61.5516C129.247 61.9468 129.213 63.0783 129.213 64.9563C129.213 65.2231 129.22 65.6149 129.23 66.1384C129.24 66.662 129.247 67.047 129.247 67.3004C129.247 67.3578 129.433 67.4152 129.806 67.4726C130.514 67.5773 131.256 67.628 132.035 67.628C134.577 67.628 135.847 66.6215 135.847 64.6084Z" fill="white"/>
<path d="M169.327 68.2021C169.327 71.8129 168.172 74.8427 165.861 77.2847C163.503 79.7639 160.517 81.0002 156.906 81.0002C153.317 81.0002 150.339 79.7504 147.971 77.2509C145.65 74.8089 144.487 71.7926 144.487 68.2021C144.487 64.6015 145.65 61.5752 147.971 59.1196C150.339 56.6066 153.317 55.3501 156.906 55.3501C160.47 55.3501 163.445 56.6066 165.824 59.1196C168.161 61.5988 169.327 64.6252 169.327 68.2021ZM162.727 68.1684C162.727 66.4323 162.198 64.9562 161.141 63.7402C160.036 62.4669 158.627 61.8285 156.909 61.8285C155.272 61.8285 153.883 62.4905 152.745 63.8078C151.64 65.0812 151.091 66.5471 151.091 68.2021C151.091 69.9721 151.606 71.4515 152.643 72.6303C153.734 73.8699 155.157 74.488 156.912 74.488C158.549 74.488 159.945 73.8327 161.093 72.5256C162.181 71.2758 162.727 69.8234 162.727 68.1684Z" fill="white"/>
<path d="M192.723 71.8297C192.723 74.7817 192.367 76.7948 191.659 77.8723C190.358 79.8415 187.112 80.8244 181.921 80.8244C179.577 80.8244 177.771 80.6454 176.503 80.2873C174.484 79.7064 173.169 78.6019 172.566 76.9705C172.265 76.17 172.112 74.748 172.112 72.6977C172.112 72.2215 172.129 71.5155 172.163 70.5799C172.197 69.6409 172.214 68.9417 172.214 68.479C172.214 67.1347 172.149 65.1216 172.021 62.4363C171.892 59.7511 171.831 57.7414 171.831 56.4106C171.831 56.1336 171.953 55.9951 172.197 55.9951C172.905 55.9951 173.976 56.0221 175.412 56.0829C176.846 56.1404 177.916 56.1708 178.625 56.1708C178.916 56.1708 179.062 56.2991 179.062 56.5524C179.062 58.0791 179.011 60.3692 178.913 63.4192C178.814 66.4693 178.763 68.7593 178.763 70.2861C178.763 72.1032 178.953 73.3293 179.339 73.9677C179.851 74.8358 180.918 75.2715 182.545 75.2715C184.927 75.2715 186.116 74.1197 186.116 71.8161C186.116 70.1374 186.075 67.6211 185.994 64.2637C185.913 60.9063 185.872 58.3899 185.872 56.7112C185.872 56.3531 186.018 56.1708 186.309 56.1708C186.994 56.1708 188.027 56.1437 189.41 56.0829C190.792 56.0255 191.825 55.9951 192.51 55.9951C192.845 55.9951 193.015 56.1336 193.015 56.4106C193.015 57.7414 192.96 59.7511 192.849 62.4363C192.737 65.1216 192.683 67.1347 192.683 68.479C192.683 68.8505 192.689 69.4079 192.7 70.1543C192.716 70.9008 192.723 71.4615 192.723 71.8297Z" fill="white"/>
<path d="M217.024 65.2837C217.024 68.0872 216.286 70.3536 214.812 72.0931C213.233 73.9339 211.054 74.8527 208.279 74.8527C207.815 74.8527 207.113 74.8257 206.178 74.775C205.243 74.7243 204.545 74.6973 204.081 74.6973C203.583 74.6973 203.332 74.9135 203.332 75.3391C203.332 75.8727 203.383 76.6665 203.488 77.7169C203.593 78.7708 203.644 79.5578 203.644 80.0779C203.644 80.3448 203.522 80.4765 203.278 80.4765C202.57 80.4765 201.506 80.4562 200.089 80.4157C198.673 80.3752 197.609 80.3549 196.901 80.3549C196.566 80.3549 196.396 80.186 196.396 79.8516C196.396 78.5681 196.417 76.6361 196.457 74.0623C196.498 71.4851 196.518 69.5565 196.518 68.2696C196.518 64.6352 196.362 60.8151 196.047 56.8091L196.03 56.5659C196.007 56.3464 196.183 56.2147 196.552 56.1674C197.457 56.0525 199.456 55.9951 202.546 55.9951C204.369 55.9951 206.117 56.0188 207.791 56.0661C210.542 56.1471 212.762 57.0084 214.446 58.6533C216.164 60.3422 217.024 62.5512 217.024 65.2837ZM210.075 65.5607C210.075 62.8619 208.757 61.5142 206.121 61.5142C204.264 61.5142 203.288 61.6189 203.193 61.825C203.112 61.977 203.071 63.3112 203.071 65.8377C203.071 66.1957 203.085 66.726 203.115 67.4252C203.142 68.1243 203.159 68.6546 203.159 69.0161C203.159 69.2491 204.206 69.364 206.293 69.364C208.811 69.364 210.075 68.0973 210.075 65.5607Z" fill="white"/>
</g>
<defs>
<clipPath id="clip0_1_403">
<rect width="218" height="81" fill="white"/>
</clipPath>
</defs>
</svg>
