<svg width="220" height="85" viewBox="0 0 220 85" fill="none" xmlns="http://www.w3.org/2000/svg">
<g clip-path="url(#clip0_1_547)">
<path d="M218.944 33.4755C216.952 41.1239 209.02 43.4668 206.178 44.9109C203.33 46.3613 198.41 52.2804 197.426 54.5427C196.443 56.7988 195.568 60.7655 192.367 61.7696C189.167 62.7737 188.134 58.6396 189.774 56.9661C191.414 55.2927 193.272 50.8301 194.584 46.3675C195.896 41.8987 204.97 36.2089 211.104 33.2152C217.225 30.2216 214.766 23.007 214.766 23.007C217.304 22.5112 217.717 23.4285 218.13 25.5234C221.167 25.5234 220.183 31.4674 218.944 33.4755Z" fill="#844866"/>
<path d="M218.944 33.4755C218.483 35.3659 217.56 37.1385 216.309 38.6198C215.057 40.1074 213.521 41.3222 211.869 42.3201C210.223 43.3242 208.437 44.0803 206.713 44.8799C205.85 45.2703 205.103 45.8344 204.381 46.4542C203.658 47.074 202.984 47.7558 202.322 48.4499C201.016 49.8507 199.783 51.3382 198.708 52.9187C198.441 53.3154 198.186 53.7183 197.955 54.1273C197.73 54.5364 197.548 54.9641 197.378 55.4227C197.038 56.3215 196.704 57.2512 196.291 58.1437C195.878 59.0362 195.362 59.9101 194.669 60.6477C193.983 61.3915 193.066 61.9307 192.064 62.1538C191.062 62.4327 189.811 61.9803 189.258 61.032C188.681 60.1209 188.56 58.9866 188.857 57.9577L188.997 57.5797C189.058 57.4557 189.124 57.3379 189.191 57.2202C189.325 56.997 189.543 56.7615 189.677 56.6066C189.987 56.2719 190.248 55.8814 190.503 55.4909C191.007 54.6914 191.438 53.836 191.833 52.9621C192.623 51.2081 193.297 49.3982 193.886 47.5574C194.044 47.0988 194.159 46.6401 194.323 46.1691L194.609 45.4501C194.718 45.2208 194.851 45.01 194.973 44.7869C195.094 44.5638 195.228 44.353 195.386 44.1609L195.829 43.5597C196.157 43.194 196.467 42.8035 196.813 42.4626C198.18 41.0619 199.698 39.8471 201.265 38.719C204.405 36.4691 207.769 34.5539 211.207 32.8743C211.608 32.6387 212.033 32.4404 212.379 32.1243C212.555 31.9755 212.756 31.8454 212.92 31.6842L213.399 31.176C213.989 30.457 214.468 29.6327 214.723 28.7154C215.24 26.8931 215.13 24.8912 214.608 23.0689L214.553 22.8768L214.736 22.8458C215.155 22.7714 215.574 22.7157 216.005 22.728C216.43 22.7342 216.898 22.8396 217.256 23.1371C217.62 23.4284 217.809 23.8623 217.942 24.2652C218.076 24.6804 218.155 25.0957 218.234 25.5172L218.137 25.4118C218.531 25.4118 218.938 25.5296 219.254 25.7837C219.576 26.0316 219.795 26.3849 219.928 26.7568C220.202 27.5005 220.226 28.2939 220.189 29.0625C220.141 29.8372 220.007 30.5996 219.813 31.3433C219.6 32.0871 219.345 32.8185 218.944 33.4755ZM218.944 33.4755C219.327 32.8123 219.564 32.0747 219.752 31.3309C219.934 30.5872 220.044 29.8248 220.074 29.0563C220.098 28.2939 220.044 27.5129 219.77 26.8188C219.637 26.4717 219.424 26.1556 219.139 25.9448C218.853 25.7279 218.495 25.6349 218.137 25.6411H218.045L218.027 25.5482C217.942 25.1391 217.845 24.7238 217.711 24.3395C217.578 23.9553 217.396 23.5772 217.086 23.3541C216.788 23.1185 216.394 23.038 215.999 23.038C215.598 23.038 215.197 23.1061 214.796 23.1805L214.924 22.9574C215.495 24.854 215.634 26.8931 215.118 28.8331C214.863 29.8 214.365 30.6987 213.746 31.4735L213.241 32.0251C213.065 32.2049 212.859 32.3412 212.671 32.5024C212.3 32.8433 211.857 33.054 211.432 33.3143C208.018 35.056 204.702 36.9588 201.605 39.2025C200.062 40.3243 198.568 41.5267 197.25 42.8965C196.916 43.2312 196.625 43.6031 196.309 43.9564L195.896 44.5266C195.75 44.7125 195.623 44.9047 195.513 45.1154C195.404 45.3199 195.271 45.5183 195.179 45.7228L194.93 46.3612C194.779 46.8075 194.651 47.2909 194.499 47.7558C193.91 49.6152 193.248 51.4622 192.428 53.241C192.015 54.1335 191.572 55.0075 191.043 55.8442C190.77 56.2595 190.491 56.6747 190.139 57.0466C190.047 57.1458 189.969 57.2326 189.908 57.3131C189.847 57.3999 189.762 57.4619 189.72 57.5673L189.568 57.8462L189.458 58.1499C189.337 58.5652 189.3 59.0176 189.343 59.4577C189.404 59.8977 189.543 60.3254 189.774 60.6849C190.224 61.4286 191.104 61.7633 191.954 61.5526C192.811 61.3667 193.637 60.9018 194.256 60.2324C194.888 59.5692 195.38 58.7511 195.781 57.8896C196.188 57.028 196.509 56.1231 196.862 55.2058C197.032 54.7534 197.226 54.2885 197.475 53.8422C197.724 53.4084 197.991 52.9993 198.271 52.5964C199.394 50.9973 200.651 49.516 201.994 48.1152C202.668 47.4211 203.36 46.7393 204.113 46.1195C204.854 45.4997 205.662 44.9109 206.555 44.5204C208.316 43.7394 210.071 43.0143 211.729 42.066C213.381 41.1238 214.93 39.9586 216.205 38.5207C217.481 37.0889 218.44 35.3535 218.944 33.4755Z" fill="black"/>
<path d="M194.864 5.72094C194.165 5.50401 193.418 5.36765 192.641 5.35526C191.195 5.33046 189.634 5.73953 188.104 6.93576C187.059 7.7539 186.355 8.77658 185.875 9.89842C183.907 14.5222 185.978 20.7512 185.978 20.7512H184.011C184.011 20.7512 184.011 20.7512 184.005 20.745C183.998 20.7388 183.992 20.7264 183.98 20.7202C183.488 20.119 176.881 12.3095 170.443 14.33C167.831 13.4871 161.151 11.8818 156.608 15.644C156.492 15.7432 156.371 15.8423 156.262 15.9415C154.215 15.3837 151.773 14.894 151.773 14.894C151.858 12.6318 150.875 6.60106 159.487 2.08889C168.098 -2.43569 174.828 3.06198 176.14 4.5929C178.022 4.17763 179.905 4.01028 184.588 3.92351C189.276 1.79138 193.455 4.08466 194.864 5.72094Z" fill="#65771C" stroke="black" stroke-width="1.0805" stroke-miterlimit="10"/>
<path d="M218.944 33.4758C216.952 41.1242 209.021 43.467 206.178 44.9112C203.33 46.3615 198.411 52.2807 197.427 54.5429C196.443 56.799 195.568 60.7658 192.368 61.7699C189.167 62.7739 188.135 58.6399 189.774 56.9664C191.414 55.2929 193.273 50.8303 194.584 46.3677C195.896 41.8989 204.97 36.2091 211.104 33.2155C217.226 30.2218 214.766 23.0073 214.766 23.0073C213.539 21.2532 212.634 18.8546 209.731 19.6293C209.021 18.3526 208.693 16.8588 204.757 16.989C203.5 15.2721 202.625 14.8321 202.625 13.6606C202.625 12.4892 200.712 11.5347 199.838 11.2558C199.801 11.1814 199.759 11.1008 199.722 11.0203C199.716 13.5181 198.496 17.1687 192.459 19.8277C191.736 20.0818 190.971 20.2615 190.23 20.3917C190.224 20.3917 190.224 20.3917 190.218 20.3917C188.001 20.7946 185.985 20.745 185.985 20.745C185.985 20.745 183.847 23.2552 183.689 24.6746C183.519 26.1001 184.673 27.7736 179.911 32.887C171.05 41.5952 167.692 38.8247 167.692 38.8247C166.271 31.8333 166.847 27.0422 168.275 23.813C170.467 18.8298 174.67 17.4972 176.717 17.3981C177.142 17.3795 177.585 17.4166 178.022 17.4972C178.199 17.5282 178.369 17.5716 178.545 17.615C178.721 17.6646 178.891 17.7142 179.067 17.7761C179.225 17.8319 179.383 17.8815 179.541 17.9497C179.559 17.9497 179.577 17.9621 179.601 17.9683C179.753 18.0303 179.899 18.0984 180.045 18.1604C180.221 18.241 180.397 18.3216 180.579 18.4145C180.743 18.4951 180.901 18.5819 181.059 18.6687C181.369 18.836 181.654 19.0157 181.934 19.1893C182.687 19.6727 183.3 20.1376 183.658 20.4289C183.719 20.4847 183.768 20.5219 183.81 20.5591C183.895 20.6334 183.956 20.6768 183.986 20.7078C183.494 20.1066 176.887 12.2971 170.449 14.3176C167.837 13.4747 161.157 11.8694 156.614 15.6316C156.499 15.7308 156.377 15.8299 156.268 15.9291C154.221 15.3713 151.78 14.8816 151.78 14.8816C151.78 14.8816 142.433 16.2328 136.323 22.5114C135.57 26.1621 135.357 30.2032 137.173 32.6329C141.024 37.7648 147.291 35.0997 147.553 34.9819C147.285 35.1555 141.431 39.116 146.028 44.2356C150.735 49.4853 154.446 52.386 155.654 56.5201C156.857 60.648 153.687 63.2264 158.825 67.1188C163.963 71.0235 168.342 70.8128 170.528 68.4637C172.72 70.1558 176.055 69.9079 176.14 65.78C176.219 61.6459 176.219 61.6459 176.219 61.6459C176.219 61.6459 177.53 70.2426 183.324 71.4698C188.967 72.6598 192.198 69.1083 192.368 68.91C192.204 68.972 189.458 69.9451 187.078 68.4637C185.225 67.3109 183.592 64.6705 183.549 58.9683C186.167 62.8793 191.293 66.1147 194.092 63.3194C195.659 61.7575 198.259 60.3009 200.421 58.9436H200.427C202.127 57.8775 203.543 56.8858 203.986 55.9499C204.326 55.2247 205.765 53.5141 207.703 51.5555C208.164 50.8799 208.681 50.1981 209.251 49.5845C211.663 47.0185 217.317 42.9216 217.317 42.9216C217.317 42.9216 220.262 41.2667 218.944 33.4758ZM175.666 44.5207C175.684 44.4277 175.903 43.6778 176.14 43.436C176.383 43.1881 177.694 41.9361 177.858 41.4279C178.022 40.932 178.022 40.7585 178.624 38.5892C179.219 36.4075 179.006 36.9157 179.826 35.6575C180.646 34.3993 181.302 33.984 182.547 32.3911C183.786 30.8044 184.746 26.0319 184.582 25.1146C184.418 24.1911 185.978 21.371 185.978 21.371C188.645 39.4631 176.024 44.3843 175.666 44.5207Z" fill="#9AB640" stroke="black" stroke-width="1.0805" stroke-miterlimit="10"/>
<path d="M179.905 32.8932C171.044 41.6014 167.685 38.8309 167.685 38.8309C166.264 31.8395 166.841 27.0484 168.269 23.8192C170.364 24.7427 175.575 26.5402 178.35 23.0073C180.385 20.4227 179.352 18.6439 178.016 17.5034C178.192 17.5344 178.362 17.5778 178.539 17.6212C178.715 17.6708 178.885 17.7204 179.061 17.7823C179.219 17.8381 179.377 17.8877 179.535 17.9559C179.553 17.9559 179.571 17.9683 179.595 17.9745C179.747 18.0365 179.893 18.1046 180.039 18.1666C180.215 18.2472 180.391 18.3278 180.573 18.4207C180.737 18.5013 180.895 18.5881 181.053 18.6748C181.363 18.8422 181.648 19.0219 181.927 19.1955C182.681 19.6789 183.294 20.1438 183.652 20.4351C183.713 20.4909 183.762 20.5281 183.804 20.5653C183.889 20.6396 183.95 20.683 183.98 20.714C183.992 20.7202 183.998 20.7326 184.005 20.7388C184.011 20.745 184.011 20.745 184.011 20.745H185.978C185.978 20.745 183.841 23.2552 183.683 24.6746C183.513 26.1063 184.667 27.786 179.905 32.8932Z" fill="#CDCCCF" stroke="black" stroke-width="1.0805" stroke-miterlimit="10"/>
<path d="M178.35 23.0069C175.575 26.5336 170.364 24.7424 168.269 23.8189C170.461 18.8356 174.664 17.503 176.71 17.4039C177.136 17.3853 177.579 17.4225 178.016 17.503C179.352 18.6435 180.379 20.4223 178.35 23.0069Z" fill="#1E1E1E"/>
<path d="M177.099 20.7693C175.484 22.8271 171.658 21.3023 170.443 20.7631C171.718 17.8624 174.955 17.5649 176.146 17.5029C176.395 17.4906 176.65 17.5153 176.905 17.5587C177.682 18.2281 178.284 19.2632 177.099 20.7693Z" fill="black"/>
<path opacity="0.25" d="M199.722 11.0261C199.716 13.5239 198.496 17.1746 192.459 19.8335C191.736 20.0876 190.971 20.2674 190.23 20.3975C190.224 20.3975 190.224 20.3975 190.218 20.3975C187.885 20.4533 185.985 20.7508 185.985 20.7508C185.985 20.7508 183.914 14.5156 185.881 9.89805C186.914 10.7782 188.881 11.8752 191.809 11.0447C194.493 10.2823 194.876 7.17091 192.647 5.36108C193.43 5.37348 194.177 5.51604 194.87 5.72677C195.07 5.9561 195.216 6.16683 195.301 6.35897C197.627 6.99117 198.981 9.57576 199.722 11.0261Z" fill="white"/>
<path d="M191.803 11.0388C188.875 11.8693 186.907 10.7722 185.875 9.89212C186.355 8.77647 187.065 7.7476 188.104 6.92946C189.634 5.73323 191.195 5.32416 192.641 5.34895C194.864 7.17118 194.481 10.2764 191.803 11.0388Z" fill="#1E1E1E"/>
<path d="M190.436 8.86316C188.802 9.32801 187.703 8.7144 187.132 8.22476C187.399 7.59876 187.794 7.02853 188.377 6.56988C189.227 5.90049 190.102 5.67116 190.91 5.68976C192.149 6.70004 191.936 8.43549 190.436 8.86316Z" fill="black"/>
<path d="M163.331 35.6509C162.711 33.6179 162.438 31.4858 162.402 29.3474C162.365 27.2029 162.614 25.046 163.185 22.9511C163.786 20.8685 164.752 18.8541 166.167 17.2055C166.859 16.3687 167.692 15.6684 168.572 15.0547C169.471 14.4721 170.479 14.0383 171.518 13.9143C169.586 14.7263 168.147 16.2324 166.975 17.8563C165.827 19.5049 164.995 21.3644 164.454 23.3229C163.89 25.2753 163.598 27.3207 163.428 29.3846C163.27 31.4486 163.246 33.5373 163.331 35.6509Z" fill="black"/>
<path d="M151.646 27.5693C151.02 25.2513 151.275 22.6543 152.296 20.4168C152.806 19.2949 153.492 18.2723 154.312 17.3798C155.12 16.4872 156.079 15.7497 157.118 15.1794C156.438 16.1711 155.727 17.0698 155.114 18.0305C154.506 18.9912 153.948 19.9581 153.486 20.9746C153.018 21.9911 152.66 23.0448 152.362 24.1418C152.071 25.2451 151.877 26.3855 151.646 27.5693Z" fill="black"/>
<path d="M186.349 20.3978C187.685 20.1003 189.045 19.9826 190.412 19.9888C191.778 19.995 193.157 20.1437 194.524 20.528C194.858 20.6334 195.21 20.7635 195.526 20.8937C195.811 21.0114 196.109 21.1044 196.412 21.2036C197.02 21.4019 197.651 21.5259 198.295 21.6684C199.583 21.9225 200.907 22.0837 202.255 22.3192C200.925 22.6353 199.558 22.7779 198.174 22.7035C197.481 22.6849 196.789 22.5733 196.097 22.4308C195.75 22.3502 195.41 22.2386 195.064 22.1147C194.748 22.0031 194.469 21.904 194.159 21.8172C192.944 21.4453 191.639 21.247 190.339 21.03C189.021 20.8255 187.691 20.6519 186.349 20.3978Z" fill="black"/>
<path d="M167.722 11.7394C168.026 10.6981 168.639 9.77458 169.319 8.93784C170.005 8.10111 170.819 7.38213 171.676 6.73754C172.538 6.09914 173.473 5.5723 174.439 5.11985C174.919 4.89052 175.423 4.71697 175.915 4.52483C176.419 4.36988 176.929 4.22113 177.439 4.09717C176.978 4.36988 176.51 4.60541 176.048 4.84713C175.593 5.11365 175.131 5.34917 174.688 5.61569C174.251 5.8946 173.789 6.13013 173.364 6.43383C172.927 6.70655 172.502 7.00405 172.089 7.31395C171.257 7.92136 170.461 8.58455 169.72 9.31592C168.985 10.0597 168.287 10.8344 167.722 11.7394Z" fill="black"/>
<path d="M185.468 3.57007C184.466 4.27045 183.597 5.11958 182.887 6.07408C182.188 7.03478 181.63 8.08844 181.314 9.22888C181.223 9.5078 181.18 9.8053 181.107 10.0904C181.028 10.3755 181.004 10.673 180.974 10.9705C180.949 11.268 180.889 11.5593 180.889 11.8631C180.895 12.1606 180.895 12.4643 180.889 12.7618C180.871 13.0655 180.913 13.363 180.943 13.6667L181.022 14.5778C181.113 15.179 181.241 15.7802 181.32 16.4C181.089 15.8298 180.864 15.2472 180.676 14.6522C180.555 14.0386 180.366 13.4312 180.324 12.8052C180.16 11.547 180.294 10.2578 180.615 9.01815C180.974 7.78474 181.618 6.6443 182.456 5.7022C183.288 4.76009 184.32 3.99773 185.468 3.57007Z" fill="black"/>
<path d="M218.13 25.5232C218.896 29.1676 217.389 33.1592 214.711 35.781C214.401 36.1404 214.019 36.4132 213.679 36.7355C213.502 36.8904 213.326 37.0454 213.144 37.1879L212.573 37.5908C212.184 37.8449 211.82 38.1486 211.413 38.3655L210.199 39.0473C209.397 39.506 208.619 39.8779 207.848 40.3241C207.095 40.7952 206.33 41.2352 205.619 41.7683C204.143 42.7538 202.783 43.9128 201.489 45.1276C200.171 46.33 199.005 47.6936 197.87 49.082C196.752 50.4827 195.72 51.9703 194.809 53.5322C193.88 55.0879 193.072 56.718 192.379 58.4162C192.792 56.6188 193.454 54.8895 194.238 53.2161C195.033 51.5488 195.969 49.9435 197.05 48.4436C199.182 45.4251 201.836 42.7662 204.872 40.6588C205.619 40.1134 206.427 39.6609 207.21 39.1837C208.006 38.7374 208.856 38.3222 209.64 37.9131C211.231 37.1631 212.695 36.1714 214.013 35.0248C215.312 33.8534 216.405 32.4278 217.116 30.7977C217.839 29.1738 218.246 27.3578 218.13 25.5232Z" fill="black"/>
<path d="M205.297 55.9619C205.085 55.4103 205.079 54.9268 205.127 54.4682C205.188 54.0157 205.328 53.6004 205.534 53.2162C205.741 52.8381 206.014 52.491 206.36 52.1997C206.713 51.9146 207.126 51.6728 207.696 51.5613C207.8 52.1439 207.757 52.6025 207.678 53.0302C207.593 53.4517 207.447 53.836 207.259 54.1892C207.065 54.5425 206.822 54.8648 206.512 55.1685C206.196 55.4722 205.832 55.745 205.297 55.9619Z" fill="black"/>
<path d="M204.757 16.9949C204.891 17.7076 204.708 18.4824 204.332 19.127C203.961 19.7902 203.378 20.2984 202.741 20.6641C202.425 20.8563 202.079 20.9802 201.739 21.1104C201.392 21.2157 201.04 21.2963 200.688 21.3583C200.336 21.3955 199.977 21.4327 199.625 21.4389C199.273 21.4203 198.921 21.4079 198.568 21.3645C198.908 21.2591 199.249 21.191 199.583 21.1104L200.573 20.8439C201.21 20.6269 201.848 20.4224 202.413 20.0753C203.573 19.4617 204.472 18.408 204.757 16.9949Z" fill="black"/>
<path d="M201.095 16.9952C200.554 17.2431 200.081 17.5654 199.674 17.9311C199.473 18.1232 199.279 18.3092 199.115 18.5323L198.574 19.2141C198.192 19.6665 197.785 20.1314 197.25 20.4723C196.728 20.8256 196.03 20.9619 195.465 20.7512C196.06 20.6706 196.546 20.4165 196.947 20.0508C197.348 19.6851 197.706 19.2451 198.07 18.7864C198.259 18.5633 198.447 18.334 198.647 18.1108C198.866 17.8815 199.103 17.6708 199.37 17.5096C199.892 17.1749 200.494 16.9704 201.095 16.9952Z" fill="black"/>
<path d="M217.068 43.994C216.873 44.8059 216.57 45.903 216.242 46.6219C215.665 47.8739 215.914 51.9461 215.695 55.293C215.47 58.6399 212.191 59.7618 209.567 61.5468C204.101 71.0298 199.182 71.9781 196.06 73.6578C192.944 75.3313 190.485 79.3476 183.92 82.7008C177.36 86.0477 172.763 84.2069 168.827 83.5375C164.892 82.8681 161.934 86.3824 154.719 83.5375C135.199 72.9884 136.511 58.423 136.675 53.5699C128.015 37.6224 130.875 28.1146 136.317 22.5239C135.564 26.1746 135.351 30.2157 137.167 32.6453C141.018 37.7773 147.285 35.1122 147.546 34.9944C147.279 35.1679 141.424 39.1285 146.022 44.2481C150.729 49.4978 154.44 52.3985 155.648 56.5326C156.851 60.6605 153.68 63.2389 158.818 67.1313C163.957 71.036 168.335 70.8253 170.522 68.4762C172.714 70.1683 176.048 69.9204 176.134 65.7925C176.212 61.6584 176.212 61.6584 176.212 61.6584C176.212 61.6584 177.524 70.2551 183.318 71.4823C188.96 72.6723 192.191 69.1208 192.361 68.9225C192.197 68.9845 189.452 69.9576 187.072 68.4762C185.219 67.3234 183.585 64.683 183.543 58.9808C186.161 62.8918 191.286 66.1272 194.086 63.3319C195.653 61.77 198.259 60.3134 200.421 58.956C202.121 57.89 203.536 56.8983 203.98 55.9624C204.32 55.2372 205.759 53.5266 207.697 51.568C210.399 48.8284 214.067 45.624 217.068 43.994Z" fill="#133C35" stroke="black" stroke-width="1.0805" stroke-miterlimit="10"/>
<path d="M175.666 44.5208C175.684 44.4278 175.903 43.6779 176.139 43.4361C176.382 43.1882 177.694 41.9362 177.858 41.428C178.022 40.9321 178.022 40.7586 178.623 38.5893C179.219 36.4075 179.006 36.9158 179.826 35.6576C180.646 34.3994 181.302 33.9841 182.547 32.3912C183.786 30.8045 184.745 26.032 184.581 25.1147C184.417 24.1912 185.978 21.3711 185.978 21.3711C188.644 39.4632 176.024 44.3844 175.666 44.5208Z" fill="#133C35" stroke="black" stroke-width="1.0805" stroke-miterlimit="10"/>
<path d="M199.722 11.0261C199.716 13.5239 198.496 17.1746 192.459 19.8335C191.736 20.0876 190.971 20.2674 190.23 20.3975C190.224 20.3975 190.224 20.3975 190.218 20.3975C187.885 20.4533 185.985 20.7508 185.985 20.7508C185.985 20.7508 183.914 14.5156 185.881 9.89805C186.914 10.7782 188.881 11.8752 191.809 11.0447C194.493 10.2823 194.876 7.17091 192.647 5.36108C193.43 5.37348 194.177 5.51604 194.87 5.72677C195.07 5.9561 195.216 6.16683 195.301 6.35897C197.627 6.99117 198.981 9.57576 199.722 11.0261Z" fill="#CDCCCF" stroke="black" stroke-width="1.0805" stroke-miterlimit="10"/>
<path d="M179.905 32.8932C171.044 41.6014 167.685 38.8309 167.685 38.8309C166.264 31.8395 166.841 27.0484 168.269 23.8192C170.364 24.7427 175.575 26.5402 178.35 23.0073C180.385 20.4227 179.352 18.6439 178.016 17.5034C178.192 17.5344 178.362 17.5778 178.539 17.6212C178.715 17.6708 178.885 17.7204 179.061 17.7823C179.219 17.8381 179.377 17.8877 179.535 17.9559C179.553 17.9559 179.571 17.9683 179.595 17.9745C179.747 18.0365 179.893 18.1046 180.039 18.1666C180.215 18.2472 180.391 18.3278 180.573 18.4207C180.737 18.5013 180.895 18.5881 181.053 18.6748C181.363 18.8422 181.648 19.0219 181.927 19.1955C182.681 19.6789 183.294 20.1438 183.652 20.4351C183.713 20.4909 183.762 20.5281 183.804 20.5653C183.889 20.6396 183.95 20.683 183.98 20.714C183.992 20.7202 183.998 20.7326 184.005 20.7388C184.011 20.745 184.011 20.745 184.011 20.745H185.978C185.978 20.745 183.841 23.2552 183.683 24.6746C183.513 26.1063 184.667 27.786 179.905 32.8932Z" stroke="black" stroke-width="1.0805" stroke-miterlimit="10"/>
<path d="M187.703 9.6628C187.703 9.6628 185.814 14.1006 186.391 15.9414C186.993 14.3485 188.031 12.0924 188.444 11.423C188.851 10.7537 189.343 9.41488 187.703 9.6628Z" fill="white"/>
<path d="M172.575 21.5815C168.858 25.7342 168.348 33.0541 168.348 33.0541C168.348 33.0541 168.348 31.3186 168.348 28.3374C168.348 26.2858 170.03 22.8769 171.087 20.9431C171.5 21.16 172.034 21.4142 172.575 21.5815Z" fill="white"/>
<path d="M217.311 40.4485C214.906 42.6736 212.349 44.7623 209.695 46.6527C208.444 47.5886 207.429 48.7787 206.646 50.1608C206.245 50.8488 205.874 51.5678 205.48 52.2991C205.285 52.6648 205.079 53.0367 204.854 53.4086C204.745 53.5945 204.617 53.7743 204.502 53.954L204.162 54.4561C202.334 57.1646 200.615 59.9847 198.429 62.5321C198.149 62.8482 197.864 63.1581 197.53 63.4556C197.214 63.7407 196.928 63.9825 196.637 64.2676C196.06 64.8192 195.513 65.4142 194.997 66.034C193.959 67.2736 193.023 68.6186 192.367 70.1371C192.75 68.5132 193.564 67.0195 194.487 65.6373C194.961 64.9494 195.471 64.2862 196.024 63.654C196.291 63.3379 196.613 63.0342 196.886 62.7491C197.147 62.4825 197.402 62.1726 197.645 61.8565C198.611 60.5859 199.516 59.2162 200.396 57.8402L203.075 53.6999L203.433 53.1855C203.542 53.0243 203.652 52.8694 203.755 52.702C203.961 52.3673 204.162 52.0264 204.356 51.6669C204.751 50.9542 205.134 50.2104 205.589 49.4914C206.488 48.0535 207.666 46.7085 209.112 45.7912C211.887 44.0619 214.565 42.2459 217.311 40.4485Z" fill="black"/>
<path d="M31.3868 25.9266C31.3868 29.9305 30.3604 33.1721 28.3016 35.6513C26.0969 38.2793 23.0603 39.5933 19.1855 39.5933C18.5357 39.5933 17.5639 39.5561 16.2582 39.4817C14.9524 39.4074 13.9746 39.3702 13.3308 39.3702C12.6324 39.3702 12.2862 39.6739 12.2862 40.2875C12.2862 41.0498 12.3591 42.1779 12.5049 43.684C12.6506 45.1901 12.7235 46.312 12.7235 47.0557C12.7235 47.44 12.5534 47.626 12.2133 47.626C11.2234 47.626 9.74149 47.595 7.76766 47.5392C5.78776 47.4834 4.30587 47.4524 3.32199 47.4524C2.85435 47.4524 2.61749 47.2107 2.61749 46.7335C2.61749 44.8988 2.64785 42.1407 2.70251 38.4591C2.75717 34.7836 2.78754 32.0255 2.78754 30.1847C2.78754 24.9907 2.5689 19.5364 2.13162 13.8156L2.10733 13.4685C2.07696 13.1524 2.31989 12.9665 2.83613 12.8983C4.09938 12.731 6.88703 12.6504 11.1991 12.6504C13.7438 12.6504 16.1792 12.6814 18.5174 12.7496C22.3558 12.8673 25.4532 14.0945 27.8036 16.4436C30.1843 18.867 31.3868 22.0218 31.3868 25.9266ZM21.6877 26.3233C21.6877 22.4681 19.8475 20.5467 16.1731 20.5467C13.5798 20.5467 12.2194 20.6955 12.0919 20.993C11.9765 21.2099 11.9218 23.1189 11.9218 26.72C11.9218 27.2344 11.94 27.9906 11.9825 28.9884C12.0251 29.9925 12.0433 30.7487 12.0433 31.2569C12.0433 31.5854 13.5009 31.7528 16.4161 31.7528C19.9265 31.7528 21.6877 29.9429 21.6877 26.3233Z" fill="white"/>
<path d="M59.6035 39.742C59.6035 40.4547 59.4638 41.7563 59.1905 43.6591C58.899 45.7293 58.6378 46.9565 58.4131 47.3532C58.2188 47.6693 57.9515 47.8242 57.6114 47.8242C57.4657 47.8242 57.2227 47.7994 56.8826 47.7498C55.6983 47.5825 52.2487 47.5019 46.5276 47.5019C45.2826 47.5019 43.4241 47.4957 40.9644 47.4771C38.4987 47.4585 36.6524 47.4523 35.4256 47.4523C34.8911 47.4523 34.6239 47.2106 34.6239 46.7334C34.6239 44.8801 34.7271 42.0972 34.9276 38.3908C35.128 34.6782 35.2312 31.8952 35.2312 30.042C35.2312 28.1578 35.1341 24.6435 34.9397 19.4991C34.8911 18.179 34.8 16.2018 34.6725 13.5738L34.6482 13.2267C34.6178 12.8486 34.8182 12.6565 35.2555 12.6565C36.452 12.6565 38.2557 12.6875 40.6608 12.7557C43.0658 12.8238 44.8696 12.8548 46.066 12.8548C47.2503 12.8548 49.0298 12.8238 51.4106 12.7557C53.7913 12.6875 55.5769 12.6565 56.7551 12.6565C57.5993 12.6565 58.0851 12.9788 58.2127 13.6234C58.2916 14.0015 58.4192 15.1543 58.5892 17.0819C58.7593 19.0095 58.8443 20.1809 58.8443 20.59C58.8443 20.9371 58.6803 21.1106 58.3584 21.1106C58.2613 21.1106 58.0912 21.1044 57.8483 21.0858C53.5362 20.7202 49.6675 20.5404 46.23 20.5404C45.3737 20.5404 44.8453 20.7449 44.6509 21.1602C44.572 21.3586 44.5295 21.997 44.5295 23.0692C44.5295 24.1911 44.6935 24.9348 45.0153 25.3005C45.2886 25.6166 45.817 25.7716 46.5944 25.7716C46.7584 25.7716 47.0742 25.7592 47.5418 25.7344C48.0095 25.7096 48.3982 25.6972 48.7079 25.6972C50.7486 25.6972 52.8135 25.6414 54.9027 25.5236C55.0788 25.505 55.5283 25.4679 56.2388 25.3997C56.7915 25.3315 57.2288 25.3005 57.5507 25.3005C57.9394 25.3005 58.1337 25.4926 58.1337 25.8707C58.1337 25.5236 57.988 26.788 57.6964 29.6639C57.5689 30.9841 57.5021 32.3105 57.5021 33.6307C57.5021 33.9592 57.2652 34.1265 56.7976 34.1265L54.6112 33.8786C53.6881 33.7794 51.5806 33.7299 48.2949 33.7299H45.7199C45.0579 33.7299 44.6692 33.8972 44.5538 34.2257C44.5356 34.3063 44.5295 34.8207 44.5295 35.7628C44.5295 37.021 44.6084 37.833 44.7724 38.1924C45.0457 38.8184 46.0843 39.1965 47.882 39.3081C47.8516 39.3081 49.0298 39.3081 51.4288 39.3081C52.2851 39.3081 53.5605 39.2275 55.255 39.0726C56.9494 38.9176 58.2187 38.837 59.0569 38.837C59.4213 38.8494 59.6035 39.1469 59.6035 39.742Z" fill="white"/>
<path d="M91.95 25.9266C91.95 29.9305 90.9236 33.1721 88.8647 35.6513C86.6601 38.2793 83.6234 39.5933 79.7487 39.5933C79.0988 39.5933 78.1271 39.5561 76.8213 39.4817C75.5156 39.4074 74.5378 39.3702 73.894 39.3702C73.1956 39.3702 72.8494 39.6739 72.8494 40.2875C72.8494 41.0498 72.9223 42.1779 73.068 43.684C73.2138 45.1901 73.2867 46.312 73.2867 47.0557C73.2867 47.44 73.1166 47.626 72.7765 47.626C71.7865 47.626 70.3047 47.595 68.3308 47.5392C66.3509 47.4834 64.869 47.4524 63.8852 47.4524C63.4175 47.4524 63.1806 47.2107 63.1806 46.7335C63.1806 44.8988 63.211 42.1407 63.2657 38.4591C63.3203 34.7836 63.3507 32.0255 63.3507 30.1847C63.3507 24.9907 63.1321 19.5364 62.6948 13.8156L62.6705 13.4685C62.6401 13.1524 62.8831 12.9665 63.3993 12.8983C64.6625 12.731 67.4502 12.6504 71.7623 12.6504C74.307 12.6504 76.7424 12.6814 79.0806 12.7496C82.9189 12.8673 86.0163 14.0945 88.3667 16.4436C90.7475 18.867 91.95 22.0218 91.95 25.9266ZM82.2509 26.3233C82.2509 22.4681 80.4107 20.5467 76.7363 20.5467C74.143 20.5467 72.7826 20.6955 72.655 20.993C72.5396 21.2099 72.485 23.1189 72.485 26.72C72.485 27.2344 72.5032 27.9906 72.5457 28.9884C72.5882 29.9925 72.6064 30.7487 72.6064 31.2569C72.6064 31.5854 74.064 31.7528 76.9792 31.7528C80.4957 31.7528 82.2509 29.9429 82.2509 26.3233Z" fill="white"/>
<path d="M120.167 39.742C120.167 40.4547 120.027 41.7563 119.754 43.6591C119.462 45.7293 119.201 46.9565 118.976 47.3532C118.782 47.6693 118.515 47.8242 118.175 47.8242C118.029 47.8242 117.786 47.7994 117.446 47.7498C116.261 47.5825 112.812 47.5019 107.091 47.5019C105.846 47.5019 103.987 47.4957 101.528 47.4771C99.0618 47.4585 97.2155 47.4523 95.9887 47.4523C95.4543 47.4523 95.187 47.2106 95.187 46.7334C95.187 44.8801 95.2903 42.0972 95.4907 38.3908C95.6911 34.6782 95.7944 31.8952 95.7944 30.042C95.7944 28.1578 95.6972 24.6435 95.5029 19.4991C95.4543 18.179 95.3632 16.2018 95.2356 13.5738L95.2113 13.2267C95.181 12.8486 95.3814 12.6565 95.8187 12.6565C97.0151 12.6565 98.8189 12.6875 101.224 12.7557C103.629 12.8238 105.433 12.8548 106.629 12.8548C107.813 12.8548 109.593 12.8238 111.974 12.7557C114.354 12.6875 116.134 12.6565 117.318 12.6565C118.162 12.6565 118.648 12.9788 118.776 13.6234C118.855 14.0015 118.982 15.1543 119.152 17.0819C119.322 19.0095 119.407 20.1809 119.407 20.59C119.407 20.9371 119.243 21.1106 118.922 21.1106C118.824 21.1106 118.654 21.1044 118.411 21.0858C114.099 20.7202 110.231 20.5404 106.793 20.5404C105.937 20.5404 105.408 20.7449 105.214 21.1602C105.135 21.3586 105.093 21.997 105.093 23.0692C105.093 24.1911 105.257 24.9348 105.579 25.3005C105.852 25.6166 106.38 25.7716 107.158 25.7716C107.322 25.7716 107.637 25.7592 108.105 25.7344C108.573 25.7096 108.961 25.6972 109.271 25.6972C111.312 25.6972 113.377 25.6414 115.466 25.5236C115.642 25.505 116.091 25.4679 116.802 25.3997C117.355 25.3315 117.792 25.3005 118.114 25.3005C118.503 25.3005 118.697 25.4926 118.697 25.8707C118.697 25.5236 118.551 26.788 118.26 29.6639C118.126 30.9841 118.065 32.3105 118.065 33.6307C118.065 33.9592 117.828 34.1265 117.361 34.1265L115.174 33.8786C114.251 33.7794 112.144 33.7299 108.858 33.7299H106.283C105.621 33.7299 105.232 33.8972 105.117 34.2257C105.099 34.3063 105.093 34.8207 105.093 35.7628C105.093 37.021 105.172 37.833 105.336 38.1924C105.609 38.8184 106.647 39.1965 108.445 39.3081C108.415 39.3081 109.593 39.3081 111.992 39.3081C112.848 39.3081 114.124 39.2275 115.818 39.0726C117.513 38.9176 118.782 38.837 119.62 38.837C119.984 38.8494 120.167 39.1469 120.167 39.742Z" fill="white"/>
<path d="M23.2912 78.5666C23.3155 78.8827 23.1515 79.0438 22.8114 79.0438C22.5928 79.0438 21.9672 78.9137 20.9287 78.6595C19.8901 78.4054 19.2524 78.2257 19.0095 78.1327C16.6105 79.0934 14.3087 79.5707 12.1041 79.5707C8.55731 79.5707 5.64819 78.3682 3.37677 75.951C1.12356 73.5709 0 70.5711 0 66.939C0 63.2264 1.08712 60.146 3.26745 57.6977C5.51458 55.1689 8.43584 53.9045 12.0313 53.9045C13.7743 53.9045 15.4141 54.2454 16.9567 54.921C18.6208 55.671 19.9266 56.7247 20.8801 58.082C21.0744 58.3609 21.1716 58.5655 21.1716 58.677C21.1716 59.0551 20.6554 59.8919 19.629 61.1996C18.6026 62.5074 17.9406 63.1582 17.643 63.1582C17.5762 63.1582 17.309 62.9165 16.8535 62.4392C16.2887 61.8628 15.7178 61.4228 15.1347 61.1067C14.2602 60.6294 13.3006 60.3877 12.2438 60.3877C10.5251 60.3877 9.15857 61.0447 8.14433 62.3525C7.20296 63.5611 6.73531 65.0672 6.73531 66.8709C6.73531 68.7798 7.22118 70.2922 8.19899 71.4016C9.20716 72.5483 10.6405 73.1247 12.4868 73.1247C13.6589 73.1247 14.9647 72.8272 16.4101 72.226C16.3737 71.8417 16.2704 70.8562 16.1004 69.2757C15.9485 68.0609 15.8757 67.0754 15.8757 66.3254C15.8757 66.1023 15.9485 65.9659 16.1004 65.9226C16.155 65.8978 16.2461 65.8854 16.3737 65.8854C16.7077 65.8854 17.2057 65.9164 17.8799 65.9845C18.554 66.0465 19.0581 66.0837 19.4043 66.0837C19.7687 66.0837 20.3213 66.0589 21.0562 66.0031C21.7911 65.9473 22.3438 65.9226 22.7082 65.9226C22.9936 65.9226 23.1394 66.1147 23.1394 66.5052C23.1394 67.0692 23.109 67.9183 23.0422 69.0526C22.9815 70.1868 22.945 71.0359 22.945 71.6C22.945 73.1123 23.0543 75.3684 23.273 78.3806L23.2912 78.5666Z" fill="white"/>
<path d="M46.218 78.9508C46.218 79.0314 46.1026 79.0934 45.8718 79.1244C45.4345 79.1926 44.3413 79.2297 42.5861 79.2297C41.08 79.2297 40.0596 79.1926 39.5191 79.1244C39.264 79.0872 39.1243 79.0624 39.0879 79.0376C39.0211 79.0004 38.9361 78.8827 38.845 78.6843C38.6749 78.2257 38.4198 77.5501 38.0858 76.6452C37.6364 75.4737 36.9379 73.7445 35.9844 71.4636C35.7779 71.0049 35.3042 70.757 34.5572 70.7074C34.9034 70.7322 34.3082 70.7446 32.7838 70.7446C32.6137 70.7446 32.5226 71.0421 32.5226 71.6433C32.5226 72.4367 32.5955 73.6267 32.7352 75.2072C32.881 76.7877 32.9478 77.9777 32.9478 78.7711C32.9478 78.9694 32.8931 79.0872 32.7959 79.1244C32.638 79.1368 32.4741 79.1492 32.3161 79.1616C31.6359 79.2112 30.5853 79.2297 29.1519 79.2297C27.5122 79.2297 26.5222 79.1926 26.1942 79.1244C25.8602 79.0562 25.6962 78.8703 25.6962 78.5789C25.6962 77.2898 25.757 75.3436 25.8784 72.7466C25.9999 70.1496 26.0606 68.1972 26.0606 66.8956C26.0606 61.9434 25.9513 58.0758 25.7327 55.2991L25.7144 55.0512C25.7023 54.8528 25.8845 54.7165 26.255 54.6483C26.6254 54.5801 28.3806 54.5057 31.5145 54.4376C33.6401 54.388 35.3285 54.3694 36.5918 54.3694C39.2094 54.3694 41.3411 54.9706 42.993 56.1792C44.8636 57.5366 45.7989 59.5014 45.7989 62.0674C45.7989 63.778 45.556 65.1416 45.0762 66.1581C44.5964 67.1745 43.7036 68.1662 42.41 69.1269C42.1428 69.3129 42.0152 69.4926 42.0152 69.6538C42.0152 69.6414 42.7137 71.1103 44.1166 74.0606C45.5196 77.0232 46.218 78.6471 46.218 78.9508ZM38.9847 63.1954C38.9847 61.7637 38.5231 60.7782 37.606 60.2265C36.8954 59.8051 35.784 59.5943 34.2657 59.5943C33.1725 59.5943 32.5955 59.7617 32.5287 60.1026C32.4619 60.4993 32.4255 61.6459 32.4255 63.5425C32.4255 63.809 32.4315 64.2119 32.4437 64.7387C32.4558 65.2655 32.4619 65.656 32.4619 65.9163C32.4619 65.9783 32.6441 66.0341 33.0146 66.0899C33.713 66.1953 34.4479 66.2448 35.2192 66.2448C37.7336 66.251 38.9847 65.2346 38.9847 63.1954Z" fill="white"/>
<path d="M72.0721 66.8337C72.0721 70.4906 70.9303 73.5524 68.6467 76.0192C66.3146 78.5232 63.369 79.7814 59.7979 79.7814C56.2511 79.7814 53.3055 78.517 50.9673 75.9882C48.6716 73.5152 47.5237 70.4658 47.5237 66.8337C47.5237 63.1893 48.6716 60.1274 50.9673 57.6482C53.3055 55.107 56.2511 53.8364 59.7979 53.8364C63.3204 53.8364 66.2599 55.107 68.6103 57.6482C70.9182 60.1522 72.0721 63.2141 72.0721 66.8337ZM65.5494 66.7965C65.5494 65.0425 65.027 63.5488 63.9824 62.3154C62.8892 61.0262 61.4984 60.3816 59.7979 60.3816C58.1824 60.3816 56.8098 61.051 55.6863 62.3835C54.5931 63.6727 54.0526 65.1541 54.0526 66.8275C54.0526 68.6188 54.5627 70.1125 55.583 71.3087C56.6641 72.5607 58.067 73.1867 59.7979 73.1867C61.4134 73.1867 62.7921 72.5235 63.9278 71.2033C65.0088 69.9451 65.5494 68.47 65.5494 66.7965Z" fill="white"/>
<path d="M95.1872 70.5031C95.1872 73.4905 94.8349 75.5297 94.1365 76.6143C92.8489 78.6039 89.6422 79.6018 84.5163 79.6018C82.1963 79.6018 80.4108 79.422 79.1658 79.0564C77.1676 78.4675 75.874 77.3519 75.2728 75.7032C74.9752 74.8975 74.8233 73.4533 74.8233 71.3832C74.8233 70.8997 74.8415 70.187 74.878 69.2387C74.9144 68.2904 74.9326 67.5838 74.9326 67.1127C74.9326 65.7553 74.8719 63.7162 74.7444 61.0014C74.6168 58.2867 74.5561 56.2537 74.5561 54.9088C74.5561 54.6299 74.6776 54.4873 74.9144 54.4873C75.6129 54.4873 76.6757 54.5183 78.0908 54.5741C79.5059 54.6361 80.5687 54.6608 81.2671 54.6608C81.5526 54.6608 81.6983 54.791 81.6983 55.0451C81.6983 56.5884 81.6497 58.9065 81.5526 61.9931C81.4554 65.0798 81.4068 67.3978 81.4068 68.9411C81.4068 70.782 81.5951 72.0216 81.9777 72.6662C82.4818 73.5463 83.5385 73.9864 85.1419 73.9864C87.4923 73.9864 88.6705 72.8211 88.6705 70.4907C88.6705 68.7924 88.628 66.245 88.549 62.8485C88.4701 59.4519 88.4276 56.9045 88.4276 55.2063C88.4276 54.8406 88.5733 54.6608 88.8588 54.6608C89.539 54.6608 90.5593 54.6299 91.9258 54.5741C93.2923 54.5121 94.3126 54.4873 94.9867 54.4873C95.3208 54.4873 95.4848 54.6299 95.4848 54.9088C95.4848 56.2537 95.4301 58.2867 95.3208 61.0014C95.2115 63.7162 95.1568 65.7553 95.1568 67.1127C95.1568 67.4846 95.1629 68.0548 95.175 68.8048C95.1811 69.5672 95.1872 70.1312 95.1872 70.5031Z" fill="white"/>
<path d="M119.201 63.8834C119.201 66.7159 118.472 69.0154 117.015 70.7694C115.454 72.6288 113.304 73.5647 110.559 73.5647C110.097 73.5647 109.411 73.5399 108.482 73.4842C107.559 73.4284 106.866 73.4036 106.411 73.4036C105.919 73.4036 105.67 73.6205 105.67 74.0544C105.67 74.5936 105.724 75.3932 105.828 76.4592C105.931 77.5253 105.979 78.3186 105.979 78.8455C105.979 79.1182 105.858 79.2483 105.615 79.2483C104.917 79.2483 103.866 79.2298 102.463 79.1864C101.06 79.143 100.015 79.1244 99.311 79.1244C98.9769 79.1244 98.8129 78.957 98.8129 78.6161C98.8129 77.3146 98.8312 75.3622 98.8737 72.759C98.9162 70.1558 98.9344 68.1972 98.9344 66.9018C98.9344 63.2264 98.7826 59.3588 98.4668 55.3053L98.4485 55.0574C98.4243 54.8342 98.6004 54.6979 98.9648 54.6545C99.8576 54.5367 101.831 54.481 104.886 54.481C106.69 54.481 108.415 54.5057 110.067 54.5491C112.788 54.6297 114.98 55.5036 116.644 57.1647C118.351 58.8816 119.201 61.1191 119.201 63.8834ZM112.332 64.1623C112.332 61.4352 111.032 60.0716 108.427 60.0716C106.593 60.0716 105.627 60.177 105.536 60.3877C105.457 60.5426 105.415 61.8938 105.415 64.4474C105.415 64.8069 105.427 65.3461 105.457 66.0527C105.488 66.7593 105.5 67.2985 105.5 67.658C105.5 67.8935 106.532 68.0113 108.597 68.0113C111.087 68.0113 112.332 66.7283 112.332 64.1623Z" fill="white"/>
</g>
<defs>
<clipPath id="clip0_1_547">
<rect width="220" height="85" fill="white"/>
</clipPath>
</defs>
</svg>
